<?xml version="1.0" standalone="no"?>
<!DOCTYPE svg PUBLIC "-//W3C//DTD SVG 1.1//EN" "http://www.w3.org/Graphics/SVG/1.1/DTD/svg11.dtd" >
<svg>
<metadata>
Created by FontForge 20090914 at Sun Sep 30 14:59:03 2012
 By www-data
Digitized data copyright The Monotype Corporation 1991-1995. All rights reserved. Forte&#226;&#132;&#162; is a trademark of The Monotype Corporation which may be registered in certain jurisdictions.
</metadata>
<defs>
<font id="ForteMT" horiz-adv-x="682" >
  <font-face 
    font-family="Forte"
    font-weight="400"
    font-style="italic"
    font-stretch="normal"
    units-per-em="2048"
    panose-1="3 6 9 2 4 5 2 7 2 3"
    ascent="1638"
    descent="-410"
    x-height="956.002"
    cap-height="1389"
    bbox="-497.999 -438.001 2591 1878"
    underline-thickness="102"
    underline-position="-154"
    slope="-10"
    unicode-range="U+0020-U+FB02"
  />
<missing-glyph horiz-adv-x="1024" 
d="M82 1365h860v-1365h-860v1365zM123 1324v-1283h778v1283h-778z" />
    <glyph glyph-name=".notdef" horiz-adv-x="1024" 
d="M82 1365h860v-1365h-860v1365zM123 1324v-1283h778v1283h-778z" />
    <glyph glyph-name="space" unicode=" " horiz-adv-x="544" 
 />
    <glyph glyph-name="exclam" unicode="!" horiz-adv-x="748" 
d="M215 369c-45.333 0 -68.002 22.3311 -68.002 66.998c0 11.333 3.66699 33.333 11 66c54.667 237.333 113.334 442 176.001 614c14.667 42.667 32.334 75.334 53.001 98.001c24.667 26.667 62.667 49.5 114 68.5s101.333 28.5 150 28.5c45.333 0 68 -15.667 68 -47
c0 -36 -45 -167.333 -135 -394c-93.333 -230 -147.333 -355.333 -162 -376c-13.333 -19.333 -33.333 -38.666 -60 -57.999s-53.667 -35.333 -81 -48s-49.333 -19 -66 -19zM142.998 -4.00195c-25.333 0 -46 7.16699 -62 21.5s-24 33.166 -24 56.499c0 41.333 22 96 66 164
c8 12 16 22 24 30c20 20 45.333 36.333 76 49s60 19 88 19c26.667 0 48 -5.66699 64 -17s24 -26.333 24 -45c0 -22.667 -6 -51.167 -18 -85.5s-26.333 -65.166 -43 -92.499c-9.33301 -15.333 -25 -30.333 -47 -45c-54.667 -36.667 -104 -55 -148 -55z" />
    <glyph glyph-name="quotedbl" unicode="&#x22;" horiz-adv-x="727" 
d="M268 946l8 281l52 239h204l-49 -239l-106 -281h-109zM598 946l12 281l52 239h204l-51 -239l-108 -281h-109z" />
    <glyph glyph-name="numbersign" unicode="#" horiz-adv-x="1368" 
d="M78 1018h309l84 383h188l-84 -383h355l82 383h190l-82 -383h168v-191h-205l-63 -303h268v-188h-303l-84 -379h-188l82 379h-359l-78 -379h-190l80 379h-170v188h209l63 303h-272v191zM539 827l-62 -301h354l64 301h-356z" />
    <glyph glyph-name="dollar" unicode="$" horiz-adv-x="1110" 
d="M795 1384l81.998 -26c16.667 53.333 43.667 80 81 80c14 0 21 -7.66699 21 -23c0 -19.333 -8.33301 -46 -25 -80l-2 -6l-2 -6c86 -46 129 -102.667 129 -170c0 -28.667 -6.83301 -58 -20.5 -88s-31.167 -55.333 -52.5 -76s-41.333 -31 -60 -31
c-33.333 0 -64.666 31 -93.999 93l-92 -273c44 -40 75.167 -69.667 93.5 -89s37.5 -43.666 57.5 -72.999c48 -64 72 -137 72 -219c0 -75.333 -21.333 -145.5 -64 -210.5s-101.5 -117.833 -176.5 -158.5s-160.167 -65.667 -255.5 -75l-4 -12c-42 -108 -67 -166 -75 -174
c-2 -3.33301 -6.33301 -5 -13 -5c-9.33301 0 -14 7.66699 -14 23c0 5.33301 2.66699 20.5 8 45.5s15 63.167 29 114.5l4 12l-103 20c-16 -58 -41.667 -122.667 -77 -194c-5.33301 -12.667 -11 -19 -17 -19c-5.33301 0 -10 3 -14 9s-6 11.333 -6 16
c0 15.333 12.333 67.333 37 156c4.66699 22 8.66699 37.667 12 47l4 12c-136.667 60.667 -205 110.667 -205 150c0 13.333 7.66699 32.666 23 57.999s31.666 46.666 48.999 63.999c12.667 13.333 28.334 27.166 47.001 41.499s35.334 25.333 50.001 33s26.667 11.5 36 11.5
c19.333 0 42 -15.667 68 -47c6.66699 -8 13.334 -15.333 20.001 -22l92 282c-55.333 41.333 -93.333 71.5 -114 90.5s-46 45.5 -76 79.5c-58.667 68.667 -88 143.334 -88 224.001c0 76.667 26 152.334 78 227.001c26 38.667 55 70.5 87 95.5s70.333 45.833 115 62.5
c74 26 145.667 39 215 39c9.33301 0 18.166 -0.166992 26.499 -0.5s17.5 -0.833008 27.5 -1.5c4.66699 11.333 14.667 21.666 30 30.999s31 14 47 14c10 0 15 -7 15 -21c0 -3.33301 -2 -13.666 -6 -30.999zM577.998 975l84.001 254c-22.667 2.66699 -34.334 4 -35.001 4
c-63.333 0 -95 -43.667 -95 -131c0 -44.667 15.333 -87 46 -127zM628.999 387l-66 -207c28.667 -9.33301 50 -14 64 -14c27.333 0 41 24.667 41 74c0 43.333 -13 92.333 -39 147zM732.999 1198l-101.999 -293l61 -63l109 291l-6 8c-26.667 28 -47.334 47 -62.001 57z
M506 522l-94 -272l80 -47l79 256z" />
    <glyph glyph-name="percent" unicode="%" horiz-adv-x="1749" 
d="M590 1415c5.33301 2.66699 10.667 4.00098 16 4.00098c20.667 0 40.667 -12 60 -36s35.333 -54.833 48 -92.5s19 -75.167 19 -112.5c0 -64.667 -13.5 -136.334 -40.5 -215.001s-61.833 -150.5 -104.5 -215.5s-87.667 -114.167 -135 -147.5c-49.333 -34 -104 -51 -164 -51
c-67.333 0 -124.166 27.5 -170.499 82.5s-69.5 123.167 -69.5 204.5c0 58 8.66699 118.333 26 181s41.333 122 72 178s64.334 102 101.001 138c37.333 35.333 79.666 63.333 126.999 84s93.666 31 138.999 31c28.667 0 54 -11 76 -33zM522.001 1386l8 4.99902l-4 4
c-32.667 -6.66699 -63.334 -25.334 -92.001 -56.001c-41.333 -45.333 -77.166 -108.666 -107.499 -189.999s-45.5 -155.666 -45.5 -222.999c0 -36 6.16699 -73.167 18.5 -111.5s28 -70.333 47 -96s37.167 -38.5 54.5 -38.5c14.667 0 30.5 10.833 47.5 32.5
s32.167 50.5 45.5 86.5c42 108 63 206.333 63 295c0 47.333 -6.66699 90.333 -20 129s-31.333 68 -54 88c-8 8 -12 14 -12 18c0 8.66699 14.333 25 43 49l4 4zM1581 635c5.33301 1.33301 11.3301 2 17.9971 2c20 0 40 -11.333 60 -34s36.167 -52.167 48.5 -88.5
s18.5 -74.166 18.5 -113.499s-5.66699 -84.333 -17 -135s-26.666 -99.5 -45.999 -146.5s-42.166 -92.167 -68.499 -135.5s-53.5 -79.666 -81.5 -108.999c-67.333 -70.667 -139 -106 -215 -106c-75.333 0 -135.666 26 -180.999 78s-68 120 -68 204
c0 78 12.5 154.667 37.5 230s58.833 141.666 101.5 198.999s91 102.666 145 135.999s110 50 168 50c44 0 70.667 -10.333 80 -31zM1530 610l0.000976562 -4.00195l-4 4c-24.667 -5.33301 -43.334 -11.666 -56.001 -18.999s-27 -20.666 -43 -39.999
c-38 -44 -70.667 -100 -98 -168c-35.333 -88.667 -53 -173.334 -53 -254.001c0 -72.667 22.333 -136.667 67 -192c22.667 -28.667 40.667 -43 54 -43c12.667 0 28 11.667 46 35s34 53 48 89c18.667 48 33.5 97.333 44.5 148s16.5 95 16.5 133
c0 116.667 -31.333 199.334 -94 248.001zM708.999 591.998l17.9971 28.999l118.5 182l159.5 237l112.5 159.5c22.333 31 43.166 58.5 62.499 82.5c52.667 66 97.667 111 135 135c24.667 18 49.334 27 74.001 27c19.333 0 37.333 -5.66699 54 -17s30.167 -27 40.5 -47
s15.5 -39.667 15.5 -59c0 -22 -5.16699 -45.5 -15.5 -70.5s-26.166 -54.833 -47.499 -89.5s-55.666 -85.667 -102.999 -153l-19.5 -28.5c-7.66699 -11 -12.167 -17.167 -13.5 -18.5l-34 -52l-33 -45c-198 -282.667 -390 -538.667 -576 -768
c-34 -43.333 -67.333 -80.666 -100 -111.999c-44.667 -46.667 -86.334 -70 -125.001 -70c-21.333 0 -39.666 6.83301 -54.999 20.5s-23 30.167 -23 49.5c0 33.333 90.333 190.333 271 471c6.66699 10 13.334 20.667 20.001 32l23 39z" />
    <glyph glyph-name="ampersand" unicode="&#x26;" horiz-adv-x="1174" 
d="M604 842c29.333 25.333 55.333 56.168 78 92.501s40 74.833 52 115.5s18 82.667 18 126c0 48.667 -11 73 -33 73s-43.833 -13 -65.5 -39s-39 -59.333 -52 -100s-19.5 -84.334 -19.5 -131.001c0 -24.667 1.66699 -47 5 -67s9 -43.333 17 -70zM430 465.002
c-23.333 -29.333 -39.667 -55.499 -49 -78.499s-14 -49.5 -14 -79.5c0 -36.667 12 -67.667 36 -93s54.333 -38 91 -38c30.667 0 63.334 10.333 98.001 31c-11.333 12.667 -19.666 23.667 -24.999 33c-12.667 17.333 -25.334 36.333 -38.001 57l-70 119l-16.5 28.5
c-3.66699 6.33301 -7.83398 13.166 -12.501 20.499zM675.999 111.003l-51.0029 -30.9971c-71.333 -38.667 -129.666 -65.834 -174.999 -81.501s-92.333 -23.5 -141 -23.5c-74.667 0 -136 22 -184 66s-72 100 -72 168c0 56 20.667 114.167 62 174.5
s109.333 131.166 204 212.499l28.5 24l17.5 15c-18 84.667 -27 157.667 -27 219c0 91.333 20 177.5 60 258.5s93.167 145.5 159.5 193.5s136.5 72 210.5 72c55.333 0 104.333 -9.33301 147 -28s75.334 -45.5 98.001 -80.5s34 -75.167 34 -120.5
c0 -33.333 -7 -66.833 -21 -100.5s-33 -64.5 -57 -92.5c-42 -48.667 -79 -87.334 -111 -116.001s-96.667 -81.334 -194 -158.001c15.333 -36.667 35 -71.334 59 -104.001c14 -20.667 30.333 -42 49 -64c31.333 -36.667 71 -75.667 119 -117
c10.667 3.33301 21.667 10.333 33 21c5.33301 5.33301 9.33301 8 12 8c6 0 11.333 -3.33301 16 -10c2.66699 -5.33301 4 -8.66602 4 -9.99902c0 -4 -3.33301 -10.333 -10 -19c-6 -6 -10.667 -13.333 -14 -22c57.333 -43.333 109 -77.666 155 -102.999
c37.333 -17.333 56 -32.333 56 -45c0 -16.667 -7.16699 -39 -21.5 -67s-32.5 -53.333 -54.5 -76c-22.667 -22.667 -49.167 -41 -79.5 -55s-59.166 -21 -86.499 -21c-29.333 0 -55.5 3.66699 -78.5 11s-45.833 18.833 -68.5 34.5s-48.667 38.167 -78 67.5z" />
    <glyph glyph-name="quotesingle" unicode="'" horiz-adv-x="391" 
d="M264 946l12 275l52 245h204l-51 -245l-106 -275h-111z" />
    <glyph glyph-name="parenleft" unicode="(" horiz-adv-x="705" 
d="M492 1024c-22.667 -42.667 -39.999 -78.8291 -51.999 -108.496s-25 -69.834 -39 -120.501c-26 -102.667 -39 -206 -39 -310c0 -199.333 69.667 -322.666 209 -369.999c22 -8.66699 33 -16.334 33 -23.001c0 -16 -9.5 -31.5 -28.5 -46.5s-44.667 -27 -77 -36
s-65.5 -13.5 -99.5 -13.5c-40 0 -80.333 7.16699 -121 21.5s-73.334 33.166 -98.001 56.499c-41.333 40.667 -73.833 92.5 -97.5 155.5s-35.5 130.5 -35.5 202.5c0 84 11.833 169.833 35.5 257.5s57.167 171.667 100.5 252s95.333 154.666 156 222.999
s126 125.833 196 172.5c45.333 30 78.666 45 99.999 45c15.333 0 28.333 -2.33301 39 -7s16 -11 16 -19c0 -10 -17.667 -40.667 -53 -92c-41.333 -62.667 -79.666 -124.334 -114.999 -185.001z" />
    <glyph glyph-name="parenright" unicode=")" horiz-adv-x="662" 
d="M217 276c96.667 163.333 145.001 323.332 145.001 479.999c0 64 -8.16699 123.5 -24.5 178.5s-39.833 102.667 -70.5 143s-68.334 73.166 -113.001 98.499c-16.667 9.33301 -28 17.5 -34 24.5s-9 15.167 -9 24.5c0 20.667 17 49.334 51 86.001
c22.667 22.667 47.834 40.834 75.501 54.501s53.5 20.5 77.5 20.5c58.667 0 116 -28.667 172 -86c96 -96.667 144 -240 144 -430c0 -95.333 -12.5 -185.333 -37.5 -270s-63.833 -166 -116.5 -244c-39.333 -60.667 -86.833 -120.667 -142.5 -180
s-107.834 -106.333 -156.501 -141c-16.667 -12.667 -34.167 -22.667 -52.5 -30s-33.5 -11 -45.5 -11c-10 0 -18 3 -24 9s-9 14 -9 24c0 20.667 15 46.334 45 77.001c42 49.333 83.667 106.666 125 171.999z" />
    <glyph glyph-name="asterisk" unicode="*" 
d="M276 1133l-10.0029 10.002l-8 10c-61.333 66.667 -92 109.667 -92 129c0 20 15.667 39.667 47 59c56 34.667 96.333 52 121 52c18.667 0 36.834 -10.833 54.501 -32.5s32.834 -51.834 45.501 -90.501l23 20c58.667 61.333 100.334 92 125.001 92
c17.333 0 32.166 -5.83301 44.499 -17.5s18.5 -26.167 18.5 -43.5c0 -16 -7 -33.5 -21 -52.5s-41.667 -49.167 -83 -90.5l-13 -13l-10 -12c25.333 -27.333 57.333 -55.333 96 -84c16.667 -12 28.834 -21.667 36.501 -29s11.5 -14 11.5 -20c0 -26 -25.333 -39 -76 -39
c-28 0 -53 3.5 -75 10.5s-55 22.5 -99 46.5l-13 6l-12 9c-39.333 -18 -68 -29.667 -86 -35s-39 -8 -63 -8c-31.333 0 -61.5 7.66699 -90.5 23s-43.5 30.666 -43.5 45.999c0 8.66699 3.33301 15.667 10 21s14.334 8 23.001 8h10h11c43.333 0 82.666 8.33301 117.999 25z" />
    <glyph glyph-name="plus" unicode="+" horiz-adv-x="1366" 
d="M125 784h450v449h213v-449h453v-215h-453v-448h-213v448h-450v215z" />
    <glyph glyph-name="comma" unicode="," horiz-adv-x="449" 
d="M106 -178c-39.333 0 -58.999 22.333 -58.999 67c0 47.333 15.5 109 46.5 185s64.167 134.667 99.5 176c16.667 19.333 35.167 33 55.5 41s48.166 12 83.499 12c61.333 0 92 -18.333 92 -55v-4c-4.66699 -44 -18.334 -89 -41.001 -135
c-26.667 -58 -49.5 -102.667 -68.5 -134s-38.5 -57 -58.5 -77c-22 -24 -46.667 -42.667 -74 -56s-52.666 -20 -75.999 -20z" />
    <glyph glyph-name="hyphen" unicode="-" horiz-adv-x="512" 
d="M170 311c-35.333 0 -64 10.0029 -86 30.0029s-33 45.667 -33 77c0 19.333 5.5 44.166 16.5 74.499s22.5 51.166 34.5 62.499c30.667 28.667 95 43 193 43c69.333 0 119 -6.33301 149 -19s45 -34.334 45 -65.001c0 -35.333 -9.33301 -66 -28 -92
c-17.333 -24 -48.666 -44.667 -93.999 -62c-88.667 -32.667 -154.334 -49 -197.001 -49z" />
    <glyph glyph-name="period" unicode="." horiz-adv-x="406" 
d="M135 -2c-60 0 -89.998 20.333 -89.998 61c0 12.667 3.33301 32 10 58s13.667 47 21 63c20 46 38.333 76 55 90c19.333 17.333 48.166 32.666 86.499 45.999s72.166 20 101.499 20c41.333 0 62 -24 62 -72c0 -45.333 -13 -100.666 -39 -165.999
c-6.66699 -18.667 -14.5 -32.5 -23.5 -41.5s-23.833 -17.5 -44.5 -25.5c-56.667 -22 -103 -33 -139 -33z" />
    <glyph glyph-name="slash" unicode="/" horiz-adv-x="961" 
d="M211 379l259.999 641.002c37.333 92 75.166 170.167 113.499 234.5s76.333 112.666 114 144.999s74.5 48.5 110.5 48.5s64.833 -12.5 86.5 -37.5s32.5 -56.833 32.5 -95.5c0 -26.667 -15 -78.667 -45 -156s-64.333 -153 -103 -227l-217 -428l-132 -249
c-46 -83.333 -88.5 -156.833 -127.5 -220.5s-65.167 -102.5 -78.5 -116.5c-14 -15.333 -30.5 -27.333 -49.5 -36s-37.833 -13 -56.5 -13c-19.333 0 -36.166 6.66699 -50.499 20s-21.5 29.333 -21.5 48c0 32 48.667 164.333 146 397
c1.33301 5.33301 2.83301 9.66602 4.5 12.999s2.83398 7 3.50098 11z" />
    <glyph glyph-name="zero" unicode="0" horiz-adv-x="1087" 
d="M842 1286l9.99902 0.00292969c36 0 70.5 -16.333 103.5 -49s59.167 -76.334 78.5 -131.001s29 -112 29 -172c0 -60.667 -8.66699 -128.167 -26 -202.5s-40.5 -145.833 -69.5 -214.5s-64 -135.334 -105 -200.001s-83.5 -118.334 -127.5 -161.001
c-104 -105.333 -210.333 -158 -319 -158c-72.667 0 -136.667 18.167 -192 54.5s-98 88 -128 155s-45 143.833 -45 230.5c0 149.333 31.167 292.5 93.5 429.5s144.833 247.833 247.5 332.5s208.334 127 317.001 127c52.667 0 97 -13.667 133 -41zM751.999 1239
l17.999 9.99805l-4 4c-42.667 -0.666992 -86.5 -22.167 -131.5 -64.5s-85.5 -96.833 -121.5 -163.5s-65.333 -142 -88 -226s-34 -163.333 -34 -238c0 -54 9.5 -109.5 28.5 -166.5s43 -104.5 72 -142.5s56.833 -57 83.5 -57c20.667 0 42.334 13.833 65.001 41.5
s43.334 66.834 62.001 117.501c19.333 48.667 36 99.667 50 153s24.667 106 32 158s11 99.333 11 142c0 67.333 -10.833 131.5 -32.5 192.5s-49.834 106.167 -84.501 135.5c-6.66699 4.66699 -10 9.33398 -10 14.001c0 15.333 28 45.333 84 90z" />
    <glyph glyph-name="one" unicode="1" horiz-adv-x="768" 
d="M340 907l19.999 48.999c-10 -2.66699 -25.667 -8.66699 -47 -18c-46 -19.333 -75.333 -29 -88 -29c-12 0 -21.833 6.5 -29.5 19.5s-11.5 29.833 -11.5 50.5c0 17.333 4.33301 38 13 62s18 40.333 28 49c17.333 13.333 93.333 51.333 228 114l30 13
c6 4 15.667 8.66699 29 14c88.667 43.333 145.334 65 170.001 65c22 0 39.167 -6.33301 51.5 -19s18.5 -30.667 18.5 -54c0 -50 -23.333 -138.333 -70 -265l-25.5 -72.5l-27.5 -78.5c-3.33301 -12.667 -7 -25.667 -11 -39c-23.333 -78 -40.333 -136.667 -51 -176
l-13.5 -47.5l-16.5 -58.5c-3.33301 -12 -7 -24.333 -11 -37c-44.667 -170.667 -82 -280 -112 -328c-10 -15.333 -21.667 -29 -35 -41c-28.667 -22 -53.5 -39 -74.5 -51s-41 -20.5 -60 -25.5s-40.5 -7.5 -64.5 -7.5c-34.667 0 -65.5 10.167 -92.5 30.5s-40.5 43.5 -40.5 69.5
c0 4.66699 1.33301 12.334 4 23.001c78.667 234 175 496.667 289 788z" />
    <glyph glyph-name="two" unicode="2" horiz-adv-x="918" 
d="M330 504l16.002 19.9961c45.333 68.667 77.333 119.667 96 153s33.667 68.333 45 105c16.667 50.667 25 103.334 25 158.001c0 56 -6.83301 98 -20.5 126s-38.834 51 -75.501 69c-46.667 -67.333 -70 -152.666 -70 -255.999c0 -40 6.33301 -81 19 -123
c5.33301 -15.333 8 -25.666 8 -30.999c0 -19.333 -10.333 -29 -31 -29c-18.667 0 -44 7.83301 -76 23.5s-56.333 31.834 -73 48.501c-18.667 20 -34 46 -46 78s-18 66 -18 102c0 50.667 10.5 99 31.5 145s50.5 86 88.5 120s83.167 60.5 135.5 79.5s107.833 28.5 166.5 28.5
s112.167 -12.833 160.5 -38.5s86.833 -61 115.5 -106s43 -93.833 43 -146.5c0 -39.333 -7.5 -81.333 -22.5 -126s-38.667 -94.5 -71 -149.5s-73.833 -115.5 -124.5 -181.5s-109.667 -137 -177 -213l-20 -24l-17 -19c28 -8 66.333 -12 115 -12s97.5 2.66699 146.5 8
s87.5 12.333 115.5 21c18.667 5.33301 31 8 37 8c6.66699 0 10 -2 10 -6c0 -24.667 -15.833 -63 -47.5 -115s-64.834 -95 -99.501 -129c-36 -34 -79.167 -58.833 -129.5 -74.5s-112.5 -23.5 -186.5 -23.5c-94.667 0 -176 13 -244 39s-102 57.333 -102 94
c0 25.333 34.333 76 103 152c48.667 55.333 93 110.333 133 165c2.66699 4 5.5 8 8.5 12s5.66699 7.83301 8 11.5l9.5 15.5z" />
    <glyph glyph-name="three" unicode="3" horiz-adv-x="1087" 
d="M365 129l5.99707 0.00292969c22 0 49.5 10.167 82.5 30.5s65.5 47.166 97.5 80.499c41.333 42.667 74.166 88.167 98.499 136.5s36.5 93.5 36.5 135.5c0 91.333 -48.333 146.666 -145 165.999c-18.667 2.66699 -32 6.83398 -40 12.501s-12 14.5 -12 26.5
c0 13.333 16 33.666 48 60.999c48 42 85.5 87.833 112.5 137.5s40.5 99.5 40.5 149.5c0 53.333 -11 80 -33 80c-18 0 -40.333 -14.167 -67 -42.5s-52.167 -64.5 -76.5 -108.5s-42.5 -87.333 -54.5 -130c-4 -14.667 -8 -24.167 -12 -28.5s-9.66699 -6.5 -17 -6.5
c-19.333 0 -43.333 15 -72 45c-40.667 43.333 -61 87.333 -61 132c0 51.333 20.833 102.333 62.5 153s95.834 91.667 162.501 123s135 47 205 47c56.667 0 108.334 -11 155.001 -33s83 -52.5 109 -91.5s39 -82.833 39 -131.5c0 -88.667 -38.333 -159.667 -115 -213
c-40 -27.333 -89.667 -53.333 -149 -78v-4c94 -5.33301 164.667 -26.333 212 -63s71 -88 71 -154c0 -30.667 -7.16699 -64.5 -21.5 -101.5s-34.666 -75 -60.999 -114s-57.833 -77.833 -94.5 -116.5c-80 -84.667 -167 -150.834 -261 -198.501s-184.333 -71.5 -271 -71.5
c-82.667 0 -151.5 26.333 -206.5 79s-82.5 118.667 -82.5 198c0 54 18.5 108 55.5 162s84.833 98.167 143.5 132.5s117.334 51.5 176.001 51.5c24.667 0 37 -9 37 -27c0 -7.33301 -10.333 -19.666 -31 -36.999l-6.5 -6.5l-7.5 -7.5c-26 -30 -46.167 -67.333 -60.5 -112
s-21.5 -91.334 -21.5 -140.001c0 -48 9.66699 -89 29 -123z" />
    <glyph glyph-name="four" unicode="4" horiz-adv-x="1004" 
d="M469 483l-68.002 -3.99805c-98 -6.66699 -158.667 -10 -182 -10c-40.667 0 -72.5 2.16699 -95.5 6.5s-38.333 12 -46 23s-11.5 27.167 -11.5 48.5c0 16.667 4.83301 40.334 14.5 71.001s28.5 81.334 56.5 152.001c22.667 55.333 39.667 99 51 131
c35.333 92 63.333 158.333 84 199c6.66699 12.667 12.5 23.167 17.5 31.5l17.5 29.5c22 34.667 48.667 62 80 82c71.333 48 139 72 203 72c50.667 0 76 -12.333 76 -37c0 -32.667 -63.667 -139.334 -191 -320.001c-62 -88 -116 -169.667 -162 -245l234 12
c16.667 55.333 38.834 100.833 66.501 136.5s62.5 62.167 104.5 79.5s90.667 26 146 26c28.667 0 48.834 -3.16699 60.501 -9.5s17.5 -16.833 17.5 -31.5c0 -13.333 -5 -36.333 -15 -69s-23.333 -71.334 -40 -116.001l-8 -20c13.333 1.33301 22.166 2.16602 26.499 2.49902
s9.83301 0.833008 16.5 1.5c6 0.666992 11.167 1.16699 15.5 1.5s9.16602 0.5 14.499 0.5c15.333 0 23 -4 23 -12c0 -2.66699 -0.666992 -4.66699 -2 -6c-12 -26.667 -28.667 -55.5 -50 -86.5s-41 -55.5 -59 -73.5c-14 -16.667 -32.333 -28.334 -55 -35.001l-82 -276
c-1.33301 -6 -2.83301 -14 -4.5 -24l-3.5 -21c-10 -55.333 -23 -90.333 -39 -105c-52.667 -31.333 -99 -54.5 -139 -69.5s-79 -22.5 -117 -22.5c-27.333 0 -51.666 6.66699 -72.999 20s-32 29 -32 47c0 17.333 7 48.833 21 94.5s34.333 101.667 61 168
s49.334 118.833 68.001 157.5z" />
    <glyph glyph-name="five" unicode="5" horiz-adv-x="1004" 
d="M514 1044l-73.998 -131l4 -4c47.333 20 89.333 34.333 126 43s72.667 13 108 13c91.333 0 162.333 -21.5 213 -64.5s76 -103.5 76 -181.5c0 -38.667 -5.5 -79.5 -16.5 -122.5s-27.333 -86.333 -49 -130s-47.667 -86.5 -78 -128.5s-67.833 -85.667 -112.5 -131
c-65.333 -66 -130.833 -117.667 -196.5 -155s-124.5 -56 -176.5 -56c-38 0 -75.333 7.5 -112 22.5s-69 36.167 -97 63.5c-49.333 49.333 -74 119 -74 209c0 120 34.333 214 103 282c34 34.667 73.833 63.167 119.5 85.5s85.5 33.5 119.5 33.5c36 0 54 -10 54 -30v-3
c-28.667 -34 -50.167 -62.833 -64.5 -86.5s-29.166 -55.5 -44.499 -95.5c-26 -66.667 -39 -144.334 -39 -233.001c0 -68.667 13.667 -103 41 -103c35.333 0 73.666 20.667 114.999 62c45.333 47.333 84.666 106 117.999 176s50 129.333 50 178
c0 68 -14.167 118.167 -42.5 150.5s-73.5 48.5 -135.5 48.5c-34.667 0 -81.334 -6.33301 -140.001 -19c-32 -5.33301 -49 -8 -51 -8c-19.333 0 -35.5 6.5 -48.5 19.5s-19.5 29.833 -19.5 50.5c0 17.333 9 53.333 27 108c28.667 92 58.667 175.333 90 250l6 14
c3.33301 6.66699 9 19 17 37c19.333 47.333 36.5 77 51.5 89s42.167 18 81.5 18c126 0 221 -1.33301 285 -4c14.667 0 27.334 -0.666992 38.001 -2h13c50 -2.66699 84 -7 102 -13s27 -15.333 27 -28c0 -11.333 -7.5 -28.5 -22.5 -51.5s-33.5 -44.833 -55.5 -65.5
c-37.333 -37.333 -76 -66.166 -116 -86.499s-79.333 -30.5 -118 -30.5c-16.667 0 -43 2 -79 6c-10.667 2.66699 -16.334 4 -17.001 4h-6z" />
    <glyph glyph-name="six" unicode="6" horiz-adv-x="1044" 
d="M500 776c-23.333 0 -47.3311 -13.6699 -71.998 -41.0029s-44.834 -62.166 -60.501 -104.499s-23.5 -83.833 -23.5 -124.5c0 -54.667 10.5 -105.667 31.5 -153s50 -85.166 87 -113.499s75.5 -42.5 115.5 -42.5c21.333 0 38.333 6 51 18
c21.333 24.667 38.833 64.667 52.5 120s20.5 114.333 20.5 177c0 55.333 -8.16699 102.833 -24.5 142.5s-39.333 69.834 -69 90.501s-65.834 31 -108.501 31zM612.002 955.997l-60.998 -71.0029l4 -4c89.333 58.667 165.666 88 228.999 88c48 0 90.833 -11.667 128.5 -35
s67 -55.166 88 -95.499s31.5 -86.5 31.5 -138.5c0 -62.667 -10.333 -127.5 -31 -194.5s-50 -131.667 -88 -194s-82.333 -117.833 -133 -166.5c-45.333 -44 -101.333 -78.833 -168 -104.5s-132 -38.5 -196 -38.5c-123.333 0 -217.333 26.167 -282 78.5s-97 128.5 -97 228.5
c0 88.667 28.667 198.334 86 329.001s146 288 266 472c47.333 75.333 86.333 129.333 117 162c15.333 16.667 29.666 28.334 42.999 35.001s34.333 12 63 16c50 8 100.667 12 152 12c78 0 117 -21 117 -63c0 -21.333 -24.667 -54 -74 -98c-28.667 -24 -75 -74.667 -139 -152
z" />
    <glyph glyph-name="seven" unicode="7" horiz-adv-x="956" 
d="M395 729l185.002 385.003c-6 1.33301 -13.667 2 -23 2c-36 0 -105 -17.667 -207 -53c-52.667 -18.667 -93.5 -31.834 -122.5 -39.501s-53.5 -11.5 -73.5 -11.5c-37.333 0 -56 14.333 -56 43c0 24 9.66699 56.167 29 96.5s42 76.5 68 108.5c17.333 22 33.333 36.667 48 44
s36.667 11 66 11c12.667 0 23 -0.666992 31 -2l225 -4c151.333 -4 256 -18.333 314 -43c21.333 -10.667 32 -26.334 32 -47.001c0 -18.667 -12.333 -53.667 -37 -105l-178 -383h19h49h31c34 0 51 -4 51 -12c0 -14.667 -7.5 -35.5 -22.5 -62.5s-30.833 -48.5 -47.5 -64.5
c-39.333 -41.333 -101.333 -71.333 -186 -90l-135 -330c-2.66699 -8 -5.66699 -16.333 -9 -25c-10 -26.667 -20.667 -46.334 -32 -59.001c-30 -26 -68.833 -47.167 -116.5 -63.5s-94.834 -24.5 -141.501 -24.5c-30.667 0 -54.834 5.66699 -72.501 17s-26.5 26 -26.5 44
c0 20.667 22 70 66 148l5 8.5c1.33301 2.33301 3 5.5 5 9.5l131 238h-12c-8 -1.33301 -19.667 -2 -35 -2c-57.333 0 -86 21.667 -86 65c0 14 5.33301 35.333 16 64c27.333 61.333 50 100.333 68 117c9.33301 9.33301 36.666 14 81.999 14c28.667 0 61.334 2 98.001 6z" />
    <glyph glyph-name="eight" unicode="8" horiz-adv-x="1004" 
d="M313 573l76.001 51.999c-70 62.667 -120.667 120.667 -152 174s-47 108 -47 164c0 46.667 10.667 91.334 32 134.001s51.333 80.5 90 113.5s83.5 58.667 134.5 77s104.167 27.5 159.5 27.5c84.667 0 127 -14.333 127 -43c0 -9.33301 -10.333 -15 -31 -17
c-41.333 -7.33301 -74.666 -28.333 -99.999 -63c-19.333 -25.333 -36.166 -57.666 -50.499 -96.999s-21.5 -74 -21.5 -104c0 -69.333 27.333 -124 82 -164c37.333 39.333 66.833 80.666 88.5 123.999s32.5 84 32.5 122c0 36.667 -10.333 66.667 -31 90
c-5.33301 5.33301 -8 9.66602 -8 12.999c0 10.667 11.667 23.334 35 38.001c35.333 23.333 71.666 35 108.999 35c24.667 0 47.667 -6.16699 69 -18.5s37.666 -29.666 48.999 -51.999s17 -47.833 17 -76.5c0 -60.667 -18.333 -118.5 -55 -173.5
s-100.334 -120.167 -191.001 -195.5c54.667 -54 94.667 -105.333 120 -154s38 -97.667 38 -147c0 -54.667 -14.667 -109 -44 -163s-68.833 -102.833 -118.5 -146.5s-105.167 -78.334 -166.5 -104.001s-121.666 -38.5 -180.999 -38.5c-94.667 0 -171.334 23.667 -230.001 71
s-88 109 -88 185c0 63.333 17.833 118.333 53.5 165s103.167 104 202.5 172zM504.001 536.999c-42 -36.667 -74.665 -81.332 -97.998 -133.999s-35 -107.667 -35 -165c0 -44 5.33301 -78.333 16 -103s25.667 -37 45 -37c7.33301 0 16.666 2.83301 27.999 8.5
s19.666 11.167 24.999 16.5c28.667 28.667 54 66.667 76 114s33 87.666 33 120.999c0 42 -8 78.5 -24 109.5s-38 54.167 -66 69.5z" />
    <glyph glyph-name="nine" unicode="9" horiz-adv-x="1004" 
d="M573 678c26.667 64 46.999 127.835 60.999 191.502s21 124.167 21 181.5c0 50.667 -7.83301 91 -23.5 121s-36.5 45 -62.5 45c-10.667 0 -24.334 -4.83301 -41.001 -14.5s-31.667 -21.5 -45 -35.5c-35.333 -36.667 -63.166 -79.334 -83.499 -128.001
s-30.5 -96 -30.5 -142c0 -56 18.833 -104.333 56.5 -145s86.834 -65.334 147.501 -74.001zM550.999 623.002l-0.00292969 -5l-4 5c-57.333 -38 -105.166 -64.333 -143.499 -79s-78.5 -22 -120.5 -22c-70 0 -127.167 24.5 -171.5 73.5s-66.5 112.5 -66.5 190.5
c0 87.333 27.333 172.5 82 255.5s126 150.5 214 202.5s176.333 77.667 265 77c97.333 0 181.333 -34.667 252 -104c80.667 -80.667 121 -190.667 121 -330c0 -100 -25 -203 -75 -309s-116 -203 -198 -291s-173 -158.833 -273 -212.5s-196.667 -80.5 -290 -80.5
c-21.333 0 -36.5 2.33301 -45.5 7s-13.5 13.334 -13.5 26.001c0 6.66699 3.5 13.167 10.5 19.5s17.833 12.833 32.5 19.5c55.333 24 109.833 63.333 163.5 118s103.334 120.167 149.001 196.5s82.834 157.166 111.501 242.499z" />
    <glyph glyph-name="colon" unicode=":" horiz-adv-x="598" 
d="M260 324c36.667 -0.666992 66.667 -7.99902 90 -21.999s35 -31.333 35 -52c0 -38.667 -12.167 -77.834 -36.5 -117.501s-55.5 -72.667 -93.5 -99s-75.333 -39.5 -112 -39.5c-28.667 0 -52.5 7.83301 -71.5 23.5s-28.5 36.5 -28.5 62.5c0 22 6 49.5 18 82.5
s26.333 62.167 43 87.5c19.333 28 43.333 47 72 57c28.667 11.333 56 17 82 17h2zM324 578.001c-28.667 0 -53.335 10 -74.002 30s-31 43.333 -31 70c0 25.333 8.33301 57.333 25 96s34.334 66.667 53.001 84c19.333 19.333 45.333 35.166 78 47.499s64 18.5 94 18.5
c62.667 0 94 -18 94 -54v-2c-2 -37.333 -15 -81.666 -39 -132.999c-22.667 -54 -43 -88 -61 -102c-15.333 -14 -37.166 -26.667 -65.499 -38s-52.833 -17 -73.5 -17z" />
    <glyph glyph-name="semicolon" unicode=";" horiz-adv-x="598" 
d="M129 -207c-30 0 -53.833 9.50098 -71.5 28.501s-26.5 43.167 -26.5 72.5c0 38 11 85.833 33 143.5s52 117.5 90 179.5c7.33301 14 21.666 32.333 42.999 55c34.667 33.333 73.334 50 116.001 50c19.333 0 37 -4.33301 53 -13s28.333 -20.834 37 -36.501
s13 -32.834 13 -51.501c0 -31.333 -13.333 -79 -40 -143s-57 -121.333 -91 -172c-27.333 -39.333 -55.333 -68.666 -84 -87.999c-24.667 -16.667 -48.667 -25 -72 -25zM324 621.001c-46.667 0 -70 21.002 -70 63.002c0 19.333 6.66699 45.333 20 78s29.333 64 48 94
c0.666992 1.33301 2.16699 3.66602 4.5 6.99902l9.5 14c15.333 13.333 37.166 24.833 65.499 34.5s55.5 14.5 81.5 14.5c72.667 0 109 -34.333 109 -103c0 -35.333 -8.66699 -68.833 -26 -100.5s-38.666 -51.834 -63.999 -60.501c-32 -12.667 -65.5 -22.667 -100.5 -30
s-60.833 -11 -77.5 -11z" />
    <glyph glyph-name="less" unicode="&#x3c;" horiz-adv-x="1366" 
d="M1239 115l-1112 465v192l1112 465v-231l-819 -330l819 -328v-233z" />
    <glyph glyph-name="equal" unicode="=" horiz-adv-x="1366" 
d="M127 1024h1112v-215h-1112v215zM127 547h1112v-215h-1112v215z" />
    <glyph glyph-name="greater" unicode="&#x3e;" horiz-adv-x="1366" 
d="M127 1237l1112 -463v-194l-1112 -465v233l819 328l-819 330v231z" />
    <glyph glyph-name="question" unicode="?" horiz-adv-x="831" 
d="M350 1233c-28.667 -30 -50.3301 -61.999 -64.9971 -95.999c-34.667 -80 -52 -159.333 -52 -238c0 -27.333 5.66699 -57.333 17 -90c2.66699 -6.66699 4 -12.667 4 -18c0 -12.667 -8.33301 -19 -25 -19c-28.667 0 -56.834 14.167 -84.501 42.5
s-50.167 64.166 -67.5 107.499s-26 87 -26 131c0 94 33 171.667 99 233s149.667 92 251 92c71.333 0 138.166 -13.667 200.499 -41s111.833 -64 148.5 -110s55 -96 55 -150c0 -84.667 -32 -170.667 -96 -258c-27.333 -36 -53 -66 -77 -90s-60.667 -55.333 -110 -94v-4h71
c21.333 0 44.333 0.166992 69 0.5s41.667 0.833008 51 1.5c4.66699 0.666992 8.66699 1.16699 12 1.5s6.66602 0.5 9.99902 0.5c23.333 0 35 -9 35 -27c0 -11.333 -8 -30.666 -24 -57.999s-34.667 -51 -56 -71c-72.667 -72 -196.334 -108 -371.001 -108
c-128 0 -192 24.333 -192 73c0 8.66699 3.66699 19.167 11 31.5s23.333 34.166 48 65.499c39.333 47.333 78.333 99 117 155c97.333 146.667 146 275 146 385c0 44 -7.66699 78 -23 102s-40.666 40.667 -75.999 50zM186.004 -9.99902
c-24.667 0 -46.167 8.83105 -64.5 26.498s-27.5 38.834 -27.5 63.501c0 25.333 8 57.5 24 96.5s32 66.167 48 81.5c23.333 22.667 54 40.334 92 53.001s78.333 19 121 19c61.333 0 92 -21.333 92 -64c0 -15.333 -2.66699 -33.666 -8 -54.999
c-17.333 -74.667 -34.333 -120.334 -51 -137.001c-24 -22 -75.333 -45.333 -154 -70c-29.333 -9.33301 -53.333 -14 -72 -14z" />
    <glyph glyph-name="at" unicode="@" horiz-adv-x="2079" 
d="M1829 18l179.997 -0.00292969c-42 -87.333 -114.333 -169.666 -217 -246.999c-90 -69.333 -188.667 -120.166 -296 -152.499s-230.666 -48.5 -369.999 -48.5c-156 0 -296.5 20.667 -421.5 62s-231.167 100.833 -318.5 178.5s-154 172.5 -200 284.5s-69 236.667 -69 374
c0 120.667 18.167 237.5 54.5 350.5s88.5 215.667 156.5 308s147 166.5 237 222.5c46.667 30 100.167 55.833 160.5 77.5s122.833 38 187.5 49s129 16.5 193 16.5c162.667 0 309.334 -33.5 440.001 -100.5s232.667 -160.167 306 -279.5s110 -252.666 110 -399.999
c0 -120.667 -28.5 -236.334 -85.5 -347.001s-132.167 -200 -225.5 -268s-190.333 -102 -291 -102c-106 0 -167.333 36 -184 108c-4.66699 16 -7.66699 36 -9 60c-46 -52.667 -95.667 -93.834 -149 -123.501s-106 -44.5 -158 -44.5c-66.667 0 -127.667 19.833 -183 59.5
s-99 93.667 -131 162s-48 144.5 -48 228.5c0 105.333 24.833 207.5 74.5 306.5s114.834 178.833 195.501 239.5s163.334 91 248.001 91c126 0 227 -61.333 303 -184l33 156h180l-146 -672l-7.5 -37.5l-6.5 -32.5c-9.33301 -39.333 -14 -68 -14 -86
c0 -16.667 7 -31.667 21 -45s30 -20 48 -20c22 0 51.5 10.167 88.5 30.5s71.833 44.833 104.5 73.5c31.333 29.333 58.666 61 81.999 95s42.833 70 58.5 108s28.167 77.833 37.5 119.5s14 84.5 14 128.5c0 118 -31 225.333 -93 322s-147.833 172.334 -257.5 227.001
s-231.5 82 -365.5 82c-118 0 -227.833 -21.167 -329.5 -63.5s-190.167 -102.5 -265.5 -180.5s-133.666 -170 -174.999 -276s-62 -220.333 -62 -343c0 -160.667 34.167 -298.667 102.5 -414s167.166 -203.166 296.499 -263.499s285 -90.5 467 -90.5c104.667 0 199 11 283 33
s164 57 240 105c45.333 28.667 79 53 101 73s47 50 75 90zM681.997 433.997c0 -54.667 9.33398 -104.168 28.001 -148.501s44.167 -78.833 76.5 -103.5s69.166 -37 110.499 -37c44.667 0 88.834 13.833 132.501 41.5s83.167 65.334 118.5 113.001s63.166 101.5 83.499 161.5
s30.5 121.333 30.5 184c0 58.667 -9.66699 110 -29 154s-46.666 77.833 -81.999 101.5s-77 35.5 -125 35.5c-42.667 0 -84.834 -13.833 -126.501 -41.5s-78.5 -64.834 -110.5 -111.501s-57.833 -101.167 -77.5 -163.5s-29.5 -124.166 -29.5 -185.499z" />
    <glyph glyph-name="A" unicode="A" horiz-adv-x="1493" 
d="M821 956l-184 -389h272l-84 389h-4zM735 1219l-61 109.999c15.333 12 29.666 20.333 42.999 25c51.333 17.333 113.333 26 186 26c73.333 0 130 -21 170 -63c34.667 -36.667 63 -88 85 -154s42.333 -160 61 -282c10 -62 18.667 -108.667 26 -140
c23.333 -87.333 38.833 -143.166 46.5 -167.499s21.5 -63.166 41.5 -116.499c6.66699 -15.333 15.5 -36.833 26.5 -64.5l31.5 -77.5c22 -52 55.333 -120.667 100 -206c-56 -39.333 -103.333 -67.666 -142 -84.999s-74 -26 -106 -26c-39.333 0 -72.166 7.66699 -98.499 23
s-50.166 39.666 -71.499 72.999c-25.333 45.333 -50.666 107 -75.999 185c-2.66699 7.33301 -5.83398 16.666 -9.50098 27.999l-12.5 37c-78 -32.667 -138.667 -49 -182 -49c-24.667 0 -46 0.666992 -64 2c-15.333 1.33301 -86.333 3.33301 -213 6l-10 -20
c-37.333 -78 -72 -137.333 -104 -178s-68.833 -69.334 -110.5 -86.001s-93.834 -25 -156.501 -25c-36 0 -61.667 4 -77 12s-23 21 -23 39c0 22 36.667 82.667 110 182c26 34.667 45.333 62 58 82c-70 13.333 -105 38 -105 74c0 29.333 28 73 84 131
c26.667 28 51.5 45.833 74.5 53.5s63.167 11.834 120.5 12.501l102 187.5l57 102l79.5 140z" />
    <glyph glyph-name="B" unicode="B" horiz-adv-x="1343" 
d="M723 1151l-128.999 -438c8 -1.33301 16 -2 24 -2c35.333 0 76.333 16.333 123 49c58.667 40.667 104.167 84.167 136.5 130.5s48.5 91.5 48.5 135.5c0 91.333 -48 137 -144 137c-26.667 0 -46.334 -4 -59.001 -12zM573.001 637
c-2.66699 -8.66699 -5.33203 -18.334 -7.99902 -29.001s-5.33398 -20.667 -8.00098 -30c-31.333 -106 -60.166 -192 -86.499 -258s-54.166 -122 -83.499 -168c-16.667 -28 -40.667 -57.667 -72 -89c80.667 -24.667 138.167 -40.667 172.5 -48s68.5 -11 102.5 -11
c39.333 0 74.166 5.83301 104.499 17.5s58.833 30.5 85.5 56.5c39.333 38.667 71.333 84.667 96 138s37 105 37 155c0 54.667 -19 101 -57 139c-18.667 18.667 -39.5 33 -62.5 43s-54.833 18.333 -95.5 25c-37.333 7.33301 -63.333 14.333 -78 21
s-30.334 19.334 -47.001 38.001zM137.003 506l117.001 359.996c22.667 64.667 50 127.667 82 189c-3.33301 -0.666992 -11 -4.33398 -23 -11.001c-46 -18.667 -78.667 -28 -98 -28c-27.333 0 -41 10.333 -41 31c0 22 10.667 53.667 32 95s42.666 72.333 63.999 93
c48.667 44.667 122.834 80 222.501 106s211.167 39 334.5 39c74.667 0 142.167 -6.33301 202.5 -19s111.833 -31.5 154.5 -56.5s75.167 -55.167 97.5 -90.5s33.5 -74.666 33.5 -117.999c0 -60.667 -12.667 -114.667 -38 -162s-65.333 -91.666 -120 -132.999
c-60.667 -45.333 -118 -75.333 -172 -90c-6 -2 -16.333 -4 -31 -6v-5c234 -30 351 -126.667 351 -290c0 -32.667 -5.5 -66.667 -16.5 -102s-27 -70 -48 -104s-46.167 -65 -75.5 -93c-63.333 -62 -138.5 -119.667 -225.5 -173s-174.5 -96.333 -262.5 -129
s-163.333 -49 -226 -49c-52.667 0 -103.167 6 -151.5 18s-86.833 27.833 -115.5 47.5s-43 40.834 -43 63.501c0 20.667 5.83301 40 17.5 58s33.167 40.333 64.5 67l-4 4c-18 -6.66699 -35.667 -10 -53 -10c-36.667 0 -66.334 10.667 -89.001 32s-34 50.333 -34 87
c0 20.667 9.33301 68.834 28 144.501s40.667 153.834 66 234.501z" />
    <glyph glyph-name="C" unicode="C" horiz-adv-x="1260" 
d="M799 725c26 66.667 48.167 141.503 66.5 224.503s27.5 151.5 27.5 205.5c0 35.333 -8.33301 53 -25 53c-15.333 0 -43.333 -20.333 -84 -61c-60.667 -65.333 -114.667 -140.5 -162 -225.5s-83.666 -171.833 -108.999 -260.5s-38 -175.334 -38 -260.001
c0 -66.667 7.16699 -112.334 21.5 -137.001s41.5 -37 81.5 -37c34.667 0 77.667 9.66699 129 29c116 46 238.667 111.667 368 197c57.333 36.667 93.666 55 108.999 55c22 0 33 -11 33 -33v-2c-3.33301 -30 -13.666 -64 -30.999 -102
c-34.667 -73.333 -64.667 -121.333 -90 -144c-42.667 -38 -101.167 -75.333 -175.5 -112s-150.5 -66.667 -228.5 -90s-143.333 -35 -196 -35c-60.667 0 -118 11.5 -172 34.5s-101 54.5 -141 94.5s-71.333 86.667 -94 140s-34 110.333 -34 171c0 46 7.33301 95.833 22 149.5
s36 109.834 64 168.501s59.667 113.667 95 165c20.667 30.667 42.167 60 64.5 88s47 55.333 74 82s56.5 52.334 88.5 77.001s61.333 45.667 88 63c46.667 31.333 95 58.666 145 81.999s96.333 40.666 139 51.999s81.667 17 117 17c87.333 0 155.666 -22.667 204.999 -68
s74 -108 74 -188c0 -84 -20.667 -171.833 -62 -263.5s-96.333 -171.834 -165 -240.501c-47.333 -48.667 -94.333 -87 -141 -115s-88.667 -42 -126 -42c-32.667 0 -49 15.667 -49 47c0 14.667 9 35 27 61c25.333 36 53.333 89.333 84 160z" />
    <glyph glyph-name="D" unicode="D" horiz-adv-x="1393" 
d="M725 1159l-200.999 -760.001c-1.33301 -4.66699 -4 -17 -8 -37c-12 -52.667 -25.667 -93.334 -41 -122.001c-10.667 -22 -27.667 -47.333 -51 -76c19.333 -1.33301 41 -2 65 -2c58 0 106.333 3.83301 145 11.5s74.667 20.834 108 39.501s64.666 42.667 93.999 72
c55.333 56.667 97.833 122.334 127.5 197.001s44.5 155.667 44.5 243c0 80 -12 152.667 -36 218s-57.333 116.833 -100 154.5s-91.667 58.167 -147 61.5zM49.001 163.999l237.998 802.996c17.333 62 35 105.667 53 131c11.333 14.667 26.333 27 45 37v4h-14
c-19.333 0 -59.666 -11 -120.999 -33c-67.333 -23.333 -113.666 -35 -138.999 -35c-13.333 0 -22.5 2.33301 -27.5 7s-7.5 12.667 -7.5 24c0 26.667 7.5 55.834 22.5 87.501s34.5 60.167 58.5 85.5s48.667 43.333 74 54c58 22.667 136.667 40.334 236 53.001
s207.333 19 324 19c125.333 0 232 -19.667 320 -59s154.833 -97.666 200.5 -174.999s68.5 -170.666 68.5 -279.999c0 -110 -21.833 -220.833 -65.5 -332.5s-101.5 -205.167 -173.5 -280.5c-168.667 -178.667 -394 -268 -676 -268c-90.667 0 -173.5 7.33301 -248.5 22
s-124.5 32.667 -148.5 54c-15.333 12 -23 29.667 -23 53c0 6 1.33301 15.667 4 29z" />
    <glyph glyph-name="E" unicode="E" horiz-adv-x="1260" 
d="M883 453l-365.002 2.00293v-25c0 -48.667 14 -92.834 42 -132.501s59 -59.5 93 -59.5c34.667 0 84.834 12.667 150.501 38s140.5 61.666 224.5 108.999l35 21c24 13.333 40.333 23.333 49 30c39.333 24.667 64 37 74 37c12 0 18 -11 18 -33
c0 -24 -4.33301 -51.333 -13 -82s-19.667 -60.167 -33 -88.5s-26.666 -48.5 -39.999 -60.5c-38 -34 -103 -71 -195 -111s-185.333 -71.333 -280 -94c-32 -6.66699 -61.333 -10 -88 -10c-91.333 0 -174.833 18.5 -250.5 55.5s-134.334 87.833 -176.001 152.5
s-62.5 136.667 -62.5 216c0 65.333 13.667 137.333 41 216s65.666 157.167 114.999 235.5s105 149.5 167 213.5c54 56 114.333 106.833 181 152.5s131.5 80.834 194.5 105.501s120.833 37 173.5 37c82.667 0 153.5 -23.5 212.5 -70.5s88.5 -103.833 88.5 -170.5
c0 -29.333 -5.33301 -61.333 -16 -96s-25 -65 -43 -91c-18.667 -28 -46.334 -55.333 -83.001 -82s-78 -49.667 -124 -69c-55.333 -22 -102.666 -33 -141.999 -33s-59 9.66699 -59 29c0 11.333 11 29 33 53c24 21.333 47 50.666 69 87.999
c21.333 39.333 40 85.666 56 138.999s24 95 24 125c0 24.667 -7.33301 37 -22 37c-23.333 0 -65.333 -25.667 -126 -77s-108.667 -102 -144 -152c-33.333 -46.667 -60.666 -94.167 -81.999 -142.5s-35.666 -95.833 -42.999 -142.5h534c58.667 0 88 -15 88 -45
c0 -28 -32.667 -73.667 -98 -137c-64.667 -58.667 -124 -88 -178 -88z" />
    <glyph glyph-name="F" unicode="F" horiz-adv-x="1024" 
d="M348 989l22.999 58.001c-74.667 2 -126.834 9.5 -156.501 22.5s-44.5 35.5 -44.5 67.5c0 26 10.333 51.667 31 77c23.333 32 48.333 61.167 75 87.5s51.334 45.166 74.001 56.499c19.333 8 46 12 80 12c82.667 0 176.334 -4.66699 281.001 -14
c24 -1.33301 44 -2.33301 60 -3s33.333 -1.66699 52 -3c44 0 72 -0.833008 84 -2.5s26.333 -5.83398 43 -12.501c11.333 -4 21 -10 29 -18c16.667 -17.333 25 -44.666 25 -81.999c0 -69.333 -24 -113.666 -72 -132.999c-28 -12 -53.333 -19.833 -76 -23.5
s-63.667 -8.16699 -123 -13.5l-108 -358c51.333 0 93 1.33301 125 4c20 1.33301 50.667 2 92 2c48.667 0 83 -5.16699 103 -15.5s30 -28.5 30 -54.5c0 -20 -9.66699 -49 -29 -87s-40.333 -68.333 -63 -91c-10.667 -10.667 -25.667 -17.834 -45 -21.501
s-52.333 -5.5 -99 -5.5h-14h-25c-44.667 0 -95.667 -2 -153 -6c-30 -101.333 -57.667 -178.833 -83 -232.5s-56.333 -99.167 -93 -136.5c-25.333 -26 -52.166 -46 -80.499 -60s-54.833 -21 -79.5 -21c-40.667 0 -75.834 11.667 -105.501 35s-44.5 50.333 -44.5 81
c0 37.333 31.667 154 95 350s127.333 376.333 192 541z" />
    <glyph glyph-name="G" unicode="G" horiz-adv-x="1280" 
d="M756 184c-66.667 -63.333 -128.836 -109.497 -186.503 -138.497s-115.834 -43.5 -174.501 -43.5c-70 0 -130 16.667 -180 50s-88.167 81.333 -114.5 144s-39.5 136.667 -39.5 222c0 106 27.833 215.5 83.5 328.5s130.5 217.5 224.5 313.5s196.333 172.667 307 230
s218.334 86 323.001 86c168 0 252 -73.667 252 -221c0 -57.333 -15.5 -113 -46.5 -167s-72.167 -97.333 -123.5 -130s-105.666 -49 -162.999 -49c-23.333 0 -35 8.33301 -35 25c0 4.66699 4 16 12 34c18 35.333 31.667 73.666 41 114.999c10.667 58.667 16 103.667 16 135
c0 56 -6.66699 84 -20 84c-31.333 0 -75.166 -22.333 -131.499 -67s-102.5 -93.334 -138.5 -146.001c-32.667 -46 -62.834 -100.667 -90.501 -164s-49.334 -127.333 -65.001 -192s-23.5 -124 -23.5 -178c0 -51.333 11 -93.5 33 -126.5s50.667 -49.5 86 -49.5
c60.667 0 129 77 205 231c24 42.667 40.167 69.834 48.5 81.501s20.166 22.167 35.499 31.5c41.333 26 93.5 49.167 156.5 69.5s111.833 30.5 146.5 30.5c40.667 0 61 -20.333 61 -61c0 -3.33301 -2 -18 -6 -44c-47.333 -195.333 -104.666 -374 -171.999 -536
s-132.666 -277.333 -195.999 -346c-29.333 -31.333 -72.666 -57.333 -129.999 -78s-116 -31 -176 -31c-49.333 0 -99.5 8.33301 -150.5 25s-92.833 38 -125.5 64s-49 51.667 -49 77c0 16.667 9.33301 35.667 28 57s44 42.666 76 63.999c50.667 34 84.334 51 101.001 51
c17.333 0 41.666 -19 72.999 -57c38 -44 78.333 -80.333 121 -109c23.333 54.667 45.833 121.667 67.5 201s34.834 140.666 39.501 183.999z" />
    <glyph glyph-name="H" unicode="H" horiz-adv-x="1536" 
d="M528 451l-20.002 -65.999c-3.33301 -14.667 -8.66602 -34.334 -15.999 -59.001c-36 -126 -65.667 -208.667 -89 -248c-4.66699 -8 -13.334 -19.667 -26.001 -35c-43.333 -39.333 -96 -59 -158 -59c-49.333 0 -89 10.833 -119 32.5s-45 49.5 -45 83.5
c0 24.667 8.66699 68.834 26 132.501s36.666 124.167 57.999 181.5c-52 10 -78 32.333 -78 67c0 24.667 8.16699 52.5 24.5 83.5s36.833 58.833 61.5 83.5s48.667 40.667 72 48c10 28.667 29 89 57 181c63.333 199.333 114.666 333 153.999 401
c16 22.667 29.667 40.334 41 53.001c34.667 32.667 79 49 133 49c33.333 0 62.833 -5.83301 88.5 -17.5s45.334 -27.667 59.001 -48s20.5 -44.166 20.5 -71.499c0 -38 -47.667 -197.667 -143 -479c-1.33301 -4.66699 -3.5 -11.5 -6.5 -20.5l-8.5 -24.5l-4 -8l369 8l18 63
c20.667 68 42.334 135.167 65.001 201.5s42.167 119.666 58.5 159.999s32.833 75.833 49.5 106.5s32.334 53.667 47.001 69c34.667 38 82.334 57 143.001 57c104 0 156 -45 156 -135c0 -84.667 -45.333 -239 -136 -463c-13.333 -33.333 -21.333 -53.666 -24 -60.999
c2.66699 0.666992 5 1.16699 7 1.5s4.33301 0.5 7 0.5c36.667 0 65.667 -6.5 87 -19.5s32 -30.5 32 -52.5c0 -14.667 -9 -35.667 -27 -63s-37.167 -51.5 -57.5 -72.5s-37.833 -35.833 -52.5 -44.5c-14 -7.33301 -41.333 -15 -82 -23l-4 -16
c-4.66699 -10 -11.667 -28.333 -21 -55l-43 -116.5c-14.667 -39 -26.834 -69.333 -36.501 -91s-19.167 -39.834 -28.5 -54.501c-11.333 -16 -24.333 -29.667 -39 -41c-32 -24.667 -68.667 -44.834 -110 -60.501s-75.666 -23.5 -102.999 -23.5c-31.333 0 -56 7.66699 -74 23
s-27 37 -27 65c0 48 25.333 147.667 76 299c12 33.333 20.333 57.666 25 72.999z" />
    <glyph glyph-name="I" unicode="I" horiz-adv-x="1188" 
d="M713 1186l-8 0.00390625c-56 0 -149 -21.333 -279 -64c-96 -31.333 -159.333 -47 -190 -47c-21.333 0 -39.666 6.83301 -54.999 20.5s-23 30.167 -23 49.5c0 32 18.167 71.5 54.5 118.5s72.833 77.833 109.5 92.5c54 22 167.333 33 340 33
c68.667 0 137.667 -3.33301 207 -10s127.833 -15.834 175.5 -27.501s77.834 -23.834 90.501 -36.501c6.66699 -6.66699 10 -21 10 -43c0 -20.667 -5.5 -57.167 -16.5 -109.5s-23.833 -102.5 -38.5 -150.5c-94 -294 -205.333 -558.333 -334 -793
c-32 -58.667 -62.833 -104 -92.5 -136s-62.334 -54.833 -98.001 -68.5s-78.167 -20.5 -127.5 -20.5c-70.667 0 -136.334 13.5 -197.001 40.5s-108.5 63.667 -143.5 110s-52.5 97.166 -52.5 152.499c0 38.667 8.16699 80.167 24.5 124.5s34.833 78.5 55.5 102.5
c10 12.667 21.667 19 35 19c22 0 42.667 -10.333 62 -31s40.333 -56 63 -106c32.667 -75.333 70 -138.333 112 -189c4.66699 -6 15 -17.667 31 -35c31.333 70 55.5 127.5 72.5 172.5s36.5 105.167 58.5 180.5c15.333 48 41.333 140.667 78 278
c28.667 115.333 54 239.666 76 372.999z" />
    <glyph glyph-name="J" unicode="J" horiz-adv-x="1087" 
d="M606 1135l-35.502 -9.49609l-25.5 -7c-6 -1.66699 -22.333 -6.5 -49 -14.5c-114.667 -34 -190.667 -51 -228 -51c-36 0 -65.167 6.83301 -87.5 20.5s-33.5 32.5 -33.5 56.5c0 39.333 16.167 83.333 48.5 132s66.833 80 103.5 94
c34.667 13.333 76.334 23.166 125.001 29.499s111.334 9.5 188.001 9.5c152 0 263.833 -8.66699 335.5 -26s107.5 -44.333 107.5 -81c0 -28 -12.167 -97.333 -36.5 -208s-49.166 -209.334 -74.499 -296.001c-100 -357.333 -214.667 -654 -344 -890
c-28.667 -52.667 -59.334 -97.334 -92.001 -134.001s-66.5 -64.167 -101.5 -82.5s-71.5 -27.5 -109.5 -27.5c-54 0 -106.833 39.333 -158.5 118s-77.5 160.667 -77.5 246c0 62.667 10.833 123.5 32.5 182.5s51.167 108.167 88.5 147.5c21.333 20 43.833 37.333 67.5 52
s41.5 22 53.5 22c10.667 0 19.167 -6 25.5 -18s9.5 -29.333 9.5 -52c0 -10.667 -2.66699 -29.667 -8 -57c-23.333 -126.667 -35 -235.334 -35 -326.001c0 -49.333 5.33301 -92.333 16 -129c24 40.667 43.333 82.334 58 125.001c38 121.333 69.333 233.333 94 336
c40 168.667 69.333 308.167 88 418.5s37 250.166 55 419.499z" />
    <glyph glyph-name="K" unicode="K" horiz-adv-x="1409" 
d="M655 860l203.003 219c56 54 99.333 94 130 120s68.667 53.667 114 83c79.333 53.333 151.666 80 216.999 80c49.333 0 74 -18.333 74 -55c0 -28 -6.66699 -56 -20 -84s-31.333 -53.333 -54 -76c-40.667 -40.667 -118.667 -96 -234 -166
c-86.667 -53.333 -154.667 -100.333 -204 -141c8 -49.333 16.833 -93.833 26.5 -133.5s20.5 -74.667 32.5 -105s29 -66.833 51 -109.5c24.667 -48 51.334 -92 80.001 -132c72 -97.333 143.667 -161.333 215 -192c22 -10.667 33 -20.334 33 -29.001
c0 -16.667 -11.667 -35 -35 -55c-30.667 -32 -67.834 -56.667 -111.501 -74s-87.834 -26 -132.501 -26c-81.333 0 -154.333 21.5 -219 64.5s-114.334 103.167 -149.001 180.5c-40 87.333 -66 193.333 -78 318c-2.66699 21.333 -4 45 -4 71h-4
c-27.333 -39.333 -47 -71.166 -59 -95.499s-30.667 -68.166 -56 -131.499c-30 -80.667 -57.667 -142.834 -83 -186.501s-54.333 -79.167 -87 -106.5c-30.667 -26.667 -64.667 -49 -102 -67s-68.333 -27 -93 -27c-18 0 -33 6.83301 -45 20.5s-18 30.167 -18 49.5
c0 12 0.666992 21.333 2 28c31.333 126 65.5 253.833 102.5 383.5s74.833 252 113.5 367s74.334 212.5 107.001 292.5s58 131 76 153c21.333 24.667 53 44.834 95 60.501s85.667 23.5 131 23.5c41.333 0 70.666 -5.5 87.999 -16.5s26 -29.167 26 -54.5
c0 -34.667 -35.333 -149.334 -106 -344.001c-4.66699 -14 -12.5 -35.833 -23.5 -65.5s-18.833 -51.5 -23.5 -65.5l4 -5z" />
    <glyph glyph-name="L" unicode="L" horiz-adv-x="788" 
d="M625 858l-32.999 -79.999c-43.333 -102.667 -83.666 -205 -120.999 -307c-18 -49.333 -45.333 -135.333 -82 -258c55.333 4.66699 129.666 16.334 222.999 35.001c60 12 96.333 18 109 18c23.333 0 35 -9.33301 35 -28c0 -22 -12.833 -52.833 -38.5 -92.5
s-54.5 -73.834 -86.5 -102.501c-22 -20.667 -54.667 -35 -98 -43s-111 -12 -203 -12c-86 0 -152.333 2.66699 -199 8c-0.666992 0 -11.667 3.33301 -33 10c-38 16 -57 49.333 -57 100c0 36.667 10.5 103.667 31.5 201s51.5 218.333 91.5 363c90.667 322.667 159 522 205 598
c14.667 26 33.167 46.167 55.5 60.5s52.833 25.5 91.5 33.5c37.333 8 80.333 12 129 12c45.333 0 77.166 -5.83301 95.499 -17.5s27.5 -31.834 27.5 -60.501c0 -27.333 -12 -78.5 -36 -153.5s-59.667 -169.833 -107 -284.5z" />
    <glyph glyph-name="M" unicode="M" horiz-adv-x="2218" 
d="M1227 522l19.9971 44.9961c157.333 355.333 271.333 586.333 342 693c11.333 14.667 21 26.167 29 34.5s17.167 15.833 27.5 22.5s23.833 13.334 40.5 20.001c48 20.667 110 31 186 31c39.333 0 64.166 -3.33301 74.499 -10s15.5 -21.667 15.5 -45
c0 -18 -0.666992 -37.333 -2 -58c-5.33301 -120 -8 -205.333 -8 -256c0 -128 8.66699 -249.333 26 -364c11.333 -64 28 -129 50 -195c23.333 -58.667 45.666 -103.667 67 -135c25.333 -34.667 46.666 -60 63.999 -76c21.333 -21.333 32 -37.666 32 -48.999
c0 -20.667 -17.667 -48.667 -53 -84c-59.333 -57.333 -118.666 -86 -177.999 -86c-83.333 0 -159 35.667 -227 107c-34.667 34.667 -62.167 73.167 -82.5 115.5s-35.5 94.666 -45.5 156.999s-16.667 141.5 -20 237.5c-4.66699 104 -7.33398 162.667 -8.00098 176h-4
l-105 -202l-68.5 -134l-62.5 -127c-76 -157.333 -125.667 -252.333 -149 -285c-1.33301 -1.33301 -4 -4.33301 -8 -9s-7.66699 -8.33398 -11 -11.001c-11.333 -10.667 -24.166 -18.834 -38.499 -24.501s-26.5 -8.5 -36.5 -8.5c-28 0 -58.833 17.5 -92.5 52.5
s-63.167 80.167 -88.5 135.5c-26 58.667 -47.167 118.5 -63.5 179.5s-30.666 133.333 -42.999 217s-23.166 185.834 -32.499 306.501h-4l-45 -99l-46 -102l-36 -80l-86 -184c-30 -62 -54.167 -109.667 -72.5 -143s-38.5 -66.333 -60.5 -99c-10 -15.333 -27.667 -37 -53 -65
c-39.333 -37.333 -82.333 -66.5 -129 -87.5s-91 -31.5 -133 -31.5c-16 0 -30 4 -42 12s-18 18.333 -18 31c0 11.333 9 26.333 27 45c10 12 31.667 42.667 65 92l58 90c36 53.333 90.333 149 163 287l48 90l227 440.5c39.333 79 59 124.833 59 137.5c0 14 -10 29.667 -30 47
c-15.333 12.667 -23 23.667 -23 33c0 14.667 19.333 28.5 58 41.5s80.667 19.5 126 19.5c91.333 0 156.333 -20.333 195 -61c24 -25.333 46.333 -75.166 67 -149.499s41.334 -182.166 62.001 -323.499c1.33301 -8 2.33301 -14.167 3 -18.5s1.33398 -8.16602 2.00098 -11.499
s1 -7.66602 1 -12.999c4 -18.667 6 -31 6 -37c14 -86 24.667 -141.5 32 -166.5s18 -46.833 32 -65.5z" />
    <glyph glyph-name="N" unicode="N" horiz-adv-x="1642" 
d="M242 475l69.0059 188.999l95 241c32.667 87.333 62 156.333 88 207c18.667 36 28 61.333 28 76c0 19.333 -15.667 40.333 -47 63c-20.667 14 -31 26.333 -31 37c0 13.333 20.667 27.666 62 42.999c35.333 14.667 75.666 27.5 120.999 38.5s82 16.5 110 16.5
c56 0 98.333 -15 127 -45c33.333 -34 74.333 -139.667 123 -317c20 -72 42.167 -141.667 66.5 -209s44.5 -115.666 60.5 -144.999c4.66699 -10.667 17 -31.334 37 -62.001c22 70 48 161.667 78 275c44 178.667 84.333 299.334 121 362.001c11.333 20 24.333 37.667 39 53
c27.333 25.333 56.833 44.666 88.5 57.999s63.5 20 95.5 20c19.333 0 32.666 -5 39.999 -15s11 -28 11 -54c0 -19.333 -1.33301 -33.666 -4 -42.999c-6.66699 -34.667 -18.334 -79.5 -35.001 -134.5s-40.167 -125.667 -70.5 -212l-113.5 -313.5l-15 -37
c-5.33301 -16 -10 -29 -14 -39c-80.667 -226 -142 -372.667 -184 -440c-8.66699 -14 -19 -27 -31 -39c-20.667 -20.667 -41 -31 -61 -31c-51.333 0 -106.666 54.667 -165.999 164c-108 196 -192.667 397.333 -254 604c-12.667 38.667 -22.334 75 -29.001 109h-4l-121 -381
c-1.33301 -6.66699 -4 -15.167 -8 -25.5s-7.33301 -20.166 -10 -29.499c-2.66699 -7.33301 -5.83398 -15.5 -9.50098 -24.5s-6.83398 -16.5 -9.50098 -22.5c-22 -66.667 -40 -116.834 -54 -150.501s-28 -61.5 -42 -83.5c-12 -20.667 -29.667 -43 -53 -67
c-34 -31.333 -71.667 -56 -113 -74s-82.333 -27 -123 -27c-34 0 -51 13.667 -51 41c0 20.667 15 56.334 45 107.001c34.667 58 73.667 137.667 117 239c7.33301 21.333 17.666 47.333 30.999 78z" />
    <glyph glyph-name="O" unicode="O" horiz-adv-x="1300" 
d="M662 1087c-46 -46 -79.502 -83.833 -100.502 -113.5s-43.5 -72.167 -67.5 -127.5c-18 -40 -31 -82.333 -39 -127c-10 -39.333 -15 -90 -15 -152c0 -87.333 8.33301 -160.166 25 -218.499s41.334 -102.333 74.001 -132s72 -44.5 118 -44.5c37.333 0 75.5 13.667 114.5 41
s74.333 63.166 106 107.499s57.167 93.833 76.5 148.5s29 107.334 29 158.001c0 91.333 -31.333 186.666 -94 285.999c-23.333 40 -35 67.333 -35 82c0 27.333 15 54.666 45 81.999c34 32.667 73 61.667 117 87s78.667 38 104 38c14.667 0 30.167 -3.5 46.5 -10.5
s28.833 -15.833 37.5 -26.5c21.333 -22 39 -62.5 53 -121.5s21 -121.5 21 -187.5c0 -157.333 -32.167 -302.5 -96.5 -435.5s-151.666 -238.333 -261.999 -316s-229.833 -116.5 -358.5 -116.5c-74 0 -147.333 13.667 -220 41s-131.667 64 -177 110
c-76.667 76.667 -115 177 -115 301c0 72 14 148.333 42 229s66.5 159.167 115.5 235.5s105.667 146.166 170 209.499s130.5 113.333 198.5 150c62 33.333 128.667 60 200 80s134 30 188 30c76 0 114 -11.667 114 -35c0 -9.33301 -8 -23.666 -24 -42.999
c-29.333 -27.333 -54.833 -46.666 -76.5 -57.999s-57.167 -24 -106.5 -38c-53.333 -16 -92 -30.5 -116 -43.5s-54.667 -36.167 -92 -69.5z" />
    <glyph glyph-name="P" unicode="P" horiz-adv-x="1217" 
d="M377 1145l13.9951 35c-22 0 -40.667 -1.83301 -56 -5.5s-33.333 -9.5 -54 -17.5c-25.333 -9.33301 -42.666 -14 -51.999 -14c-11.333 0 -20.666 4.33301 -27.999 13s-11 19.334 -11 32.001c0 26 10.5 52.833 31.5 80.5s46.833 47.167 77.5 58.5
c40 16 91.5 28.833 154.5 38.5s125.5 14.5 187.5 14.5c70 0 132.833 -5 188.5 -15s105.167 -26 148.5 -48s81.333 -49.333 114 -82s57.834 -70.667 75.501 -114s26.5 -89.333 26.5 -138c0 -44 -8.83301 -93.333 -26.5 -148s-42.167 -108 -73.5 -160
s-65.666 -96 -102.999 -132c-43.333 -42 -98.166 -77.5 -164.499 -106.5s-126.833 -43.5 -181.5 -43.5c-23.333 0 -43.833 4.16699 -61.5 12.5s-26.5 18.5 -26.5 30.5c0 18.667 7 36.167 21 52.5s39.667 36.5 77 60.5c32 18.667 62 41 90 67
c33.333 36.667 57.833 75.667 73.5 117s23.5 90.666 23.5 147.999c0 54.667 -9.33301 101 -28 139s-49 72 -91 102l-137 -444l-25 -78c-10.667 -30.667 -25 -83.334 -43 -158.001c-32.667 -128.667 -63.334 -218 -92.001 -268c-12.667 -22 -29 -43.667 -49 -65
c-32 -28 -72.5 -52.5 -121.5 -73.5s-91.167 -31.5 -126.5 -31.5c-23.333 0 -41.833 6.83301 -55.5 20.5s-20.5 32.834 -20.5 57.501c0 27.333 6.83301 67.333 20.5 120s41.834 147 84.501 283l18 56l19 61z" />
    <glyph glyph-name="Q" unicode="Q" horiz-adv-x="1386" 
d="M944 133c-39.333 -28.667 -81.002 -53.5107 -125.002 -74.5107s-88.667 -37 -134 -48s-86.666 -16.5 -123.999 -16.5c-97.333 0 -184.333 19.5 -261 58.5s-136.334 94 -179.001 165s-64 150.833 -64 239.5c0 76.667 15.667 161.334 47 254.001
s73.666 179.334 126.999 260.001c16.667 24 36.5 49.833 59.5 77.5s46.833 52 71.5 73s51.334 41.167 80.001 60.5c54.667 36.667 116 69.334 184 98.001s136.333 50.834 205 66.501s133.667 23.5 195 23.5c42 0 71.333 -4 88 -12s25 -21.667 25 -41
c0 -17.333 -9.66699 -35.666 -29 -54.999c-20.667 -18.667 -65.667 -37.334 -135 -56.001c-90 -22 -164.167 -49.667 -222.5 -83s-105.833 -74.666 -142.5 -123.999c-45.333 -60.667 -81.833 -131.167 -109.5 -211.5s-41.5 -155.833 -41.5 -226.5
c0 -94 24.5 -173.833 73.5 -239.5s109.833 -98.5 182.5 -98.5c43.333 0 85 13 125 39c-1.33301 3.33301 -6.33301 11 -15 23c-25.333 42 -49.166 73.5 -71.499 94.5s-51.5 39.167 -87.5 54.5c-25.333 12 -42.666 22.5 -51.999 31.5s-14 19.833 -14 32.5
c0 18 13.167 33.667 39.5 47s58.833 20 97.5 20c48 0 93.5 -10.333 136.5 -31s89.167 -54 138.5 -100c12.667 37.333 19.334 57.333 20.001 60c11.333 34 17 77 17 129c0 42 -3.66699 79.667 -11 113s-18.333 65.333 -33 96s-35.667 64 -63 100
c-27.333 34.667 -41 61.334 -41 80.001c0 44.667 35 88.334 105 131.001c54.667 32.667 101.667 49 141 49c62 0 110.167 -27.833 144.5 -83.5s51.5 -132.834 51.5 -231.501c0 -120 -27 -238.333 -81 -355c-26 -53.333 -67.667 -121.666 -125 -204.999
c20.667 -19.333 39.667 -34.166 57 -44.499s37.833 -19.666 61.5 -27.999s59.834 -18.166 108.501 -29.499c-2 -22 -7.33301 -47.167 -16 -75.5s-18.834 -54.166 -30.501 -77.499s-23.5 -40 -35.5 -50c-15.333 -13.333 -37 -20 -65 -20c-50.667 0 -97.334 11 -140.001 33
s-87 58 -133 108z" />
    <glyph glyph-name="R" unicode="R" horiz-adv-x="1280" 
d="M352 1065l26.999 68c-20 -2 -40.667 -5 -62 -9c-13.333 -2.66699 -31.666 -4 -54.999 -4c-32.667 0 -49 16.333 -49 49c0 14 4.16699 30.5 12.5 49.5s17.833 33.5 28.5 43.5c23.333 22 72.166 40 146.499 54s161.5 21 261.5 21c76.667 0 149.834 -10.333 219.501 -31
s129.834 -49.167 180.501 -85.5s90.167 -78 118.5 -125s42.5 -98.167 42.5 -153.5c0 -59.333 -12.333 -114.5 -37 -165.5s-59.667 -95.5 -105 -133.5c-30 -25.333 -58 -44.666 -84 -57.999s-63.333 -27.333 -112 -42c12.667 -23.333 23.834 -41.333 33.501 -54
s25.834 -30.334 48.501 -53.001c60 -54 146 -103 258 -147c5.33301 -2.66699 12 -5.33398 20 -8.00098c-12 -56.667 -23.333 -98 -34 -124s-27.334 -54.333 -50.001 -85c-41.333 -54.667 -91 -82 -149 -82c-32 0 -71.5 11.833 -118.5 35.5s-85.5 51.5 -115.5 83.5
c-23.333 27.333 -44.833 56.333 -64.5 87s-39.5 65.5 -59.5 104.5s-37.167 77 -51.5 114s-24.833 69.5 -31.5 97.5c-1.33301 5.33301 -2 13 -2 23c0 14 4 25 12 33s22.667 15.333 44 22c30 10.667 54.667 22.5 74 35.5s43.666 33.167 72.999 60.5
c33.333 36.667 59.5 79.5 78.5 128.5s28.5 98.5 28.5 148.5c0 59.333 -13.667 105.5 -41 138.5s-71 56.167 -131 69.5c-57.333 -208.667 -114 -405 -170 -589l-21 -76c-34.667 -120 -63.834 -209 -87.501 -267s-47.167 -98.667 -70.5 -122s-59.666 -46.333 -108.999 -69
s-88 -34 -116 -34c-54.667 0 -82 30.667 -82 92c0 25.333 7.5 68.833 22.5 130.5s38.167 142.334 69.5 242.001s64.166 197.167 98.499 292.5z" />
    <glyph glyph-name="S" unicode="S" horiz-adv-x="1044" 
d="M342 641c-57.333 58 -97.668 109.503 -121.001 154.503s-35 93.167 -35 144.5c0 77.333 23.5 150 70.5 218s110 122 189 162s163.833 60 254.5 60c102.667 0 181.667 -21.333 237 -64s83 -103 83 -181c0 -37.333 -10 -76 -30 -116s-47.667 -77.333 -83 -112
c-24 -24 -46.333 -42.167 -67 -54.5s-38 -18.5 -52 -18.5c-17.333 0 -26 13.333 -26 40c0 -0.666992 1.33301 9.66602 4 30.999c4 31.333 6 59.333 6 84c0 34.667 -5.16699 69.5 -15.5 104.5s-23.666 64.333 -39.999 88s-31.833 35.5 -46.5 35.5
c-7.33301 0 -15.666 -5.66699 -24.999 -17c-18 -18.667 -32 -41.834 -42 -69.501s-15 -53.5 -15 -77.5c0 -30 4.33301 -57.833 13 -83.5s23.667 -51.834 45 -78.501s49.666 -56 84.999 -88c56 -50.667 99.167 -95 129.5 -133s52.5 -75.833 66.5 -113.5s21 -78.5 21 -122.5
c0 -77.333 -20.333 -152 -61 -224s-94.5 -130.167 -161.5 -174.5s-136.167 -66.5 -207.5 -66.5c-68 0 -134.333 14.667 -199 44s-125.334 71.333 -182.001 126c-58.667 58 -88 109.333 -88 154c0 27.333 13 54 39 80c26.667 26.667 59.5 49.334 98.5 68.001
s71.833 28 98.5 28c15.333 0 28.333 -3.83301 39 -11.5s20.167 -20.667 28.5 -39s16.5 -43.166 24.5 -74.499c12.667 -44.667 24.334 -77.834 35.001 -99.501s25.667 -43.167 45 -64.5c20 -20 41 -30 63 -30c26.667 0 47.667 10.5 63 31.5s23 49.833 23 86.5
c0 57.333 -20.333 114.666 -61 171.999c-12 19.333 -25.167 36.5 -39.5 51.5s-45.5 43.833 -93.5 86.5c-14.667 12 -38 33 -70 63z" />
    <glyph glyph-name="T" unicode="T" horiz-adv-x="961" 
d="M647 651l-9.99707 -43.0039c-3.33301 -14.667 -6.33301 -27.167 -9 -37.5s-4.83398 -19.333 -6.50098 -27s-3.5 -15.5 -5.5 -23.5c-48 -205.333 -86.667 -333.666 -116 -384.999c-13.333 -22.667 -33.333 -43 -60 -61c-84 -54.667 -150 -82 -198 -82
c-33.333 0 -61.5 12.167 -84.5 36.5s-34.5 54.5 -34.5 90.5c0 65.333 28.667 186 86 362c17.333 56 33.166 104.667 47.499 146s31.666 88 51.999 140s43.333 107.333 69 166l54.5 124c-88 -12.667 -172.667 -19 -254 -19c-82 0 -123 28.667 -123 86
c0 36.667 26.667 83.334 80 140.001c36 36.667 69.333 62.167 100 76.5s67.667 21.5 111 21.5c28 0 66.333 -0.833008 115 -2.5s116.334 -5.5 203.001 -11.5l28 -2l27 -3c73.333 -4 121.666 -8.66699 144.999 -14s43.333 -15.666 60 -30.999c13.333 -15.333 20 -33 20 -53
c0 -21.333 -4.16699 -43.166 -12.5 -65.499s-18.5 -38.833 -30.5 -49.5c-16.667 -18.667 -63.667 -34.334 -141 -47.001c-6.66699 0 -13.667 -0.666992 -21 -2l-20 -4c16 -16 24 -33.667 24 -53c0 -18.667 -9.33301 -59 -28 -121c-6 -15.333 -20.333 -65.666 -43 -150.999
l-15 -60z" />
    <glyph glyph-name="U" unicode="U" horiz-adv-x="1280" 
d="M801 471l2 -0.00195312h-4c-50.667 -88 -95 -159 -133 -213s-74.333 -98.333 -109 -133c-42.667 -42.667 -85.334 -75.167 -128.001 -97.5s-83.334 -33.5 -122.001 -33.5c-81.333 0 -144.666 24.5 -189.999 73.5s-68 117.833 -68 206.5
c0 114.667 31.333 283.334 94 506.001c21.333 74 43 143.333 65 208s45.667 127.334 71 188.001s45 103.667 59 129c10 17.333 23.5 31.166 40.5 41.499s41.167 18.833 72.5 25.5c48 9.33301 93 14 135 14c70.667 0 106 -30.667 106 -92c0 -34.667 -15 -86.334 -45 -155.001
c-27.333 -65.333 -49 -122 -65 -170l-7 -20.5l-12 -35.5c-12.667 -40 -29.667 -100 -51 -180s-38 -148 -50 -204s-18 -92.333 -18 -109c0 -24.667 7 -37 21 -37c15.333 0 50 34.667 104 104c51.333 66 109.833 149.833 175.5 251.5s119.834 192.167 162.501 271.5
c28 51.333 48.5 86.5 61.5 105.5s26.167 33.5 39.5 43.5c35.333 26 77 39 125 39c61.333 0 92 -28 92 -84c0 -11.333 -2 -34.666 -6 -69.999c-18 -145.333 -27 -279.666 -27 -402.999c0 -56 1.66699 -106.667 5 -152s8.33301 -89.666 15 -132.999s15.667 -89 27 -137
c14 -64.667 21 -104.334 21 -119.001c0 -10.667 -3.66699 -20.667 -11 -30c-10.667 -16 -31.667 -29 -63 -39c-58 -22 -102.333 -33 -133 -33c-38.667 0 -75.167 14 -109.5 42s-62.833 67.333 -85.5 118c-26 59.333 -43 137 -51 233c-2 16 -4 42.667 -6 80z" />
    <glyph glyph-name="V" unicode="V" horiz-adv-x="1114" 
d="M877 1210c38 36.667 74.833 67.665 110.5 92.998s60.167 38 73.5 38c20.667 0 31 -19.667 31 -59c0 -46 -5.16699 -95.833 -15.5 -149.5s-24.5 -106.167 -42.5 -157.5c-29.333 -87.333 -68 -184.166 -116 -290.499s-94.667 -200.166 -140 -281.499
c-29.333 -51.333 -67.333 -113.333 -114 -186c-36.667 -56 -69.167 -97.167 -97.5 -123.5s-62.166 -47.833 -101.499 -64.5c-34.667 -13.333 -64.667 -22.333 -90 -27c-30.667 -5.33301 -55.334 -8 -74.001 -8c-33.333 0 -58.666 8 -75.999 24
c-20.667 22 -39.667 60.333 -57 115c-20.667 66.667 -41.5 154.667 -62.5 264s-35.167 204.333 -42.5 285c-5.33301 56 -8 134.667 -8 236c0 184.667 20 297 60 337c14 14 40.167 30.5 78.5 49.5s76.166 33.5 113.499 43.5c29.333 8 54 12 74 12c49.333 0 74 -27.333 74 -82
c0 -28.667 -3 -84 -9 -166c-10.667 -165.333 -16 -295 -16 -389c0 -164 7 -287 21 -369c8 -39.333 14 -66.666 18 -81.999c25.333 33.333 46.5 64.166 63.5 92.499s33.5 58.5 49.5 90.5c32.667 66.667 55.667 118.334 69 155.001c42.667 104.667 76.334 214.667 101.001 330
c16 82 34.333 140.667 55 176c15.333 29.333 38.666 60.666 69.999 93.999z" />
    <glyph glyph-name="W" unicode="W" horiz-adv-x="1665" 
d="M737 590l-3.99805 0.000976562c-51.333 -100 -104.666 -191.667 -159.999 -275c-66 -98.667 -121.667 -171.667 -167 -219c-24.667 -23.333 -55.334 -43.833 -92.001 -61.5s-68.334 -26.5 -95.001 -26.5c-6.66699 0 -15.5 2.16699 -26.5 6.5s-19.833 10.5 -26.5 18.5
c-34 36.667 -61.333 130.834 -82 282.501s-31 335.834 -31 552.501c0 176 13 293 39 351c10.667 24.667 26 45 46 61s49.667 31.667 89 47c34.667 14 70.5 25.667 107.5 35s66.167 14 87.5 14c18.667 0 33.5 -4.66699 44.5 -14s16.5 -22.333 16.5 -39
c0 -6.66699 -1.33301 -15.667 -4 -27c-14 -62 -27 -149.333 -39 -262c-8.66699 -74.667 -14.667 -135.334 -18 -182.001s-6.33301 -110.334 -9 -191.001s-4.33398 -160.334 -5.00098 -239.001l4 -4c30 38.667 62 85 96 139l35 56c11.333 17.333 23.666 37.666 36.999 60.999
c30.667 54.667 58 108 82 160c12 24 22.667 48.333 32 73c100 222.667 170.333 351.667 211 387c18.667 16.667 52.834 32.5 102.501 47.5s94.167 22.5 133.5 22.5c25.333 0 46.333 -5.83301 63 -17.5s25 -27.167 25 -46.5c0 -17.333 -9 -52 -27 -104
c-34.667 -100.667 -62.834 -210.667 -84.501 -330s-32.5 -225.666 -32.5 -318.999c0 -190 37 -285 111 -285c21.333 0 43 16 65 48s40.833 72.667 56.5 122s28.667 106.833 39 172.5s15.5 133.167 15.5 202.5c0 41.333 -2 90.333 -6 147
c-1.33301 15.333 -2 29.666 -2 42.999c0 73.333 40.333 147.333 121 222c39.333 38 68.666 57 87.999 57c46 0 69 -86.667 69 -260c0 -123.333 -13.333 -241.333 -40 -354c-33.333 -135.333 -79.333 -250.333 -138 -345c-30.667 -51.333 -67.167 -100.666 -109.5 -147.999
s-84.166 -85.333 -125.499 -114c-52.667 -36.667 -108.667 -55 -168 -55c-109.333 0 -190.666 42.5 -243.999 127.5s-80 216.5 -80 394.5v68z" />
    <glyph glyph-name="X" unicode="X" horiz-adv-x="1473" 
d="M422 897l-14.001 35.002c-8.66699 16 -23 48 -43 96c-34 79.333 -58.833 134.5 -74.5 165.5s-31.167 54.5 -46.5 70.5c-9.33301 7.33301 -20.333 14.666 -33 21.999c-16.667 10.667 -25 18.334 -25 23.001s3 9.33398 9 14.001c12 12 44 24.167 96 36.5s99 18.5 141 18.5
c56.667 0 105.167 -14.167 145.5 -42.5s81.833 -77.5 124.5 -147.5c62.667 -103.333 121.667 -234.333 177 -393c28.667 34 55 68.5 79 103.5s50 75.5 78 121.5l65.5 101.5c8.33301 12.333 19 26.666 32 42.999s28.5 34.5 46.5 54.5c28 25.333 63.5 46.666 106.5 63.999
s81.167 26 114.5 26c31.333 0 47 -13.667 47 -41c0 -18 -13.833 -50.333 -41.5 -97s-70.834 -109.5 -129.501 -188.5l-233 -302.5c-1.33301 -2 -5.83301 -8 -13.5 -18l-25.5 -32.5l-24 -29.5c34 -77.333 66 -137.333 96 -180c21.333 -32 43.333 -61.5 66 -88.5
s47.334 -52.833 74.001 -77.5c30.667 -31.333 65.334 -58.666 104.001 -81.999c14.667 -10.667 22 -19 22 -25c0 -8.66699 -5.33301 -17.334 -16 -26.001c-21.333 -20.667 -48.333 -40.167 -81 -58.5s-64.5 -32.333 -95.5 -42s-60.167 -14.5 -87.5 -14.5
c-85.333 0 -163.333 32.667 -234 98c-25.333 26 -45.333 49.833 -60 71.5s-34 56.167 -58 103.5l-62 -66c-114 -122 -223 -225.5 -327 -310.5s-173 -127.5 -207 -127.5c-18.667 0 -34.334 9.66699 -47.001 29s-19 43.666 -19 72.999c0 38 7 76.333 21 115s31 68 51 88
c12 12 45.333 37.333 100 76c101.333 64.667 188 130 260 196c32.667 28.667 76.334 73 131.001 133l-159 342z" />
    <glyph glyph-name="Y" unicode="Y" horiz-adv-x="1409" 
d="M582 1128l8.00098 -74.999c2.66699 -12 4.66699 -32.667 6 -62c15.333 -182.667 39.333 -345.667 72 -489c14.667 -60 32.334 -118 53.001 -174l86 180l30 68c9.33301 21.333 15.5 35.666 18.5 42.999s9.16699 21.666 18.5 42.999c14 33.333 36.667 92 68 176
c20 56 33.5 93 40.5 111s20.833 49 41.5 93c24.667 55.333 58 104 100 146c24 24.667 51.333 48.334 82 71.001s59.667 40.334 87 53.001s49.666 19 66.999 19c26 0 39 -10.333 39 -31c0 -18.667 -7 -43 -21 -73c-36.667 -91.333 -86.834 -203.333 -150.501 -336l-195 -388
c-66.333 -126 -122.5 -225.333 -168.5 -298c-37.333 -62 -74.666 -118 -111.999 -168c-70.667 -98 -134.334 -172.833 -191.001 -224.5s-120.667 -92.834 -192 -123.501c-37.333 -16.667 -78.333 -29 -123 -37c-33.333 -5.33301 -59.333 -8 -78 -8c-34 0 -61.333 6 -82 18
s-31 29 -31 51c0 24.667 11.833 61.5 35.5 110.5s48.167 87.5 73.5 115.5c16 16 46 24 90 24c48 0 88.333 5.66699 121 17c22.667 6 46 14.667 70 26s51 27 81 47c-51.333 87.333 -95.5 169 -132.5 245s-68.5 150.667 -94.5 224
c-34.667 95.333 -62.834 197.833 -84.501 307.5s-32.5 205.167 -32.5 286.5c0 47.333 5.33301 83.166 16 107.499s29.334 44.5 56.001 60.5c38.667 24.667 82 45.834 130 63.501s87.333 26.5 118 26.5c26 0 43.5 -9.33301 52.5 -28s14.5 -57.667 16.5 -117
c3.33301 -43.333 7 -77 11 -101z" />
    <glyph glyph-name="Z" unicode="Z" horiz-adv-x="1280" 
d="M422 637l85.9941 95.9971l116 133l92.5 112.5l76.5 98.5l15.5 25.5l14.5 25.5c-57.333 -6.66699 -122.666 -18.667 -195.999 -36c-90 -21.333 -162.333 -35 -217 -41c-5.33301 -0.666992 -11.666 -1.16699 -18.999 -1.5s-15.5 -0.666016 -24.5 -0.999023
s-17.167 -0.833008 -24.5 -1.5c-69.333 2 -104 27.667 -104 77c0 22.667 11.833 54.5 35.5 95.5s51.834 78.167 84.501 111.5c13.333 14.667 26.5 24.167 39.5 28.5s36.833 6.5 71.5 6.5c13.333 0.666992 26.666 1.16699 39.999 1.5s40.333 0.5 81 0.5l139 4l109 4
c10 0.666992 19.167 1.16699 27.5 1.5s21.5 0.5 39.5 0.5h8h23h22h23c84.667 0 144.834 -2.66699 180.501 -8s59.5 -15.666 71.5 -30.999c12 -14 18 -27 18 -39c0 -16.667 -20.333 -50.667 -61 -102c-28 -32.667 -73.667 -92.667 -137 -180c-4.66699 -6 -28 -38 -70 -96
l-53 -76c-146.667 -209.333 -245 -358.333 -295 -447c-3.33301 -7.33301 -6.16602 -13.333 -8.49902 -18l-10.5 -21c94.667 4.66699 163.667 9.66699 207 15c89.333 11.333 166 24.333 230 39c31.333 8 55 12 71 12c34.667 0 52 -16.333 52 -49s-13 -74 -39 -124
s-54 -88.667 -84 -116c-29.333 -27.333 -69.666 -51 -120.999 -71s-110.666 -35.333 -177.999 -46s-136.333 -16 -207 -16c-98.667 0 -184.5 6.66699 -257.5 20s-129.333 32.5 -169 57.5s-59.5 55.167 -59.5 90.5c0 28.667 17.833 67.334 53.5 116.001
s108.834 133 219.501 253c39.333 44 68.666 76 87.999 96z" />
    <glyph glyph-name="bracketleft" unicode="[" horiz-adv-x="788" 
d="M115 686l6.00195 91.999c2 36 4 64 6 84c6 82.667 11.833 152.334 17.5 209.001s12.667 105.834 21 147.501s17.166 72.5 26.499 92.5s20.333 34.333 33 43c28 20 92.333 30 193 30c132 0 224.333 -9.33301 277 -28s79 -51.667 79 -99
c0 -36.667 -6.33301 -64.834 -19 -84.501s-31 -29.5 -55 -29.5c-10.667 0 -23.334 1.33301 -38.001 4c-38 6.66699 -79.667 10 -125 10c-20.667 0 -41.334 -0.666992 -62.001 -2l-8 -41l-53 -315l-17 -84c-48 -246 -79.333 -401 -94 -465
c-4.66699 -18.667 -8 -33.667 -10 -45l65 2c14 1.33301 35.333 2 64 2c64 0 108 -4.66699 132 -14s36 -26 36 -50c0 -17.333 -4.5 -39 -13.5 -65s-18.833 -44.333 -29.5 -55c-12.667 -10.667 -34.5 -18.5 -65.5 -23.5s-72.167 -7.5 -123.5 -7.5
c-109.333 0 -182.666 1.66699 -219.999 5s-61.833 11.333 -73.5 24s-17.5 35.667 -17.5 69c0 37.333 9.66699 123.333 29 258c21.333 175.333 34.333 287.333 39 336z" />
    <glyph glyph-name="backslash" unicode="\" horiz-adv-x="961" 
d="M854 164l4.00195 -13.999l6 -15c44 -110.667 66 -177.667 66 -201c0 -18 -7 -33.333 -21 -46s-31.667 -19 -53 -19c-16 0 -33.333 4.33301 -52 13s-35.334 20.667 -50.001 36c-24 26 -72.333 101.5 -145 226.5s-142.667 253.5 -210 385.5l-221 441
c-24 46.667 -45.333 93.167 -64 139.5s-33.834 88.333 -45.501 126s-17.5 65.167 -17.5 82.5c0 38 10.833 69 32.5 93s49.834 36 84.501 36c38.667 0 76.667 -16.333 114 -49s75.166 -81.834 113.499 -147.501s79.833 -153.167 124.5 -262.5z" />
    <glyph glyph-name="bracketright" unicode="]" horiz-adv-x="831" 
d="M408 -4l-107 -4h-45h-29c-46 0 -82 2.5 -108 7.5s-44.833 13.333 -56.5 25s-17.5 28.167 -17.5 49.5c0 18 6 43.333 18 76c11.333 23.333 21 38.333 29 45c8 9.33301 34 14 78 14h18h37c36.667 0 86 2 148 6c5.33301 18.667 10.666 41.334 15.999 68.001
c7.33301 56.667 15.666 114 24.999 172c17.333 132.667 30 245.667 38 339s15.667 211.666 23 354.999c-81.333 -2.66699 -140 -6.66699 -176 -12c-29.333 -4.66699 -51.333 -7 -66 -7c-20 0 -33.833 2.66699 -41.5 8s-11.5 15 -11.5 29c0 24 6.83301 53.5 20.5 88.5
s26.834 59.5 39.501 73.5c17.333 18 56 32.5 116 43.5s129 16.5 207 16.5c44 0 88.667 -5 134 -15s74.333 -21.667 87 -35c16.667 -14 25 -35 25 -63c0 -42 -3.33301 -80.333 -10 -115l-97 -532c-65.333 -367.333 -115.666 -569.333 -150.999 -606
c-13.333 -14.667 -61 -23.667 -143 -27z" />
    <glyph glyph-name="asciicircum" unicode="^" horiz-adv-x="961" 
d="M238 690h-185l355 801h145l354 -801h-182l-246 598z" />
    <glyph glyph-name="underscore" unicode="_" horiz-adv-x="1024" 
d="M-12 -256v105h1048v-105h-1048z" />
    <glyph glyph-name="grave" unicode="`" 
d="M461 1479c12.667 0 23.998 -4.83203 33.998 -14.499s21.667 -27.5 35 -53.5c28 -55.333 65.667 -105.666 113 -150.999c6 -6 11.667 -11.333 17 -16s11.333 -10.334 18 -17.001c14 -10.667 24 -20 30 -28s9 -17.333 9 -28c0 -30 -24.667 -45 -74 -45
c-111.333 0 -207.666 39.667 -288.999 119c-22 22 -39 42.5 -51 61.5s-18 34.167 -18 45.5c0 7.33301 9.33301 19.666 28 36.999s41.334 35 68.001 53c37.333 24.667 64 37 80 37z" />
    <glyph glyph-name="a" unicode="a" horiz-adv-x="1130" 
d="M797 520l-19 -6.00098c-48 -13.333 -82.667 -20 -104 -20c-26 0 -39 6.66699 -39 20c0 4.66699 5.33301 17 16 37c37.333 56.667 56 110 56 160c0 28.667 -5 54.834 -15 78.501s-21 35.5 -33 35.5c-10.667 0 -27 -11.333 -49 -34
c-62 -67.333 -111.167 -136.333 -147.5 -207s-54.5 -133.667 -54.5 -189c0 -36.667 7.5 -67 22.5 -91s33.833 -36 56.5 -36c19.333 0 55.5 20.667 108.5 62s112.5 96 178.5 164l27 22zM737 290.999l0.00390625 -4.00195l-4 4c-62 -72.667 -118.833 -132.167 -170.5 -178.5
s-99.334 -81.166 -143.001 -104.499s-83.834 -35 -120.501 -35c-74.667 0 -136.334 25 -185.001 75s-73 113.333 -73 190c0 47.333 12 103.333 36 168s57 128 99 190c70 101.333 158 187.333 264 258c109.333 72.667 214.666 109 315.999 109
c85.333 0 155.5 -17.5 210.5 -52.5s82.5 -79.167 82.5 -132.5c0 -39.333 -13.667 -81 -41 -125c36 0 58.667 -3.83301 68 -11.5s14 -25.5 14 -53.5c0 2.66699 -1.66699 -11 -5 -41c-4 -66 -6 -127.667 -6 -185c0 -30 0.333008 -52.667 1 -68s2 -33 4 -53s4 -36 6 -48
c5.33301 -31.333 14 -62.333 26 -93c-40 -39.333 -78.333 -68.166 -115 -86.499s-74 -27.5 -112 -27.5c-102.667 0 -154 86 -154 258c0 20 0.666992 35.667 2 47z" />
    <glyph glyph-name="b" unicode="b" horiz-adv-x="961" 
d="M627 426c-16.667 -5.33301 -28.3291 -8 -34.9961 -8c-23.333 0 -42.5 8.66699 -57.5 26s-22.5 39.333 -22.5 66c0 52.667 18.667 120.667 56 204s76.666 145 117.999 185c30 30 64 45 102 45c29.333 0 54.666 -9.83301 75.999 -29.5s37.666 -48 48.999 -85
s17 -80.167 17 -129.5c0 -124 -26 -240.333 -78 -349s-121.333 -195.334 -208 -260.001s-179.667 -97 -279 -97c-64.667 0 -121 15.333 -169 46s-85.167 74.834 -111.5 132.501s-39.5 124.5 -39.5 200.5c0 72 11.667 152.833 35 242.5s56 181 98 274s92 183.5 150 271.5
c61.333 95.333 131.666 169.666 210.999 222.999c54.667 38.667 112 58 172 58c61.333 0 110.333 -18.667 147 -56s55 -87 55 -149c0 -44 -16.833 -90.167 -50.5 -138.5s-76 -88.166 -127 -119.499s-100.833 -47 -149.5 -47c-23.333 0 -35 6 -35 18
c0 9.33301 9.66699 26.333 29 51c32 40 59 86.167 81 138.5s33 97.833 33 136.5c0 35.333 -5.33301 53 -16 53c-13.333 0 -34 -22 -62 -66s-53 -94.333 -75 -151c-52 -136 -92 -265.167 -120 -387.5s-42 -226.5 -42 -312.5c0 -64.667 10.5 -119.167 31.5 -163.5
s46.5 -66.5 76.5 -66.5c38 0 69.667 21.5 95 64.5s40.333 102.833 45 179.5z" />
    <glyph glyph-name="c" unicode="c" horiz-adv-x="788" 
d="M600 965c50.667 -2 90.999 -16.667 120.999 -44s45 -64 45 -110c0 -40 -11.5 -80.333 -34.5 -121s-52 -74 -87 -100s-70.167 -39 -105.5 -39c-20.667 0 -31 7.33301 -31 22c0 5.33301 4 17 12 35c26 44 39 94.667 39 152c0 28.667 -3.33301 43 -10 43
c-9.33301 0 -22.666 -12 -39.999 -36s-32 -52.333 -44 -85c-20.667 -51.333 -37.834 -106 -51.501 -164s-20.5 -107 -20.5 -147c0 -45.333 6.83301 -81 20.5 -107s32.834 -39 57.501 -39c22.667 0 53 12 91 36s74 53.667 108 89c14 18 26.333 27 37 27c16 0 24 -9 24 -27
c0 -82 -32 -156.333 -96 -223c-44 -44 -94.5 -79.5 -151.5 -106.5s-108.167 -40.5 -153.5 -40.5c-79.333 0 -145.333 25 -198 75s-79 113 -79 189s16.833 155.833 50.5 239.5s79.667 163.167 138 238.5s124.5 138.333 198.5 189c53.333 36 105.333 54 156 54h4z" />
    <glyph glyph-name="d" unicode="d" horiz-adv-x="1174" 
d="M688 440l0.000976562 57.998c-34 -30 -59.333 -45 -76 -45c-9.33301 0 -14 4.66699 -14 14c0 4 2 12.333 6 25c14 40 21 78.667 21 116c0 54 -11.667 110 -35 168c-10 30 -22.333 45 -37 45c-7.33301 0 -13.333 -3.33301 -18 -10c-22 -25.333 -43 -61.166 -63 -107.499
s-36.5 -96.666 -49.5 -150.999s-19.5 -102.5 -19.5 -144.5c0 -79.333 24 -119 72 -119c24 0 56.167 14.167 96.5 42.5s79.166 64.5 116.499 108.5zM719.001 914.998l9.99609 41c20.667 91.333 39.334 165.166 56.001 221.499s33.834 104 51.501 143s35.167 67.167 52.5 84.5
c28 30 78.333 45 151 45c32 0 55.833 -1.66699 71.5 -5s28.167 -9.33301 37.5 -18c-32 -99.333 -54.167 -173.833 -66.5 -223.5s-25.833 -117.834 -40.5 -204.501c-22.667 -141.333 -34 -269 -34 -383c0 -75.333 6.16699 -153.5 18.5 -234.5s32.5 -171.167 60.5 -270.5
c-35.333 -24.667 -69.166 -45.667 -101.499 -63s-63 -31 -92 -41s-54.5 -15 -76.5 -15c-38.667 0 -66 19 -82 57c-13.333 31.333 -22 56.5 -26 75.5s-11 71.833 -21 158.5c-89.333 -93.333 -174.833 -166.833 -256.5 -220.5s-146.834 -80.5 -195.501 -80.5
c-56 0 -101.833 22.833 -137.5 68.5s-53.5 104.5 -53.5 176.5c0 64.667 13.833 136.5 41.5 215.5s65.834 155.5 114.501 229.5c32 48.667 64.833 89.834 98.5 123.501s71.834 64.834 114.501 93.501c77.333 50.667 142 76 194 76c25.333 0 62.333 -16.667 111 -50z" />
    <glyph glyph-name="e" unicode="e" horiz-adv-x="874" 
d="M397 311c30.667 20.667 54.001 41.334 70.001 62.001c35.333 43.333 62.666 93 81.999 149c15.333 36.667 27.333 77.667 36 123s13 87.666 13 126.999c0 36.667 -7.66699 55 -23 55c-21.333 0 -54 -47 -98 -141c-26 -56.667 -47.167 -113.167 -63.5 -169.5
s-24.5 -104.833 -24.5 -145.5c0 -14 2.66699 -34 8 -60zM399.001 279c7.33301 -40 33.3311 -60.001 77.998 -60.001c50 0 115 29.333 195 88c46.667 34 78 51 94 51c20 0 38.667 -5.33301 56 -16s26 -21.667 26 -33c0 -12 -9.66699 -27.667 -29 -47
c-35.333 -35.333 -76 -69.833 -122 -103.5s-90.333 -61.667 -133 -84s-85.334 -40 -128.001 -53s-80.667 -19.5 -114 -19.5c-83.333 0 -150 23.833 -200 71.5s-75 111.167 -75 190.5c0 60.667 13.167 129.167 39.5 205.5s61.833 147.833 106.5 214.5
c52.667 78 117.334 143 194.001 195c94.667 62.667 185.334 94 272.001 94c62.667 0 111.834 -19.833 147.501 -59.5s53.5 -94.167 53.5 -163.5c0 -54 -14.167 -110.333 -42.5 -169s-70.166 -115 -125.499 -169c-45.333 -45.333 -89.833 -80.666 -133.5 -105.999
s-81.834 -38 -114.501 -38c-14.667 0 -29.667 3.66699 -45 11z" />
    <glyph glyph-name="f" unicode="f" horiz-adv-x="752" 
d="M420 215l-2.00195 -54.998c-9.33301 -132.667 -21.333 -240.667 -36 -324s-31.334 -134.333 -50.001 -153c-25.333 -27.333 -65 -41 -119 -41c-58 0 -99.667 11.333 -125 34c-10 11.333 -16.667 21.666 -20 30.999s-5 26.333 -5 51v9v10v12
c2 187.333 20 375.666 54 564.999s79 361.833 135 517.5s117.333 279 184 370s133 136.5 199 136.5c30 0 52.5 -10.167 67.5 -30.5s22.5 -49.5 22.5 -87.5c0 -56.667 -6 -116.834 -18 -180.501s-26.5 -115.5 -43.5 -155.5s-34.167 -60 -51.5 -60c-16 0 -24 28 -24 84v19v12
c0 56 -1.16699 92.667 -3.5 110s-7.5 29 -15.5 35c-7.33301 -14.667 -12.666 -31.667 -15.999 -51c-16 -80 -29 -152.333 -39 -217s-25 -169.667 -45 -315c-0.666992 -8 -1.66699 -17 -3 -27s-2.33301 -19 -3 -27h14c8 0.666992 15.333 1.16699 22 1.5s17 0.5 31 0.5
c25.333 3.33301 48 5 68 5c79.333 0 119 -20.667 119 -62c0 -21.333 -7.5 -47.166 -22.5 -77.499s-32.833 -55.5 -53.5 -75.5s-44.167 -34.5 -70.5 -43.5s-64.166 -15.167 -113.499 -18.5c-10.667 0 -18.167 -0.166992 -22.5 -0.5s-9.16602 -0.833008 -14.499 -1.5z" />
    <glyph glyph-name="g" unicode="g" horiz-adv-x="1126" 
d="M770 487l0.000976562 -4.00098l-4 4c-4 -1.33301 -9.33301 -2 -16 -2c-12.667 -1.33301 -28.667 -2 -48 -2c-34 0 -51 6.33301 -51 19c0 6.66699 4.33301 14.667 13 24c25.333 28.667 47.166 66.334 65.499 113.001s28.5 89 30.5 127c0 9.33301 0.666992 17.666 2 24.999
c0.666992 2.66699 1.16699 5 1.5 7s0.5 3.66699 0.5 5c0 9.33301 -6.33301 14 -19 14c-26 0 -66 -28 -120 -84c-34 -36 -66 -78.667 -96 -128s-53.333 -98.666 -70 -147.999s-25 -93.666 -25 -132.999c0 -38.667 9.66699 -58 29 -58c18.667 0 65.667 31.333 141 94
c34 29.333 89.333 71.666 166 126.999zM719.001 273.999l-27 -20c-2 -2 -5.16699 -4.66699 -9.5 -8l-16.5 -13c-115.333 -90 -205.833 -153.333 -271.5 -190s-122.834 -55 -171.501 -55c-54 0 -97.5 19.667 -130.5 59s-49.5 92 -49.5 158c0 82 23.167 166.833 69.5 254.5
s107.5 168.167 183.5 241.5s159.333 132.166 250 176.499s178.334 66.5 263.001 66.5c83.333 0 146.833 -14.333 190.5 -43s65.5 -71.667 65.5 -129c0 -48 -19 -107.333 -57 -178c27.333 -2 47.333 -10.5 60 -25.5s19 -38.5 19 -70.5c0 -52 -10.667 -124.5 -32 -217.5
s-47.333 -178.833 -78 -257.5c-37.333 -99.333 -90.666 -185.666 -159.999 -258.999c-52.667 -55.333 -118 -102.833 -196 -142.5s-145 -59.5 -201 -59.5c-46.667 0 -88.334 18.667 -125.001 56s-55 79.333 -55 126c0 31.333 8 63.833 24 97.5s36.667 62.5 62 86.5
c52 52.667 128.333 102.667 229 150c18.667 9.33301 33 14 43 14c4 0 7.66699 -1.66699 11 -5s5 -7 5 -11c0 -4.66699 -4 -13.667 -12 -27c-20 -34 -37.667 -77.5 -53 -130.5s-23 -98.833 -23 -137.5c0 -45.333 7 -68 21 -68c7.33301 0 16.5 8.16699 27.5 24.5
s20.833 34.833 29.5 55.5c56.667 144 93 277.333 109 400c2 18 4 45 6 81z" />
    <glyph glyph-name="h" unicode="h" horiz-adv-x="1024" 
d="M725 1219l-0.00195312 15.999c0 24.667 -3.33301 37 -10 37c-8.66699 0 -22.167 -13.333 -40.5 -40s-34.833 -56.334 -49.5 -89.001c-36.667 -83.333 -69 -171.5 -97 -264.5s-49.667 -185.833 -65 -278.5l-17 -117l5 -4c66.667 68.667 116.334 117.334 149.001 146.001
s75 61.334 127 98.001c65.333 45.333 119.333 68 162 68c27.333 0 48.5 -9.83301 63.5 -29.5s22.5 -46.834 22.5 -81.501c0 -20 -4 -48.667 -12 -86c-14 -78.667 -21 -145 -21 -199c0 -24.667 2 -50.667 6 -78c3.33301 -21.333 14.333 -64.333 33 -129
c15.333 -49.333 23 -76.666 23 -81.999c0 -9.33301 -11 -20.666 -33 -33.999c-70.667 -46.667 -135.667 -70 -195 -70c-48.667 0 -88.167 23.667 -118.5 71s-45.5 109 -45.5 185c0 30 3 66.333 9 109l-5 4l-190 -197c-118.667 -114.667 -210 -172 -274 -172
c-29.333 0 -53.5 19.5 -72.5 58.5s-28.5 89.833 -28.5 152.5c0 134.667 41.667 306.667 125 516c33.333 81.333 68.666 159.166 105.999 233.499s73 138.5 107 192.5c24.667 38 50.5 71.167 77.5 99.5s54.333 52 82 71s55.834 33.167 84.501 42.5s57.334 14 86.001 14
c71.333 0 129.5 -22 174.5 -66s67.5 -100.333 67.5 -169c0 -48 -13.667 -99 -41 -153s-65.666 -105.333 -114.999 -154c-31.333 -30.667 -66.833 -57.834 -106.5 -81.501s-70.5 -35.5 -92.5 -35.5c-6.66699 0 -12.667 2.33301 -18 7s-8 10.667 -8 18
c0 10 8.66699 31.667 26 65c20 36.667 39.667 81.5 59 134.5s34.166 103.333 44.499 151s15.5 87.834 15.5 120.501z" />
    <glyph glyph-name="i" unicode="i" horiz-adv-x="512" 
d="M199 -10c-30 2 -57.3369 15.667 -82.0039 41c-24.667 26.667 -42.167 55.5 -52.5 86.5s-15.5 71.167 -15.5 120.5c0 110 20.5 234.167 61.5 372.5s87.5 238.5 139.5 300.5c20.667 26 49.334 39 86.001 39c38.667 0 69.834 -17.667 93.501 -53s35.5 -81.666 35.5 -138.999
c0 -84.667 -12.167 -183.834 -36.5 -297.501s-58.5 -231.834 -102.5 -354.501c-17.333 -49.333 -38.666 -82.666 -63.999 -99.999c-17.333 -10.667 -37.666 -16 -60.999 -16h-2zM318.996 995c-62.667 2 -93.999 39.666 -93.999 112.999c0 36.667 9.16699 79.167 27.5 127.5
s39.166 84.166 62.499 107.499c12 12.667 24.167 21.667 36.5 27s28.166 8 47.499 8c33.333 0 57.833 -8.16699 73.5 -24.5s23.5 -43.5 23.5 -81.5c0 -47.333 -8.16699 -92.166 -24.5 -134.499s-38.166 -76.666 -65.499 -102.999s-55.333 -39.5 -84 -39.5h-3z" />
    <glyph glyph-name="j" unicode="j" horiz-adv-x="598" 
d="M330 897c37.333 35.333 72.6699 52.999 106.003 52.999c36.667 0 66.334 -12.5 89.001 -37.5s34 -57.5 34 -97.5c0 -57.333 -5.83301 -117 -17.5 -179s-31.5 -138.167 -59.5 -228.5s-72.667 -223.5 -134 -399.5c-20.667 -61.333 -45 -118.5 -73 -171.5
s-56.333 -96.167 -85 -129.5c-8.66699 -10.667 -20 -16 -34 -16c-28.667 0 -53.334 25 -74.001 75s-31 109.667 -31 179c0 76 7.16699 143 21.5 201s29.833 87 46.5 87c6.66699 0 14.667 -4 24 -12l6 -3c1.33301 -0.666992 3 -1.66699 5 -3
c1.33301 12 2.66602 25.333 3.99902 40s2.66602 27.334 3.99902 38.001c11.333 132.667 24.5 236.167 39.5 310.5s34.5 137.5 58.5 189.5c15.333 33.333 38.666 68 69.999 104zM403.004 996.999c-27.333 1.33301 -49.167 11.667 -65.5 31s-24.5 45.333 -24.5 78
c0 40.667 8.66699 84.334 26 131.001s38 82 62 106c22 22 49.333 33 82 33c34.667 0 59.167 -8.33301 73.5 -25s21.5 -44.334 21.5 -83.001c0 -72.667 -17.167 -136 -51.5 -190s-74.5 -81 -120.5 -81h-3z" />
    <glyph glyph-name="k" unicode="k" horiz-adv-x="1024" 
d="M1004 -178c-93.333 -120 -164.333 -180.001 -213 -180.001c-35.333 0 -72.5 13.833 -111.5 41.5s-75.5 65 -109.5 112s-61 97.833 -81 152.5s-30 106.667 -30 156c0 28 4.66699 46.667 14 56c4 4 13 10.667 27 20c112 69.333 168 135 168 197c0 32.667 -14.333 49 -43 49
c-30.667 0 -70.167 -29.5 -118.5 -88.5s-92.166 -131.167 -131.499 -216.5c-23.333 -54 -43.333 -88.333 -60 -103c-15.333 -13.333 -39 -20 -71 -20c-35.333 0 -66 9.83301 -92 29.5s-46.167 47.667 -60.5 84s-21.5 77.833 -21.5 124.5c0 72 9 150.667 27 236
s43.167 171 75.5 257s70.833 170 115.5 252s91.334 154.333 140.001 217c96 121.333 189.667 182 281 182c45.333 0 85.833 -10.333 121.5 -31s63.167 -50 82.5 -88s29 -82.333 29 -133c0 -62 -15.333 -123.833 -46 -185.5s-70.5 -112 -119.5 -151
s-98.167 -58.5 -147.5 -58.5c-23.333 0 -35 8.33301 -35 25c0 6.66699 6 22.334 18 47.001c58.667 116 88 247.667 88 395c0 38 -4.66699 57 -14 57c-6.66699 0 -16.834 -9.66699 -30.501 -29s-26.834 -43 -39.501 -71c-73.333 -164.667 -126.333 -354.334 -159 -569.001
c-2 -11.333 -4.16699 -26.333 -6.5 -45s-5.16602 -40 -8.49902 -64l4 -4c27.333 38.667 49.833 67.5 67.5 86.5s41.167 39.5 70.5 61.5c90 70.667 174 106 252 106c40 0 72.833 -11.667 98.5 -35s38.5 -53.333 38.5 -90c0 -90 -28.667 -182.667 -86 -278
c-16 -28 -34.5 -55.667 -55.5 -83s-51.167 -62.666 -90.5 -105.999c24 -40.667 51.333 -81.667 82 -123c27.333 -36 61.666 -72 102.999 -108c36 -30 62 -58 78 -84z" />
    <glyph glyph-name="l" unicode="l" horiz-adv-x="938" 
d="M592 748c26.667 75.333 49.001 154.17 67.001 236.503s27 145.5 27 189.5c0 12 -3.33301 18 -10 18c-10.667 0 -29.334 -23.833 -56.001 -71.5s-49 -96.167 -67 -145.5c-38.667 -108.667 -68.5 -198.834 -89.5 -270.501s-35.5 -131.834 -43.5 -180.501
s-12 -98.334 -12 -149.001c0 -43.333 4.83301 -75 14.5 -95s25.167 -30 46.5 -30c36.667 0 77.667 16.167 123 48.5s86.333 74.833 123 127.5c28.667 39.333 51 59 67 59c20.667 0 31 -16.333 31 -49c0 -71.333 -22.333 -141 -67 -209s-102.167 -123.167 -172.5 -165.5
s-142.166 -63.5 -215.499 -63.5c-90 0 -163.333 28.333 -220 85s-85 130.667 -85 222c0 74.667 16 162.167 48 262.5s74.833 201.333 128.5 303s112.5 193.834 176.5 276.501s127.333 146 190 190c38.667 28.667 81.667 43 129 43c36 0 68.667 -11.167 98 -33.5
s52 -53.5 68 -93.5s24 -84.333 24 -133c0 -104.667 -20.5 -207 -61.5 -307s-98.167 -186.667 -171.5 -260c-34.667 -35.333 -68 -63 -100 -83s-60 -30 -84 -30c-23.333 0 -35 9 -35 27c0 10 8.66699 29 26 57c23.333 36.667 50.666 92 81.999 166
c2.66699 7.33301 5.66699 15.166 9 23.499s7.33301 19.833 12 34.5z" />
    <glyph glyph-name="m" unicode="m" horiz-adv-x="1579" 
d="M1143 362l-272.998 -279.999c-35.333 -35.333 -63.833 -59.5 -85.5 -72.5s-45.5 -19.5 -71.5 -19.5c-40.667 0 -74.834 15.167 -102.501 45.5s-41.5 67.5 -41.5 111.5c0 27.333 4.16699 57.166 12.5 89.499s24.833 80.5 49.5 144.5
c4.66699 13.333 9.16699 24.833 13.5 34.5s7.83301 17.834 10.5 24.501l-4 4c-64.667 -68 -128 -139.667 -190 -215c-52 -62 -93.333 -108.333 -124 -139s-58.334 -53.667 -83.001 -69s-46.667 -23 -66 -23c-43.333 0 -77.666 17 -102.999 51s-38 80.333 -38 139
c0 74 32 193.667 96 359c57.333 146.667 101.666 245 132.999 295c46 69.333 98.667 104 158 104c36 0 65.833 -8.5 89.5 -25.5s35.5 -39.167 35.5 -66.5c0 -50 -19 -126.333 -57 -229c-14.667 -38 -29.667 -81 -45 -129l4 -4c24.667 27.333 64.334 74.333 119.001 141
c94 116 165 195 213 237c62 57.333 118.667 86 170 86c22.667 0 44.334 -7.66699 65.001 -23s37.167 -35.833 49.5 -61.5s18.5 -52.5 18.5 -80.5c0 -28.667 -20.667 -102 -62 -220l-20 -58c-4.66699 -14 -9 -26 -13 -36l5 -4l25 25l24.5 23.5l25.5 23.5l136 137
c48 53.333 85.667 89.833 113 109.5s53.666 29.5 78.999 29.5c41.333 0 72.833 -14.167 94.5 -42.5s32.5 -70.166 32.5 -125.499c0 -34 -5.33301 -87.667 -16 -161c-9.33301 -82.667 -15.833 -147.5 -19.5 -194.5s-5.5 -79.833 -5.5 -98.5c0 -14 0.833008 -31.833 2.5 -53.5
s4.5 -44.834 8.5 -69.501s9.33301 -52 16 -82c8 -36.667 13.333 -65.334 16 -86.001c-5.33301 -24 -22.833 -44.333 -52.5 -61s-61.834 -25 -96.501 -25c-54.667 0 -106 24.667 -154 74c-21.333 22.667 -37.833 45.5 -49.5 68.5s-20 50.333 -25 82s-7.5 73.5 -7.5 125.5
c0 34 4 104.333 12 211l-4 4z" />
    <glyph glyph-name="n" unicode="n" horiz-adv-x="1044" 
d="M481 528l60.0029 69.9971c60.667 67.333 108.834 117.5 144.501 150.5s67.667 56.833 96 71.5s57.166 22 86.499 22c47.333 0 80.666 -12.667 99.999 -38s29 -69.333 29 -132c0 -26 -2.66699 -64.333 -8 -115c-8 -67.333 -12 -130.666 -12 -189.999
c0 -66.667 3.33301 -120.667 10 -162c4.66699 -25.333 11.667 -50.666 21 -75.999c6.66699 -24 10 -40.333 10 -49c0 -10.667 -4 -19 -12 -25c-20.667 -18 -48 -33.667 -82 -47s-62.667 -20 -86 -20c-38 0 -72.5 13 -103.5 39s-55 62 -72 108s-25.5 98 -25.5 156
c0 38.667 4 84.334 12 137.001l-4 4l-69.5 -76l-49.5 -53c-74.667 -85.333 -138 -162.333 -190 -231c-20 -26.667 -38.333 -50 -55 -70c-24.667 -24.667 -52.667 -37 -84 -37c-42.667 0 -77.334 16 -104.001 48s-40 73.333 -40 124c0 31.333 3.66699 69.666 11 114.999
s17.166 93.833 29.499 145.5s27 104.834 44 159.501s35.5 106.667 55.5 156c30.667 82 68 146 112 192c30 30 66.333 45 109 45c69.333 0 104 -45 104 -135c0 -66 -13.667 -160.333 -41 -283z" />
    <glyph glyph-name="o" unicode="o" horiz-adv-x="1110" 
d="M719 1006c99.333 0 148.998 -11.668 148.998 -35.001c0 -26.667 -22.333 -41 -67 -43c-54 -3.33301 -104.333 -18.666 -151 -45.999s-88.167 -64.666 -124.5 -111.999s-64.666 -100.666 -84.999 -159.999s-30.5 -122 -30.5 -188c0 -72.667 17 -131.167 51 -175.5
s78.333 -66.5 133 -66.5c50.667 0 95 26 133 78s57 112.667 57 182c0 56.667 -11.833 109.834 -35.5 159.501s-58.167 91.5 -103.5 125.5c-19.333 15.333 -29 26.333 -29 33c0 9.33301 13.667 23.666 41 42.999c30.667 20.667 65 38 103 52s70 21 96 21
c30 0 58.5 -7.83301 85.5 -23.5s50.833 -38 71.5 -67s36.5 -62.333 47.5 -100s16.5 -77.834 16.5 -120.501c0 -70.667 -13.333 -140.5 -40 -209.5s-61.667 -124.833 -105 -167.5c-56 -54 -123.5 -98.167 -202.5 -132.5s-154.167 -51.5 -225.5 -51.5
c-69.333 0 -138.166 12 -206.499 36s-122.5 55.667 -162.5 95c-53.333 53.333 -80 129 -80 227c0 77.333 19 154.666 57 231.999s89.5 147.5 154.5 210.5s136.667 112.667 215 149s157.5 54.5 237.5 54.5z" />
    <glyph glyph-name="p" unicode="p" horiz-adv-x="1130" 
d="M453 229c18.667 -54.667 53.9971 -82 105.997 -82c36.667 0 70.834 16.5 102.501 49.5s57 77.667 76 134s28.5 115.5 28.5 177.5c0 49.333 -3.83301 92 -11.5 128s-16.167 54 -25.5 54c-6.66699 0 -23.667 -17.667 -51 -53s-54.666 -76.333 -81.999 -123
c-56 -90.667 -98.333 -170.667 -127 -240c-7.33301 -18 -12.666 -33 -15.999 -45zM529.997 657l31 58.002c29.333 51.333 56.5 94.166 81.5 128.499s47.167 59.5 66.5 75.5s42.333 29 69 39c22 8.66699 46 13 72 13c50.667 0 95.5 -15 134.5 -45s69 -73 90 -129
s31.5 -120.333 31.5 -193c0 -104.667 -23.5 -205.167 -70.5 -301.5s-108.667 -174.166 -185 -233.499s-155.166 -89 -236.499 -89c-47.333 0 -86.833 10 -118.5 30s-60.834 54.333 -87.501 103l-7 -17l-6 -22c-43.333 -139.333 -77.833 -241.833 -103.5 -307.5
s-47.834 -105.834 -66.501 -120.501c-14.667 -14 -31.667 -21 -51 -21c-38 0 -67.667 18.667 -89 56s-32 89.666 -32 156.999c0 73.333 8 161.333 24 264s38.167 207.334 66.5 314.001s59.833 203.667 94.5 291c22.667 53.333 47.667 100 75 140s53.333 69 78 87
c18 10.667 37.333 16 58 16c30.667 0 54.334 -8.33301 71.001 -25s25 -40.334 25 -71.001c0 -26 -2.66699 -54.667 -8 -86c-4 -30.667 -7.66699 -66 -11 -106z" />
    <glyph glyph-name="q" unicode="q" horiz-adv-x="1122" 
d="M797 561l-12.999 -0.000976562h-14c-6.66699 0 -12.334 -0.166992 -17.001 -0.5s-10 -0.833008 -16 -1.5c-32.667 0 -49 5.33301 -49 16c0 6.66699 7 20.334 21 41.001c16 29.333 31.5 63.166 46.5 101.499s22.5 64.833 22.5 79.5c0 16 -5.33301 24 -16 24
c-10 0 -22.333 -5.33301 -37 -16c-26 -17.333 -53 -39.666 -81 -66.999s-54.167 -56 -78.5 -86s-44.166 -59 -59.499 -87c-22.667 -42.667 -42 -93.167 -58 -151.5s-24 -108.833 -24 -151.5c0 -30 5.33301 -45 16 -45c19.333 0 72.666 47.667 159.999 143l141 146z
M635.001 187.999l-39.002 -31.998c-42.667 -33.333 -83 -61.5 -121 -84.5s-71.833 -39 -101.5 -48s-60.5 -13.5 -92.5 -13.5c-67.333 0 -121.5 21.333 -162.5 64s-61.5 98.667 -61.5 168c0 68 17.333 142.333 52 223s81.834 157.667 141.501 231
s124.834 133.666 195.501 180.999c103.333 69.333 219 104 347 104c94.667 0 162.334 -11.5 203.001 -34.5s61 -62.167 61 -117.5c0 -58 -18.667 -111.667 -56 -161c-15.333 -20.667 -39 -42.667 -71 -66l12 -8c5.33301 -2.66699 8.66602 -4.66699 9.99902 -6
c32 -18 52.667 -32.833 62 -44.5s14 -28.834 14 -51.501c0 -26 -7.16699 -75.333 -21.5 -148s-31.166 -141.667 -50.499 -207c-72.667 -244 -139.334 -395.333 -200.001 -454c-14.667 -13.333 -43 -27.333 -85 -42s-76 -22 -102 -22c-20.667 0 -37 7.16699 -49 21.5
s-18 32.5 -18 54.5c0 61.333 34.667 191.666 104 390.999c14.667 42.667 23.667 69.334 27 80.001l6 18z" />
    <glyph glyph-name="r" unicode="r" horiz-adv-x="664" 
d="M391 305l-4.00195 -20.001c0 -11.333 -1.33301 -27.666 -4 -48.999c-2.66699 -32.667 -6.33398 -59.334 -11.001 -80.001s-11.667 -37.834 -21 -51.501s-22 -28.167 -38 -43.5c-48.667 -44.667 -97.667 -67 -147 -67c-40 0 -69.5 14.667 -88.5 44
s-28.5 76.666 -28.5 141.999c0 52 5.83301 116.167 17.5 192.5s25.834 144.833 42.501 205.5l8 26c0 4 2 12.333 6 25c24.667 90.667 47.334 157.834 68.001 201.501s45.667 78.834 75 105.501c26 20.667 55.333 31 88 31c47.333 0 76 -28.667 86 -86
c9.33301 8 18.333 17.333 27 28c19.333 23.333 34.333 38.833 45 46.5s23 11.5 37 11.5c57.333 0 86 -56.667 86 -170c0 -62 -6.66699 -122 -20 -180s-30.166 -105.333 -50.499 -142s-40.5 -55 -60.5 -55c-22 0 -33 41.667 -33 125c0 44 -2.5 78.5 -7.5 103.5
s-12.833 44.5 -23.5 58.5c-20 -37.333 -33 -122.666 -39 -255.999c-4.66699 -77.333 -8 -126 -10 -146z" />
    <glyph glyph-name="s" unicode="s" horiz-adv-x="918" 
d="M350 -43c39.333 2 75.166 21.165 107.499 57.498s48.5 75.833 48.5 118.5c0 29.333 -9.66699 52.666 -29 69.999c-20.667 20.667 -67 41 -139 61c-106 30.667 -175 65 -207 103c-30 30.667 -45 67.334 -45 110.001c0 76.667 27.833 153.334 83.5 230.001
s126.834 139.5 213.501 188.5s174 73.5 262 73.5c42.667 0 82.667 -10 120 -30s67 -46.5 89 -79.5s33 -68.833 33 -107.5c0 -38 -12 -77.333 -36 -118s-54.167 -74.5 -90.5 -101.5s-70.833 -40.5 -103.5 -40.5c-18.667 0 -34.834 4 -48.501 12s-20.5 16.667 -20.5 26
s2.66699 23 8 41c14.667 57.333 22 107.333 22 150c0 42 -12.667 81.667 -38 119c-32.667 -22.667 -54 -40.667 -64 -54c-25.333 -29.333 -45 -62.666 -59 -99.999c-15.333 -38 -23 -74 -23 -108c0 -24 5.5 -43.167 16.5 -57.5s29 -26.5 54 -36.5s62.833 -21 113.5 -33
c84.667 -20.667 144.334 -40.667 179.001 -60c8 -4.66699 20.333 -14.334 37 -29.001c25.333 -27.333 38 -62.666 38 -105.999c0 -46 -14.333 -92.5 -43 -139.5s-73 -95.5 -133 -145.5c-64 -54 -127.667 -92.667 -191 -116s-133.333 -35 -210 -35
c-74 0 -132.167 14.667 -174.5 44s-63.5 69.333 -63.5 120c0 36 14 72.5 42 109.5s62.833 67.167 104.5 90.5s82.5 35 122.5 35c30 0 45 -6.66699 45 -20c0 -6.66699 -4.33301 -17.667 -13 -33c-26 -46.667 -39 -89.667 -39 -129c0 -28 10.333 -54.667 31 -80z" />
    <glyph glyph-name="t" unicode="t" horiz-adv-x="705" 
d="M242 967l4.00195 11.999c44 124 82 211.333 114 262c15.333 24 36.666 45.333 63.999 64c51.333 32.667 99.666 49 144.999 49c26.667 0 47 -6 61 -18s21 -29.333 21 -52c0 -15.333 -10 -46.666 -30 -93.999c-34 -78.667 -59.333 -152.334 -76 -221.001
c11.333 -1.33301 22.333 -3.33301 33 -6c40 -6 66.333 -12.833 79 -20.5s19 -21.5 19 -41.5c0 -35.333 -9 -68 -27 -98s-41.667 -52 -71 -66c-22 -10 -57.667 -16.667 -107 -20c-8.66699 -26 -18.334 -61.667 -29.001 -107c-6 -40 -12.667 -95.333 -20 -166
c-4 -26 -6 -50.333 -6 -73c0 -105.333 51 -158 153 -158h6h3c12 0 18 -2 18 -6c0 -10.667 -11.333 -28.667 -34 -54s-47.667 -47.666 -75 -66.999c-29.333 -20 -61.333 -36 -96 -48s-66 -18 -94 -18c-70 0 -126.833 23.667 -170.5 71s-65.5 110 -65.5 188
c0 33.333 5.83301 77 17.5 131s29.834 126.333 54.501 217l13 50.5c4.66699 17.667 7.33398 28.167 8.00098 31.5c-26.667 0.666992 -45.667 6.33398 -57 17.001s-17 28 -17 52c0 42 16.167 81.667 48.5 119s70.166 60.666 113.499 69.999z" />
    <glyph glyph-name="u" unicode="u" horiz-adv-x="1087" 
d="M670 313l-17.002 -14.001c-3.33301 -2 -25.666 -19 -66.999 -51c-80 -62.667 -146 -112.167 -198 -148.5s-95.333 -63 -130 -80s-62.667 -25.5 -84 -25.5c-36 0 -64.833 14.833 -86.5 44.5s-32.5 68.167 -32.5 115.5c0 80 12 173.167 36 279.5s56.333 211.166 97 314.499
c44.667 114.667 99.334 184.667 164.001 210c22.667 10 49.334 15 80.001 15c42 0 76 -13 102 -39s39 -60.333 39 -103c0 -29.333 -5 -60.333 -15 -93s-26 -71.667 -48 -117l-12 -29c-57.333 -121.333 -86 -195 -86 -221c0 -15.333 5.33301 -23 16 -23c10 0 23 7 39 21
s40.667 39.667 74 77c20.667 25.333 50 57 88 95l37 37l32 34c67.333 66.667 122.333 114.834 165 144.501s78 44.5 106 44.5c53.333 0 80 -46.333 80 -139c0 -19.333 -2.33301 -53.666 -7 -102.999c-8 -96 -12 -177.333 -12 -244c0.666992 -13.333 1.16699 -25.5 1.5 -36.5
s0.5 -25.167 0.5 -42.5c4.66699 -44.667 8 -79 10 -103l7 -57c0 -20 -18 -37.667 -54 -53s-77.667 -23 -125 -23c-43.333 0 -80.5 8.5 -111.5 25.5s-54.5 42.167 -70.5 75.5s-24 74 -24 122c0 6 0.666992 16.5 2 31.5s2.66602 34.5 3.99902 58.5z" />
    <glyph glyph-name="v" unicode="v" horiz-adv-x="883" 
d="M666 846l16 31.001c16.667 34.667 30.5 57.667 41.5 69s25.833 17 44.5 17c54.667 0 82 -61.667 82 -185c0 -36 -2.66699 -67 -8 -93s-14.333 -51 -27 -75c-15.333 -32 -36 -68.5 -62 -109.5s-55.5 -84.333 -88.5 -130s-68.167 -91.5 -105.5 -137.5
c-66.667 -84.667 -123 -146.667 -169 -186s-84.667 -59 -116 -59c-58 0 -99.333 35.333 -124 106c-17.333 44.667 -33.166 98.667 -47.499 162s-25.5 127.5 -33.5 192.5s-12 127.833 -12 188.5c0 84 7.5 154.833 22.5 212.5s35.5 95.5 61.5 113.5c23.333 13.333 48 20 74 20
c30.667 0 59.5 -4.83301 86.5 -14.5s48.167 -23.834 63.5 -42.501c14 -14 24.5 -32.5 31.5 -55.5s11.667 -58 14 -105s3.5 -111.833 3.5 -194.5v-51v-96v-113h4c12.667 28.667 23 50.667 31 66c21.333 42 62.666 130.667 123.999 266l72 160z" />
    <glyph glyph-name="w" unicode="w" horiz-adv-x="1386" 
d="M618 414l-42.9971 -89.998c-39.333 -80.667 -75.333 -146.334 -108 -197.001s-63 -86.5 -91 -107.5s-57.667 -31.5 -89 -31.5c-32 0 -60 13.667 -84 41c-46.667 54.667 -85.667 158.334 -117 311.001c-24.667 123.333 -37 229.666 -37 318.999c0 70 8 125.833 24 167.5
s41 72.334 75 92.001s78.333 29.5 133 29.5c28.667 0 49.5 -5 62.5 -15s21.833 -30 26.5 -60s7 -75.333 7 -136c0 -110.667 5.33301 -215 16 -313c1.33301 -5.33301 4.66602 -32 9.99902 -80h5l11 24l8 18l7.5 16.5c2.33301 5 5.5 12.167 9.5 21.5
c35.333 80 72.333 172 111 276c44.667 119.333 75.334 192 92.001 218c4.66699 6 11 12.667 19 20c32 23.333 77.667 35 137 35c31.333 0 54.666 -5.83301 69.999 -17.5s25.833 -31.167 31.5 -58.5s9.16699 -72.333 10.5 -135c0 -50 5.83301 -119.833 17.5 -209.5
s24.5 -169.5 38.5 -239.5c4.66699 -24 14.667 -69.667 30 -137h5c14.667 44 24.667 78.333 30 103c19.333 84.667 29 206.667 29 366v45c0 47.333 4.33301 85.166 13 113.499s24 54.166 46 77.499c23.333 23.333 50.333 42.5 81 57.5s57.667 22.5 81 22.5
c27.333 0 46.833 -10.833 58.5 -32.5s17.5 -56.834 17.5 -105.501c0 -109.333 -22.667 -245.666 -68 -408.999c-39.333 -139.333 -91 -267.666 -155 -384.999c-20.667 -36.667 -40.667 -66.667 -60 -90s-39.333 -39.833 -60 -49.5s-44.334 -14.5 -71.001 -14.5
c-94.667 0 -172.334 60.667 -233.001 182c-18 37.333 -34 79.666 -48 126.999s-26 102 -36 164c-3.33301 10.667 -6 32.667 -8 66h-5z" />
    <glyph glyph-name="x" unicode="x" horiz-adv-x="1024" 
d="M500 215l-11.002 -9.99707c-3.33301 -2.66699 -8.33301 -7.16699 -15 -13.5l-19 -17.5c-76 -70.667 -132.833 -118.667 -170.5 -144s-71.834 -38 -102.501 -38c-40 0 -72.833 11.833 -98.5 35.5s-38.5 54.167 -38.5 91.5c0 41.333 17.667 79.333 53 114
c9.33301 9.33301 33.333 29.333 72 60c60.667 47.333 103 82 127 104c26 26 50 52 72 78c-27.333 59.333 -54.666 113.333 -81.999 162l-49 80c-22.667 32 -44.167 58.667 -64.5 80s-41.166 39 -62.499 53c-26 15.333 -39 29.666 -39 42.999c0 12.667 13 23.667 39 33
s58 14 96 14c88.667 0 165 -22.667 229 -68c17.333 -12 32.333 -23 45 -33s28.334 -24.167 47.001 -42.5l58 -57.5c53.333 69.333 106 122.833 158 160.5s98.333 56.5 139 56.5c28 0 54.667 -5.16699 80 -15.5s38 -21.5 38 -33.5c0 -25.333 -10.833 -55.333 -32.5 -90
s-57.167 -80.334 -106.5 -137.001c-40.667 -48.667 -65.167 -78.334 -73.5 -89.001s-24.166 -34.334 -47.499 -71.001l238 -381c13.333 -22 20 -41 20 -57c0 -27.333 -21.5 -52.666 -64.5 -75.999s-89.5 -35 -139.5 -35c-90.667 0 -160.334 33 -209.001 99
c-23.333 32 -52 80.333 -86 145z" />
    <glyph glyph-name="y" unicode="y" horiz-adv-x="1024" 
d="M692 686l13.001 42.998c17.333 66.667 43.666 118 78.999 154c22.667 22.667 48.667 41.334 78 56.001s56 22 80 22c44 0 66 -18.667 66 -56c0 -18.667 -6 -47.667 -18 -87s-27.833 -83.833 -47.5 -133.5s-42.667 -104.167 -69 -163.5s-55.5 -120.333 -87.5 -183
c-58 -118.667 -116.667 -219 -176 -301c-42.667 -58.667 -86 -110.667 -130 -156s-90.167 -86 -138.5 -122s-94 -63.167 -137 -81.5s-82.5 -27.5 -118.5 -27.5c-30 0 -45 13 -45 39c0 20.667 4.66699 45.334 14 74.001s22.333 55.667 39 81c18 24 40.667 45.333 68 64
c34.667 24 85.667 51.333 153 82c-40 67.333 -70.333 120.666 -91 159.999s-43.334 88.333 -68.001 147c-54.667 130 -82 248 -82 354c0 80.667 10 146.334 30 197.001c18 43.333 51 74 99 92c38.667 15.333 73.334 23 104.001 23c43.333 0 72.5 -16.5 87.5 -49.5
s28.167 -110.167 39.5 -231.5c12 -130 31.333 -258.333 58 -385c4.66699 -19.333 10 -46 16 -80h4c18 39.333 37.667 87 59 143c6.66699 16 30 75 70 177c22.667 61.333 39.667 111 51 149z" />
    <glyph glyph-name="z" unicode="z" horiz-adv-x="874" 
d="M567 772l-42.9971 -16.001c-157.333 -53.333 -273.333 -80 -348 -80c-50.667 0 -76 22.333 -76 67c0 24.667 7.5 52 22.5 82s32.833 55.333 53.5 76c25.333 26 49 44.167 71 54.5s49.667 15.5 83 15.5c11.333 0 24.166 -0.166992 38.499 -0.5s30.833 -0.833008 49.5 -1.5
c132 -5.33301 220.5 -9.16602 265.5 -11.499s80.833 -6.16602 107.5 -11.499c22.667 -4.66699 40.5 -12.834 53.5 -24.501s19.5 -24.5 19.5 -38.5c0 -42.667 -116.667 -236.667 -350 -582l-37 -55h47c85.333 0 167.333 15.667 246 47c20 6.66699 32.333 10 37 10
c20.667 0 31 -17.667 31 -53c0 -58 -15.5 -110.833 -46.5 -158.5s-74 -85 -129 -112s-115.5 -40.5 -181.5 -40.5c-82 0 -156.5 7.33301 -223.5 22s-119.833 35.167 -158.5 61.5s-58 55.833 -58 88.5c0 17.333 8.16699 37.833 24.5 61.5s49.166 61.167 98.499 112.5
c8 10 26.333 30.333 55 61l33 35l35 41l24 29l25 26c57.333 63.333 105.666 120 144.999 170c14 17.333 26.333 33.5 37 48.5l53 72.5z" />
    <glyph glyph-name="braceleft" unicode="{" horiz-adv-x="797" 
d="M190 569v240.001c54 2 95 11.333 123 28s50 43.667 66 81c12.667 33.333 21 66 25 98s6 82.333 6 151v17v18c0 50 1 91.833 3 125.5s5.33301 63 10 88s11 47.5 19 67.5c18.667 44.667 49.667 80.667 93 108c37.333 22.667 75.5 38 114.5 46s96.167 12 171.5 12h53v-238
h-14c-57.333 0 -98.666 -3.66699 -123.999 -11s-42.666 -20.666 -51.999 -39.999s-14 -50.666 -14 -93.999c0 18 -1.33301 -22.333 -4 -121c-0.666992 -23.333 -1.5 -45.333 -2.5 -66s-2 -38.334 -3 -53.001s-2.16699 -29 -3.5 -43c-2 -38.667 -10 -77.667 -24 -117
c-14.667 -40.667 -32.334 -73.334 -53.001 -98.001s-53.667 -51.334 -99 -80.001c75.333 -43.333 126 -102.666 152 -177.999c11.333 -36 18.666 -68.5 21.999 -97.5s7 -88.833 11 -179.5c2.66699 -97.333 4 -137.333 4 -120c0 -44.667 6.33301 -77.334 19 -98.001
s35.667 -34.667 69 -42c24 -4 58 -6 102 -6h12v-239h-51c-77.333 0 -135.666 4 -174.999 12s-77.333 23.667 -114 47c-42.667 28.667 -72.667 65 -90 109c-12.667 30.667 -21.5 65.667 -26.5 105s-7.5 97 -7.5 173v19v16c0 70 -2 121.833 -6 155.5s-12.333 65.167 -25 94.5
c-20 41.333 -44.667 70 -74 86c-28.667 13.333 -66.334 21.333 -113.001 24z" />
    <glyph glyph-name="bar" unicode="|" horiz-adv-x="1204" 
d="M494 1425h217v-1701h-217v1701z" />
    <glyph glyph-name="braceright" unicode="}" horiz-adv-x="799" 
d="M795 809l-0.000976562 -239.994c-36.667 -2 -66.5 -6.83301 -89.5 -14.5s-42.167 -19 -57.5 -34s-28.666 -35.5 -39.999 -61.5c-12 -28.667 -20 -59.167 -24 -91.5s-6 -85.166 -6 -158.499v-16v-19c0 -78.667 -2.5 -136.834 -7.5 -174.501s-14.167 -72.167 -27.5 -103.5
c-19.333 -46.667 -49.333 -83 -90 -109c-38.667 -23.333 -77.167 -39 -115.5 -47s-96.166 -12 -173.499 -12h-51v239h12c44.667 0 77.667 1.83301 99 5.5s39.666 11.5 54.999 23.5c14 12 23.5 26.167 28.5 42.5s7.5 41.166 7.5 74.499c0 -17.333 1.33301 22.667 4 120
c2.66699 39.333 4.66699 72.166 6 98.499s2.33301 47.5 3 63.5c4 38 12 76.333 24 115c15.333 41.333 34.5 75.666 57.5 102.999s54.5 52.333 94.5 75c-42.667 27.333 -75.167 54 -97.5 80s-40.5 58.667 -54.5 98c-9.33301 28 -15.5 50 -18.5 66s-5.66699 41.167 -8 75.5
s-4.5 80.166 -6.5 137.499c-2.66699 98.667 -4 139 -4 121c0 62 -11.167 101.667 -33.5 119s-74.5 26 -156.5 26h-14v238h53c77.333 0 136 -4 176 -12s77 -23.333 111 -46c44 -28.667 74.667 -64.667 92 -108c12.667 -32 21.167 -66.333 25.5 -103s6.5 -96 6.5 -178v-18v-17
c0 -46.667 1 -85.667 3 -117s5.16699 -56.5 9.5 -75.5s10.5 -37.833 18.5 -56.5c20 -41.333 45.333 -70.333 76 -87c18 -8.66699 34.167 -14.334 48.5 -17.001s35.833 -4.33398 64.5 -5.00098z" />
    <glyph glyph-name="asciitilde" unicode="~" horiz-adv-x="1366" 
d="M1167 860l72.0029 0.00195312c-2.66699 -73.333 -16.167 -137.833 -40.5 -193.5s-58 -98 -101 -127s-92.833 -43.5 -149.5 -43.5c-28.667 0 -57.334 2.66699 -86.001 8s-65 16.166 -109 32.499s-106 41.5 -186 75.5c-92.667 40 -161 60 -205 60
c-45.333 0 -81.833 -15 -109.5 -45s-45.5 -73.667 -53.5 -131h-70c2.66699 69.333 11.167 125.666 25.5 168.999s36.5 81 66.5 113c24.667 26.667 53.667 47 87 61s68.666 21 105.999 21c64 0 146.667 -20.333 248 -61c51.333 -18.667 96.333 -36.667 135 -54
c94 -42 160 -63 198 -63c50.667 0 90.667 15.333 120 46s46.666 74.667 51.999 132z" />
    <glyph glyph-name="nonbreakingspace" unicode="&#xa0;" horiz-adv-x="544" 
 />
    <glyph glyph-name="exclamdown" unicode="&#xa1;" horiz-adv-x="748" 
d="M457 674c-25.333 0 -46.0029 5.66699 -62.0029 17s-24 25.333 -24 42c0 18.667 6.33301 46 19 82s27.334 67.333 44.001 94c6.66699 10 12.334 17 17.001 21c23.333 23.333 52 42.5 86 57.5s66 22.5 96 22.5c26.667 0 46.667 -6.66699 60 -20s20 -32.666 20 -57.999
c0 -27.333 -8.66699 -60.333 -26 -99s-37.333 -69.334 -60 -92.001c-19.333 -19.333 -45.166 -35.333 -77.499 -48s-62.5 -19 -90.5 -19h-2zM513.997 115l-8.00195 -25c-1.33301 -5.33301 -2.66602 -9.66602 -3.99902 -12.999s-2.66602 -7 -3.99902 -11
c-32.667 -102.667 -58.834 -174.334 -78.501 -215.001s-43.5 -71 -71.5 -91c-26 -17.333 -60.833 -32.5 -104.5 -45.5s-83.167 -19.5 -118.5 -19.5c-22 0 -40.167 4.16699 -54.5 12.5s-21.5 20.5 -21.5 36.5c0 34.667 46.333 168.334 139 401.001
c6 13.333 15 34.666 27 63.999c53.333 144.667 97.666 244.334 132.999 299.001c11.333 18.667 24.333 33.667 39 45c28.667 24 58.834 44 90.501 60s56.834 24 75.501 24c22 0 39.167 -5.83301 51.5 -17.5s18.5 -27.834 18.5 -48.501c0 -17.333 -14.333 -91 -43 -221
c-30 -114 -52 -192.333 -66 -235z" />
    <glyph glyph-name="cent" unicode="&#xa2;" horiz-adv-x="788" 
d="M539 958l9.99805 41c42.667 174 79.334 261 110.001 261c8.66699 0 15.667 -4.66699 21 -14s8 -21.333 8 -36c0 -36 -13.667 -109 -41 -219l-6 -24l-2 -6c83.333 -26 125 -77.333 125 -154c0 -40.667 -11.5 -81 -34.5 -121s-52.667 -72.833 -89 -98.5
s-72.5 -38.5 -108.5 -38.5c-18.667 0 -28 7.33301 -28 22c0 4 4 15 12 33c27.333 44 41 96 41 156c0 28.667 -4 43 -12 43c-9.33301 0 -23 -13.333 -41 -40s-33 -55.667 -45 -87c-46.667 -113.333 -70 -214.333 -70 -303c0 -48.667 6.66699 -86.5 20 -113.5
s31.333 -40.5 54 -40.5c24 0 55.333 12.167 94 36.5s75.667 55.166 111 92.499c15.333 18 26.666 27 33.999 27c16.667 0 25 -14.333 25 -43c0 -104 -58 -195 -174 -273c-67.333 -45.333 -126.666 -71 -177.999 -77c-10 -3.33301 -21.667 -5 -35 -5
c-15.333 -51.333 -30.833 -96.666 -46.5 -135.999s-32.167 -74.333 -49.5 -105c-13.333 -26 -27.666 -39 -42.999 -39c-16.667 0 -25 8 -25 24c0 29.333 17 99 51 209c3.33301 8.66699 5.33301 14.834 6 18.501s1.66699 7.16699 3 10.5l8 27
c-62.667 17.333 -111.167 49.166 -145.5 95.499s-51.5 101.833 -51.5 166.5c0 87.333 24.833 182.333 74.5 285s113 193.667 190 273s152.833 130 227.5 152z" />
    <glyph glyph-name="sterling" unicode="&#xa3;" horiz-adv-x="1536" 
d="M322 281l66.998 170.001c-48 20 -72 43 -72 69c0 14 5.66699 36 17 66c20.667 46 40.334 77.333 59.001 94c22 20.667 50 31 84 31h15c87.333 198 174 342 260 432c70.667 71.333 152.334 129.333 245.001 174s178 67 256 67c51.333 0 96.5 -9.66699 135.5 -29
s69.5 -46.333 91.5 -81s33 -73.667 33 -117c0 -30.667 -6 -64.167 -18 -100.5s-27.667 -69.166 -47 -98.499c-31.333 -46.667 -76.333 -89 -135 -127c-79.333 -54 -143.666 -81 -192.999 -81c-14 0 -26 3 -36 9s-15 13.667 -15 23c0 12 9 28.333 27 49
c22 24 51.333 65 88 123c64 106.667 96 186.667 96 240c0 26 -10.333 39 -31 39c-28 0 -63.333 -24 -106 -72s-86.334 -112.833 -131.001 -194.5s-83.667 -167.5 -117 -257.5h319c17.333 0 30.333 -4.83301 39 -14.5s13 -22.834 13 -39.501c0 -34 -14.167 -69 -42.5 -105
s-62.833 -63 -103.5 -81c-43.333 -16.667 -114.333 -25 -213 -25h-16h-39c-30 0 -58 -0.666992 -84 -2l-84 -166c55.333 -12 127 -18 215 -18c174 0 299 19 375 57c38.667 21.333 77 46 115 74c18 15.333 30.667 23 38 23c14 0 21 -7 21 -21
c0 -29.333 -14.667 -66.833 -44 -112.5s-70 -94.167 -122 -145.5c-107.333 -105.333 -211 -158 -311 -158c-69.333 0 -158 7 -266 21c-72.667 8 -178 16 -316 24c-48.667 -36 -90 -61.333 -124 -76s-66.333 -22 -97 -22c-38 0 -68 10.667 -90 32s-33 49.666 -33 84.999
c0 58 26.333 109.833 79 155.5s118.667 74.5 198 86.5z" />
    <glyph glyph-name="currency" unicode="&#xa4;" horiz-adv-x="1425" 
d="M936 1069l131 133l141 -143l-131 -131c48 -82 72 -166 72 -252c0 -88.667 -24 -172.667 -72 -252l131 -129l-141 -141l-131 129c-78.667 -49.333 -163.334 -74 -254.001 -74c-88 0 -172 24.667 -252 74l-129 -129l-143 141l131 129c-26 44 -44.833 85.5 -56.5 124.5
s-17.5 81.5 -17.5 127.5s5.66699 88 17 126s30.333 80 57 126l-131 131l139 143l133 -133c83.333 49.333 167.333 74 252 74s169.334 -24.667 254.001 -74zM416 676c0 -74 25.833 -137.167 77.5 -189.5s114.5 -78.5 188.5 -78.5c75.333 0 138.833 26.167 190.5 78.5
s77.5 115.5 77.5 189.5c0 48.667 -11.833 93.167 -35.5 133.5s-56 72.5 -97 96.5s-86.167 36 -135.5 36c-73.333 0 -136 -26 -188 -78s-78 -114.667 -78 -188z" />
    <glyph glyph-name="yen" unicode="&#xa5;" horiz-adv-x="1409" 
d="M418 250l-17.0039 30.9951c-25.333 53.333 -46.333 100.333 -63 141c-37.333 87.333 -69.333 183 -96 287c-40 158.667 -60 294.334 -60 407.001c0 46.667 5.33301 82.167 16 106.5s29.334 44.833 56.001 61.5c38.667 24.667 82 45.834 130 63.501s87.333 26.5 118 26.5
c26 0 43.5 -9.33301 52.5 -28s14.5 -57.667 16.5 -117c3.33301 -43.333 7 -77 11 -101l10 -75c1.33301 -13.333 2 -21 2 -23s1.33301 -15 4 -39c6.66699 -90.667 15.834 -176.167 27.501 -256.5s25.834 -157.833 42.501 -232.5c14.667 -60 32.334 -118 53.001 -174l86 180
l30 68c9.33301 21.333 15.5 35.666 18.5 42.999s9.16699 21.666 18.5 42.999c10.667 24.667 33.334 83.334 68.001 176.001c20 56 33.5 93 40.5 111s20.833 49 41.5 93c28.667 59.333 62 108 100 146c24 24.667 51.333 48.334 82 71.001s59.667 40.334 87 53.001
s49.666 19 66.999 19c26 0 39 -10.333 39 -31c0 -15.333 -8.16699 -44.166 -24.5 -86.499s-43.666 -105 -81.999 -188l-121.5 -253l-153 -295.5l-70 -133l-26 -45.5c-9.33301 -16.333 -15 -25.833 -17 -28.5l-12 -20h377c29.333 0 48.166 -5.5 56.499 -16.5
s12.5 -35.5 12.5 -73.5c0 -42.667 -4.33301 -70.834 -13 -84.501s-27.334 -20.5 -56.001 -20.5h-506c-58 -85.333 -120 -161 -186 -227c-27.333 -27.333 -56.5 -51.5 -87.5 -72.5s-65.5 -40.333 -103.5 -58s-76.167 -31 -114.5 -40s-73.166 -13.5 -104.499 -13.5
c-34 0 -61.333 6 -82 18s-31 29 -31 51c0 22.667 12.333 59.334 37 110.001s49.334 89.334 74.001 116.001c14 16 43.333 24 88 24c48 0 88.333 5.66699 121 17c43.333 12 93.666 35 150.999 69v4h-473c-31.333 0 -51.833 5.5 -61.5 16.5s-14.5 34.167 -14.5 69.5
c0 34 2 58.167 6 72.5s11.333 24.333 22 30s26.667 8.5 48 8.5h365z" />
    <glyph glyph-name="brokenbar" unicode="&#xa6;" horiz-adv-x="1204" 
d="M494 453h217v-729h-217v729zM494 1425h217v-731h-217v731z" />
    <glyph glyph-name="section" unicode="&#xa7;" horiz-adv-x="1110" 
d="M541 700c-24.667 -52 -37 -95.667 -37 -131s14.833 -70.833 44.5 -106.5s78.167 -75.834 145.5 -120.501c24.667 24 41.834 45.333 51.501 64s14.5 39.667 14.5 63c0 44 -19.833 86.833 -59.5 128.5s-92.834 75.834 -159.501 102.501zM365 852
c-17.333 26.667 -27.835 43.8408 -31.502 51.5078s-10.5 24.5 -20.5 50.5c-10.667 37.333 -16 73 -16 107c0 72.667 23.833 141.667 71.5 207s109.834 113.666 186.501 144.999c60 24.667 132.333 37 217 37c64.667 0 121.667 -9.5 171 -28.5s87.833 -45.5 115.5 -79.5
s41.5 -73 41.5 -117c0 -42 -10.5 -81.833 -31.5 -119.5s-49 -67.5 -84 -89.5s-73.167 -33 -114.5 -33c-38 0 -57 9 -57 27c0 4.66699 2 14 6 28c18 55.333 27 105.333 27 150c0 80.667 -14.333 121 -43 121c-21.333 0 -50 -18 -86 -54c-24 -25.333 -43.333 -51.5 -58 -78.5
s-22 -51.167 -22 -72.5c0 -35.333 15.667 -68 47 -98c24 -24 67 -52 129 -84c72.667 -40.667 124 -74.334 154 -101.001c73.333 -80.667 110 -165.334 110 -254.001c0 -148.667 -76.333 -278.334 -229 -389.001c36.667 -71.333 55 -134 55 -188
c0 -51.333 -12 -102.333 -36 -153s-57.667 -96.667 -101 -138c-46.667 -45.333 -100.334 -78.833 -161.001 -100.5s-134 -32.5 -220 -32.5c-90 0 -165.333 20.667 -226 62s-91 92.333 -91 153c0 31.333 13.667 63.666 41 96.999s62.5 61.333 105.5 84s84.167 34 123.5 34
c10 0 18.333 -3 25 -9s10 -14 10 -24c0 -8 -5 -22.333 -15 -43c-22.667 -44.667 -34 -84.334 -34 -119.001c0 -22.667 6 -44 18 -64s24.333 -30 37 -30c20.667 0 42.334 11.667 65.001 35c33.333 31.333 59.5 64.833 78.5 100.5s28.5 68.5 28.5 98.5s-9 57.333 -27 82
c-10.667 16 -23.667 31.5 -39 46.5s-43.333 39.5 -84 73.5l-125 113c-38.667 39.333 -66.667 76.666 -84 111.999s-26 73 -26 113c0 53.333 10 107.166 30 161.499s46.667 100.833 80 139.5c20.667 24 50.334 47.333 89.001 70z" />
    <glyph glyph-name="dieresis" unicode="&#xa8;" 
d="M307 1169c-25.333 0 -45.668 5.66602 -61.001 16.999s-23 26.333 -23 45c0 21.333 8.33301 52 25 92c18.667 42.667 35 70 49 82c14.667 14 40.334 26 77.001 36s74.334 15 113.001 15c44 0 66 -19.667 66 -59c0 -57.333 -25.333 -109.666 -76 -156.999
s-107.334 -71 -170.001 -71zM699.998 1126c-81.333 0 -121.999 30.999 -121.999 92.999c0 26 5.33301 52.833 16 80.5s23.667 49.167 39 64.5c25.333 26 75 39 149 39c63.333 0 95 -17.667 95 -53c0 -14 -5.33301 -33.833 -16 -59.5s-23.334 -51.167 -38.001 -76.5
s-29.667 -45.666 -45 -60.999c-16 -18 -42 -27 -78 -27z" />
    <glyph glyph-name="copyright" unicode="&#xa9;" horiz-adv-x="1511" 
d="M997 614l122.999 -36.001c-20 -84 -62.833 -150.833 -128.5 -200.5s-143.5 -74.5 -233.5 -74.5c-79.333 0 -149.333 17.667 -210 53s-107.167 85.5 -139.5 150.5s-48.5 141.167 -48.5 228.5c0 86.667 16 161.834 48 225.501s78.5 112.667 139.5 147
s131.833 51.5 212.5 51.5c89.333 0 163.5 -20.5 222.5 -61.5s99.5 -98.833 121.5 -173.5l-119 -29c-19.333 49.333 -48.333 87.333 -87 114s-84.667 40 -138 40c-81.333 0 -145.666 -29 -192.999 -87s-71 -135.667 -71 -233c0 -94.667 22.833 -169.5 68.5 -224.5
s107.5 -82.5 185.5 -82.5c40 0 77 7.83301 111 23.5s62.667 37.667 86 66s40 62.5 50 102.5zM-0.000976562 736.999c0 136.667 33.832 262.667 101.499 378s159.167 206.833 274.5 274.5s241.333 101.5 378 101.5c102.667 0 200.334 -19.5 293.001 -58.5
s173.5 -93 242.5 -162s122.833 -149.667 161.5 -242s58 -189.5 58 -291.5c0 -137.333 -33.667 -263.666 -101 -378.999s-159.166 -206.833 -275.499 -274.5s-242.5 -101.5 -378.5 -101.5c-136.667 0 -262.834 33.833 -378.501 101.5s-207.167 159.167 -274.5 274.5
s-101 241.666 -101 378.999zM126.998 736.999c0 -114 28.167 -219.501 84.5 -316.501s132.333 -173.667 228 -230s200.5 -84.5 314.5 -84.5c114.667 0 220 28.333 316 85s172 133.334 228 230.001s84 202 84 316c0 86.667 -16.333 168.334 -49 245.001
s-77.667 143.667 -135 201s-124 102.166 -200 134.499s-157.333 48.5 -244 48.5c-86 0 -166.833 -16.167 -242.5 -48.5s-142.5 -77.5 -200.5 -135.5s-103.167 -125.667 -135.5 -203s-48.5 -158 -48.5 -242z" />
    <glyph glyph-name="ordfeminine" unicode="&#xaa;" horiz-adv-x="748" 
d="M653 1059l29 21.998l-4 4c-33.333 -10.667 -58.666 -16 -75.999 -16c-16 0 -24 4 -24 12c0 6.66699 4.66699 18.334 14 35.001c19.333 32.667 29 65.334 29 98.001c0 20.667 -2.83301 37.5 -8.5 50.5s-12.5 19.5 -20.5 19.5c-8.66699 0 -20.334 -7.33301 -35.001 -22
c0 -1.33301 -0.666992 -2 -2 -2c-36 -36 -66.167 -78.667 -90.5 -128s-36.5 -92 -36.5 -128c0 -22.667 5 -41.667 15 -57s22 -23 36 -23c30 0 88 45 174 135zM864 992.998l0.000976562 -2c0 -72.667 8.33301 -132 25 -178c-19.333 -21.333 -42.833 -39.333 -70.5 -54
s-52.834 -22 -75.501 -22c-40 0 -68 19.333 -84 58c-5.33301 14.667 -9 32.5 -11 53.5s-3 50.833 -3 89.5c-68.667 -73.333 -125.5 -126.5 -170.5 -159.5s-83.833 -49.5 -116.5 -49.5c-49.333 0 -90 16.667 -122 50s-48 75.333 -48 126c0 39.333 11.833 84.333 35.5 135
s55 99 94 145s81.167 84.333 126.5 115c71.333 49.333 142.333 74 213 74c34 0 65.833 -5.33301 95.5 -16s52.667 -25 69 -43s24.5 -38 24.5 -60s-9.66699 -50 -29 -84h2h10h7c14 0 23.5 -2.66699 28.5 -8s7.5 -16.333 7.5 -33v-22c-4 -62.667 -6 -92.667 -6 -90
c0 -7.33301 -0.166992 -12.5 -0.5 -15.5s-0.833008 -6.16699 -1.5 -9.5z" />
    <glyph glyph-name="guillemotleft" unicode="&#xab;" horiz-adv-x="662" 
d="M176 430c14.667 -32 30.6699 -58.6689 48.0029 -80.002s40.333 -43 69 -65c31.333 -25.333 47 -44.666 47 -57.999c0 -8.66699 -5.33301 -17 -16 -25s-22.334 -12 -35.001 -12c-14 0 -33.833 8 -59.5 24s-49.5 34.667 -71.5 56c-20 22.667 -38.833 47.5 -56.5 74.5
s-33.167 54.167 -46.5 81.5c-4 10 -6 18.333 -6 25c0 24.667 19 55.334 57 92.001c16.667 16 43.667 38.667 81 68s72.166 54.5 104.499 75.5s59.5 36.5 81.5 46.5c8 2.66699 13.333 4 16 4c9.33301 0 18.166 -3.5 26.499 -10.5s12.5 -14.167 12.5 -21.5
c0 -22.667 -37 -66 -111 -130c-41.333 -34 -69.5 -58.667 -84.5 -74s-33.833 -39 -56.5 -71zM481.003 464.998l-43 -43c93.333 -84.667 140 -142 140 -172c0 -8.66699 -4.83301 -17.334 -14.5 -26.001s-20.167 -13 -31.5 -13c-24 0 -54.667 19.667 -92 59
c-78.667 84.667 -118 138.667 -118 162c0 8 9.83301 24.333 29.5 49s45.834 52.667 78.501 84l14 13c80 78.667 132.667 118 158 118c10.667 0 20.167 -5 28.5 -15s12.5 -21.333 12.5 -34c0 -7.33301 -9.66699 -21.833 -29 -43.5s-52 -55.5 -98 -101.5
c-2.66699 -3.33301 -7.33398 -8.66602 -14.001 -15.999s-13.667 -14.333 -21 -21z" />
    <glyph glyph-name="logicalnot" unicode="&#xac;" horiz-adv-x="1366" 
d="M125 1034h1116v-702h-215v487h-901v215z" />
    <glyph glyph-name="sfthyphen" unicode="&#xad;" horiz-adv-x="512" 
d="M170 311c-35.333 0 -64 10.0029 -86 30.0029s-33 45.667 -33 77c0 19.333 5.5 44.166 16.5 74.499s22.5 51.166 34.5 62.499c30.667 28.667 95 43 193 43c69.333 0 119 -6.33301 149 -19s45 -34.334 45 -65.001c0 -35.333 -9.33301 -66 -28 -92
c-17.333 -24 -48.666 -44.667 -93.999 -62c-88.667 -32.667 -154.334 -49 -197.001 -49z" />
    <glyph glyph-name="registered" unicode="&#xae;" horiz-adv-x="1511" 
d="M0 737c0 136.667 33.832 262.667 101.499 378s159.167 206.833 274.5 274.5s241.333 101.5 378 101.5c102.667 0 200.334 -19.5 293.001 -58.5s173.5 -93 242.5 -162s122.833 -149.667 161.5 -242s58 -189.5 58 -291.5c0 -137.333 -33.667 -263.666 -101 -378.999
s-159.166 -206.833 -275.499 -274.5s-242.5 -101.5 -378.5 -101.5c-136.667 0 -262.834 33.833 -378.501 101.5s-207.167 159.167 -274.5 274.5s-101 241.666 -101 378.999zM126.999 737c0 -114 28.167 -219.501 84.5 -316.501s132.333 -173.667 228 -230
s200.5 -84.5 314.5 -84.5c114.667 0 220 28.333 316 85s172 133.334 228 230.001s84 202 84 316c0 86.667 -16.333 168.334 -49 245.001s-77.667 143.667 -135 201s-124 102.166 -200 134.499s-157.333 48.5 -244 48.5c-86 0 -166.833 -16.167 -242.5 -48.5
s-142.5 -77.5 -200.5 -135.5s-103.167 -125.667 -135.5 -203s-48.5 -158 -48.5 -242zM423.999 318.999v811h278c64 0 109.333 -1.5 136 -4.5s54.667 -10.167 84 -21.5c24 -10 45.833 -25 65.5 -45s35.167 -43 46.5 -69s17 -52.333 17 -79c0 -62.667 -22 -115.167 -66 -157.5
s-100 -65.5 -168 -69.5v-4c31.333 -11.333 58 -28.333 80 -51c30 -33.333 67 -84 111 -152l98 -158h-160l-74 127c-50 90.667 -90 149.667 -120 177s-69.667 41 -119 41h-78v-345h-131zM554.999 775.999h160.001c60 0 103 6.33301 129 19c18.667 7.33301 34.5 21 47.5 41
s19.5 41 19.5 63c0 23.333 -6.33301 45 -19 65s-29.334 34 -50.001 42c-20 7.33301 -36.167 11.5 -48.5 12.5s-41.833 1.5 -88.5 1.5h-150v-244z" />
    <glyph glyph-name="overscore" unicode="&#xaf;" horiz-adv-x="1024" 
d="M488 1532v105h1048v-105h-1048z" />
    <glyph glyph-name="degree" unicode="&#xb0;" horiz-adv-x="819" 
d="M133 1214c0 48.667 12.333 94.5 37 137.5s58.334 77 101.001 102s89 37.5 139 37.5c48.667 0 94.5 -12.333 137.5 -37s76.833 -58.5 101.5 -101.5s37 -89.167 37 -138.5s-12.333 -95.5 -37 -138.5s-58.334 -77 -101.001 -102s-88.667 -37.5 -138 -37.5
c-77.333 0 -142.833 27.167 -196.5 81.5s-80.5 119.833 -80.5 196.5zM242 1214c0 -46 16.502 -85.833 49.502 -119.5s72.5 -50.5 118.5 -50.5c47.333 0 87.166 16.5 119.499 49.5s48.5 73.167 48.5 120.5c0 30.667 -7.33301 58.667 -22 84s-34.834 45.666 -60.501 60.999
s-54.167 23 -85.5 23c-46 0 -85.5 -16.167 -118.5 -48.5s-49.5 -72.166 -49.5 -119.499z" />
    <glyph glyph-name="plusminus" unicode="&#xb1;" horiz-adv-x="1368" 
d="M125 963h450v450h216v-450h450v-213h-450v-451h-216v451h-450v213zM125 156h1116v-215h-1116v215z" />
    <glyph glyph-name="twosuperior" unicode="&#xb2;" horiz-adv-x="788" 
d="M336 1331c-17.333 -27.333 -29.499 -52.832 -36.499 -76.499s-10.5 -50.5 -10.5 -80.5c0 -28.667 3.33301 -58.334 10 -89.001l4 -32c0 -14 -7.33301 -21 -22 -21c-34.667 0 -66.667 18 -96 54s-44 75.333 -44 118c0 66.667 26 123.334 78 170.001s115 70 189 70
c70.667 0 127.5 -17.667 170.5 -53s64.5 -82.666 64.5 -141.999c0 -33.333 -10.333 -73 -31 -119s-52.167 -98.333 -94.5 -157s-96.833 -126.334 -163.5 -203.001c32.667 -5.33301 61.334 -8 86.001 -8c50 0 114.333 8.66699 193 26
c-2.66699 -20.667 -13.834 -47 -33.501 -79s-42.834 -61.333 -69.501 -88c-23.333 -23.333 -51.5 -40.5 -84.5 -51.5s-73.5 -16.5 -121.5 -16.5c-59.333 0 -113.833 9.66699 -163.5 29s-74.5 40.333 -74.5 63c0 15.333 24 49.666 72 102.999c20.667 22 49.334 56 86.001 102
c54.667 72.667 94.167 135.5 118.5 188.5s36.5 102.167 36.5 147.5c0 34.667 -4.83301 63 -14.5 85s-25.834 42 -48.501 60z" />
    <glyph glyph-name="threesuperior" unicode="&#xb3;" horiz-adv-x="788" 
d="M299 1126c-2.66699 -1.33301 -5.99316 -2.00391 -9.99316 -2.00391c-20.667 0 -40.834 12.667 -60.501 38s-29.5 51.666 -29.5 78.999c0 36.667 12.333 70.834 37 102.501s58.167 56.667 100.5 75s88.5 27.5 138.5 27.5c70.667 0 125.5 -14 164.5 -42s58.5 -68 58.5 -120
c0 -73.333 -56.667 -139 -170 -197v-4c59.333 -1.33301 104.333 -14.166 135 -38.499s46 -59.166 46 -104.499c0 -72 -45.333 -151.333 -136 -238c-48 -46 -101.833 -82.333 -161.5 -109s-116.167 -40 -169.5 -40c-42 0 -78.333 6.83301 -109 20.5
s-54.334 33.334 -71.001 59.001s-25 55.167 -25 88.5c0 58 21 107 63 147c24 22.667 56 43.334 96 62.001s72.333 28 97 28c13.333 0 20 -5.33301 20 -16c0 -3.33301 -2.66699 -8.66602 -8 -15.999c-28.667 -32.667 -48.834 -62.834 -60.501 -90.501
s-17.5 -59.167 -17.5 -94.5c0 -51.333 12.333 -77 37 -77c9.33301 0 25.166 6.16699 47.499 18.5s41.5 25.833 57.5 40.5c26 24.667 48.167 55.834 66.5 93.501s27.5 70.5 27.5 98.5s-6.83301 49.833 -20.5 65.5s-35.5 26.834 -65.5 33.501
c-32.667 5.33301 -49 16.333 -49 33c0 11.333 10.667 26.333 32 45c34 31.333 59.667 63.5 77 96.5s26 66.167 26 99.5c0 27.333 -7.66699 41 -23 41c-12.667 0 -27.334 -7.5 -44.001 -22.5s-32.334 -35.333 -47.001 -61s-26.667 -53.834 -36 -84.501
c-6.66699 -18.667 -11.334 -30.334 -14.001 -35.001z" />
    <glyph glyph-name="acute" unicode="&#xb4;" 
d="M459 1243c30 32 64.001 77 102.001 135c18 26.667 29 42.334 33 47.001s11.333 9 22 13c28.667 10 66.667 20.667 114 32s79 17 95 17c20.667 0 31 -9 31 -27c0 -39.333 -37 -94 -111 -164c-56.667 -54.667 -112.667 -96.334 -168 -125.001s-108.333 -43 -159 -43
c-28.667 0 -43 10.333 -43 31c0 8 2.66699 15 8 21s15.666 14.667 30.999 26c6.66699 4.66699 21.667 17 45 37z" />
    <glyph glyph-name="mu" unicode="&#xb5;" horiz-adv-x="1251" 
d="M272 1061h285.005l-100 -492l-17 -63c-10.667 -50 -16 -94.333 -16 -133c0 -52 15.667 -95.5 47 -130.5s69.666 -52.5 114.999 -52.5c37.333 0 73 11 107 33s59.667 50.667 77 86c23.333 43.333 43.666 109 60.999 197l119 555h283l-223 -1061h-256l20 94l-4 4
c-42.667 -48 -79.334 -80.5 -110.001 -97.5s-66.334 -25.5 -107.001 -25.5c-64 0 -115.333 24.667 -154 74c-6.66699 8 -20.334 29.333 -41.001 64l-110 -525h-287z" />
    <glyph glyph-name="paragraph" unicode="&#xb6;" horiz-adv-x="1102" 
d="M401 -408v1045c-62.667 4 -118.667 16.167 -168 36.5s-91.833 48.666 -127.5 84.999s-62.834 79.333 -81.501 129s-28 104.167 -28 163.5c0 82 19.5 155.833 58.5 221.5s93.167 114.5 162.5 146.5c38.667 18 74.834 30.333 108.501 37s81.5 10 143.5 10h633v-174h-144
v-1700h-170v1700h-223v-1700h-164z" />
    <glyph glyph-name="periodcentered" unicode="&#xb7;" horiz-adv-x="1024" 
d="M545 856c45.333 0 83.668 -15.668 115.001 -47.001s47 -69.666 47 -114.999c0 -44.667 -15.833 -83.167 -47.5 -115.5s-69.834 -48.5 -114.501 -48.5c-44 0 -82.333 16.333 -115 49s-49 71 -49 115c0 46 15.833 84.5 47.5 115.5s70.5 46.5 116.5 46.5z" />
    <glyph glyph-name="periodcentered" unicode="&#x2219;" horiz-adv-x="1024" 
d="M545 856c45.333 0 83.668 -15.668 115.001 -47.001s47 -69.666 47 -114.999c0 -44.667 -15.833 -83.167 -47.5 -115.5s-69.834 -48.5 -114.501 -48.5c-44 0 -82.333 16.333 -115 49s-49 71 -49 115c0 46 15.833 84.5 47.5 115.5s70.5 46.5 116.5 46.5z" />
    <glyph glyph-name="cedilla" unicode="&#xb8;" 
d="M119 -117c-58.667 0 -88.001 9.6709 -88.001 29.0039c0 15.333 6.66699 30.666 20 45.999s31 27.5 53 36.5s44.667 13.5 68 13.5c37.333 0 68.166 -11.5 92.499 -34.5s36.5 -53.167 36.5 -90.5c0 -26.667 -11.167 -54.334 -33.5 -83.001s-51.166 -52.334 -86.499 -71.001
s-69.666 -28 -102.999 -28c-19.333 0 -36.5 4.5 -51.5 13.5s-22.5 18.833 -22.5 29.5c0 7.33301 7 12.666 21 15.999c58.667 18.667 90 59.667 94 123z" />
    <glyph glyph-name="onesuperior" unicode="&#xb9;" horiz-adv-x="788" 
d="M207 752l171.998 464.997c-3.33301 -1.33301 -7.66602 -3.16602 -12.999 -5.49902s-10.666 -4.83301 -15.999 -7.5c-32.667 -12 -50.334 -18 -53.001 -18c-24.667 0 -37 14.333 -37 43c0 29.333 9.66699 53 29 71c9.33301 8.66699 44 27.334 104 56.001l24 10.5l17 7.5
l15 6l16 9c4 2.66699 7 4.33398 9 5.00098s4.33301 1.66699 7 3c60.667 31.333 100.334 47 119.001 47c14.667 0 26.5 -5.33301 35.5 -16s13.5 -24.667 13.5 -42c0 -12.667 -14.333 -59.667 -43 -141c-13.333 -33.333 -28.333 -77 -45 -131l-121 -397l-2 -6
c-8 -29.333 -15.333 -51 -22 -65s-16.334 -27.333 -29.001 -40c-16.667 -15.333 -38.5 -28 -65.5 -38s-50.167 -15 -69.5 -15c-21.333 0 -40.666 7.66699 -57.999 23s-26 32.333 -26 51c0 24 9 56 27 96c3.33301 8.66699 5.83301 14.667 7.5 18s3.16699 7 4.5 11z" />
    <glyph glyph-name="ordmasculine" unicode="&#xba;" horiz-adv-x="725" 
d="M555 1214c19.333 21.333 44.499 39.333 75.499 54s58.5 22 82.5 22c26 0 50.333 -9 73 -27s40.334 -42.833 53.001 -74.5s19 -66.834 19 -105.501c0 -64 -17 -123.833 -51 -179.5s-79.667 -99.667 -137 -132s-119 -48.5 -185 -48.5c-45.333 0 -89.833 7.66699 -133.5 23
s-77.5 34.333 -101.5 57c-38 34 -57 84.333 -57 151c0 68.667 21.167 135.5 63.5 200.5s97.5 117.833 165.5 158.5s138.333 61 211 61c58.667 0 88 -8 88 -24c0 -13.333 -15.667 -21.666 -47 -24.999c-34 -4 -61 -10.667 -81 -20s-41 -24.333 -63 -45
c-72 -79.333 -108 -168.333 -108 -267c0 -46.667 11 -84.167 33 -112.5s50.667 -42.5 86 -42.5c34 0 63.333 16.333 88 49s37 71.667 37 117c0 84.667 -37 154.667 -111 210z" />
    <glyph glyph-name="guillemotright" unicode="&#xbb;" horiz-adv-x="662" 
d="M338 692l0.000976562 1.99902c0 8 3.5 16.167 10.5 24.5s14.5 12.5 22.5 12.5c24 0 69 -34.667 135 -104c84.667 -86.667 127 -147.667 127 -183c0 -5.33301 -4.83301 -14.666 -14.5 -27.999s-19.834 -24.333 -30.501 -33c-36.667 -33.333 -80.667 -67.333 -132 -102
s-101.666 -65 -150.999 -91c-8 -2.66699 -13.333 -4 -16 -4c-9.33301 0 -17.833 3.83301 -25.5 11.5s-11.5 14.834 -11.5 21.501c0 13.333 13 33.666 39 60.999s58 54 96 80c30 22 56 44.333 78 67s33 38 33 46s-11.833 27.833 -35.5 59.5s-50.834 64.5 -81.501 98.5
c-28.667 30.667 -43 51 -43 61zM238.001 486.999c-20 31.333 -51.665 67.667 -94.998 109c-34 32 -51 54 -51 66c0 8.66699 3.16699 15.834 9.5 21.501s14.166 8.5 23.499 8.5c34.667 0 75 -23 121 -69c27.333 -27.333 50.166 -54.5 68.499 -81.5s27.5 -47.167 27.5 -60.5
c0 -12.667 -9.5 -32.334 -28.5 -59.001s-43.333 -54.167 -73 -82.5s-62.167 -54.833 -97.5 -79.5c-26 -19.333 -46.333 -29 -61 -29c-22 0 -33 16 -33 48c0 19.333 8.33301 38.333 25 57c24.667 28 43 47.5 55 58.5s48.333 41.833 109 92.5z" />
    <glyph glyph-name="onequarter" unicode="&#xbc;" horiz-adv-x="1536" 
d="M86 766l12.001 37.0029c4 11.333 10.5 27.666 19.5 48.999s17.5 43.333 25.5 66c34 86 60.667 157.667 80 215c9.33301 26 17.666 53 24.999 81c-12.667 -2.66699 -29 -8 -49 -16c-16.667 -8 -27.667 -12 -33 -12c-7.33301 0 -14 4.16699 -20 12.5s-9 18.5 -9 30.5
c0 28 9.66699 51 29 69c12 12.667 53.667 36 125 70c5.33301 2.66699 9.66602 4.5 12.999 5.5s5.66602 1.83301 6.99902 2.5l19 10l24 11c64 30 103 45 117 45c10.667 0 20.5 -5.66699 29.5 -17s13.5 -24.333 13.5 -39c0 -28 -19.667 -93.333 -59 -196
c-18 -48.667 -33.667 -97.334 -47 -146.001l-46 -161c-0.666992 -1.33301 -1.16699 -2.83301 -1.5 -4.5s-1 -4.5 -2 -8.5l-2.5 -10c-31.333 -142.667 -66.666 -226.667 -105.999 -252c-37.333 -23.333 -77.666 -35 -120.999 -35c-23.333 0 -42.5 6.66699 -57.5 20
s-22.5 30.666 -22.5 51.999c0 18 12.333 58.333 37 121zM1034 907.003l-25.999 -36.999l-116 -158.5l-152 -200.5l-167.5 -217l-126.5 -157c-54 -66 -96.333 -114.333 -127 -145c-46 -48 -87.333 -72 -124 -72c-19.333 0 -35.833 6.5 -49.5 19.5s-20.5 27.833 -20.5 44.5
c0 26 32.5 95 97.5 207s149.833 245 254.5 399l420 624c46 68.667 94 123.5 144 164.5s92 61.5 126 61.5c18 0 34.667 -5.66699 50 -17s27.666 -26.333 36.999 -45s14 -38.334 14 -59.001c0 -30 -11.5 -67 -34.5 -111s-66.167 -111.333 -129.5 -202l-35 -48z
M907.002 287.004l6.00293 16.001c45.333 127.333 82.333 214.666 111 261.999c9.33301 14 18.333 26.333 27 37c20.667 18 47.5 33.5 80.5 46.5s64.167 19.5 93.5 19.5c12.667 0 22.667 -2.66699 30 -8s11 -12.333 11 -21c0 -17.333 -30.667 -69.333 -92 -156
c-60.667 -82.667 -106 -155 -136 -217h54c27.333 0 59.333 2 96 6l4 13c21.333 53.333 41 88 59 104c12.667 12.667 32.667 23.667 60 33s54.666 14 81.999 14c40.667 0 61 -9.33301 61 -28c0 -16.667 -9 -49 -27 -97c-2 -4.66699 -3.83301 -9.16699 -5.5 -13.5
s-3.83398 -9.16602 -6.50098 -14.499l-4 -11h2h12h15c17.333 0 26 -4.66699 26 -14c0 -11.333 -5.33301 -24.333 -16 -39c-30 -44 -59.333 -74 -88 -90c-12.667 -32.667 -21.667 -61.334 -27 -86.001c-4 -13.333 -10 -35.333 -18 -66
c-9.33301 -38.667 -19 -84.334 -29 -137.001c-79.333 -46 -140 -69 -182 -69c-44 0 -66 19 -66 57c0 27.333 22 95.666 66 204.999l22 57l7 19l-25 -3c-44.667 -4 -86.334 -6 -125.001 -6c-48.667 0 -80.667 3 -96 9s-23 18 -23 36c0 18.667 11.667 60.334 35 125.001
c2.66699 4.66699 4.66699 10.334 6 17.001z" />
    <glyph glyph-name="onehalf" unicode="&#xbd;" horiz-adv-x="1536" 
d="M86 766l12.001 37.0029c4 11.333 10.5 27.666 19.5 48.999s17.5 43.333 25.5 66c37.333 94 64 165.667 80 215c12 35.333 20.333 62.333 25 81c-12.667 -2.66699 -29 -8 -49 -16c-16.667 -8 -27.667 -12 -33 -12c-7.33301 0 -14 4.16699 -20 12.5s-9 18.5 -9 30.5
c0 28 9.66699 51 29 69c12 12.667 53.667 36 125 70c5.33301 2.66699 9.66602 4.5 12.999 5.5s5.66602 1.83301 6.99902 2.5l19 10l24 11c64 30 103 45 117 45c10.667 0 20.5 -5.66699 29.5 -17s13.5 -24.333 13.5 -39c0 -28 -19.667 -93.333 -59 -196
c-18 -48.667 -33.667 -97.334 -47 -146.001l-46 -161c-0.666992 -1.33301 -1.16699 -2.83301 -1.5 -4.5s-1 -4.5 -2 -8.5l-2.5 -10c-14.667 -68.667 -31 -124.5 -49 -167.5s-37 -71.167 -57 -84.5c-37.333 -23.333 -77.666 -35 -120.999 -35
c-23.333 0 -42.5 6.66699 -57.5 20s-22.5 30.666 -22.5 51.999c0 18 12.333 58.333 37 121zM1034 907.003l-26 -36.999l-116 -158.5l-152 -200.5l-167.5 -217l-126.5 -157c-54 -66 -96.333 -114.333 -127 -145c-46 -48 -87.333 -72 -124 -72
c-19.333 0 -35.833 6.5 -49.5 19.5s-20.5 27.833 -20.5 44.5c0 16 14.333 51.667 43 107s70.334 127 125.001 215l184 284l420 624c46 68.667 94 123.5 144 164.5s92 61.5 126 61.5c18 0 34.667 -5.66699 50 -17s27.666 -26.333 36.999 -45s14 -38.334 14 -59.001
c0 -30 -11.5 -67 -34.5 -111s-66.167 -111.333 -129.5 -202l-35 -48zM1040 43.0039l25.001 29.002c53.333 68 92.333 129.333 117 184s37 108 37 160c0 32 -4.5 57.667 -13.5 77s-25.833 38 -50.5 56c-32.667 -44.667 -49 -97.334 -49 -158.001
c0 -27.333 2.66699 -57.333 8 -90c2.66699 -10.667 4 -21 4 -31c0 -12 -6 -18 -18 -18c-36 0 -68.167 18 -96.5 54s-42.5 76 -42.5 120c0 42 12.333 81.333 37 118s57.5 66.167 98.5 88.5s84.5 33.5 130.5 33.5s86.833 -8.33301 122.5 -25s63.334 -39.667 83.001 -69
s29.5 -63 29.5 -101c0 -34 -9.16699 -72.167 -27.5 -114.5s-46.833 -91 -85.5 -146s-87.667 -116.167 -147 -183.5l-33 -39c35.333 -4 60.666 -6 75.999 -6c53.333 0 123 9.33301 209 28c-2.66699 -20.667 -14.334 -47.5 -35.001 -80.5s-43.667 -62.167 -69 -87.5
c-25.333 -23.333 -54 -40.333 -86 -51s-71.667 -16 -119 -16c-38.667 0 -76.5 4.5 -113.5 13.5s-67.333 20.833 -91 35.5s-35.5 29 -35.5 43c0 13.333 24 46.666 72 99.999c35.333 40.667 56.333 66 63 76z" />
    <glyph glyph-name="threequarters" unicode="&#xbe;" horiz-adv-x="1749" 
d="M317 915l-16.0029 -18.002c-40.667 -44.667 -61 -100.667 -61 -168c0 -50.667 11.333 -76 34 -76c10 0 26.167 6.33301 48.5 19s41.833 26.334 58.5 41.001c25.333 24.667 47.333 56.167 66 94.5s28 70.833 28 97.5c0 52.667 -28.667 84.667 -86 96
c-34 8.66699 -51 20.334 -51 35.001c0 11.333 11.667 26.333 35 45c30.667 28.667 55.334 60.834 74.001 96.501s28 69.167 28 100.5c0 27.333 -8 41 -24 41c-19.333 0 -41.666 -17.167 -66.999 -51.5s-44.666 -73.166 -57.999 -116.499
c-4.66699 -16 -8.66699 -26.5 -12 -31.5s-7.66602 -7.5 -12.999 -7.5c-20 0 -40 13 -60 39s-30 52.667 -30 80c0 35.333 12.167 69 36.5 101s57.666 57.333 99.999 76s88.166 28 137.499 28c72.667 0 128.5 -14.167 167.5 -42.5s58.5 -68.833 58.5 -121.5
c0 -71.333 -56.667 -136.333 -170 -195v-4c58.667 -1.33301 103.334 -14.333 134.001 -39s46 -59.334 46 -104.001c0 -34 -12 -72.5 -36 -115.5s-57 -83.833 -99 -122.5c-48 -46 -102 -82.333 -162 -109s-116.667 -40 -170 -40c-41.333 0 -77.5 6.66699 -108.5 20
s-54.833 32.833 -71.5 58.5s-25 55.5 -25 89.5c0 57.333 21.333 106.333 64 147c23.333 23.333 54.833 44.166 94.5 62.499s71.5 27.5 95.5 27.5c15.333 0 23 -5.33301 23 -16c0 -5.33301 -3 -11 -9 -17zM1257 908.998l-26 -37.001l-131.5 -179l-135.5 -180.5l-162.5 -210.5
l-129.5 -163c-37.333 -45.333 -80.333 -93.666 -129 -144.999c-44.667 -46.667 -86.334 -70 -125.001 -70c-19.333 0 -35.833 6.33301 -49.5 19s-20.5 27.667 -20.5 45c0 25.333 33.333 95.166 100 209.499s150.667 246.5 252 396.5l422 623c43.333 66 90.333 120 141 162
s93.334 63 128.001 63c27.333 0 50.833 -12.167 70.5 -36.5s29.5 -52.5 29.5 -84.5c0 -30 -11.333 -66.667 -34 -110s-66 -110.333 -130 -201c-15.333 -23.333 -27 -39.666 -35 -48.999zM1354 108.997l-25.002 -2.99414c-60 -2.66699 -101.667 -4 -125 -4
c-48.667 0 -80.667 3 -96 9s-23 18 -23 36c0 22.667 11.667 64.334 35 125.001l99 248c18 37.333 35.167 64.5 51.5 81.5s39.166 31.5 68.499 43.5c40.667 15.333 75.667 23 105 23c27.333 0 41 -9 41 -27c0 -17.333 -30.667 -69.333 -92 -156
c-63.333 -88.667 -108.666 -161 -135.999 -217h52c40.667 0 73.334 1.33301 98.001 4l4 13c22.667 55.333 42.334 90.666 59.001 105.999c13.333 13.333 33 24.166 59 32.499s53.667 12.5 83 12.5c40.667 0 61 -9.33301 61 -28c0 -14.667 -8.66699 -46.334 -26 -95.001
c-2 -3.33301 -6.33301 -13.333 -13 -30l-4 -11h2c4 0 8.33301 0.666992 13 2h14c18 0 27 -4.66699 27 -14c0 -8.66699 -5.66699 -21.667 -17 -39c-30 -44 -59.333 -74 -88 -90c-10 -26.667 -19 -55.334 -27 -86.001c-2 -6.66699 -8 -28.334 -18 -65.001
c-2 -10.667 -5.16699 -25.334 -9.5 -44.001s-7.5 -33.334 -9.5 -44.001l-10 -52c-80 -44.667 -140.667 -67 -182 -67c-43.333 0 -65 18.333 -65 55c0 28 21.667 97 65 207c10 26.667 17.667 45.667 23 57z" />
    <glyph glyph-name="questiondown" unicode="&#xbf;" horiz-adv-x="831" 
d="M328 381c-20.667 1.33301 -42.6699 1.99805 -66.0029 1.99805c-36 0 -68.667 -1.33301 -98 -4c-9.33301 -1.33301 -23 -2 -41 -2s-30 1.5 -36 4.5s-9 8.16699 -9 15.5c0 15.333 7.66699 36 23 62s31.666 47.667 48.999 65c74 76.667 200.667 115 380 115
c127.333 0 191 -24 191 -72c0 -17.333 -25.333 -56.666 -76 -117.999c-22 -27.333 -52.667 -69 -92 -125c-101.333 -152.667 -152 -286.667 -152 -402c0 -80.667 31.667 -129.667 95 -147c16 16 28.5 30.167 37.5 42.5s17.5 27.5 25.5 45.5
c16.667 36 30.334 75.333 41.001 118s16 81.667 16 117c0 37.333 -4.66699 71.666 -14 102.999c-4 10 -6 18 -6 24c0 8.66699 6.66699 13 20 13c12.667 0 32 -8.33301 58 -25c82 -54.667 123 -137.334 123 -248.001c0 -49.333 -7.66699 -95.166 -23 -137.499
s-36.333 -76.166 -63 -101.499c-31.333 -29.333 -70.166 -52.5 -116.499 -69.5s-94.166 -25.5 -143.499 -25.5c-61.333 0 -122.333 11.5 -183 34.5s-111.667 53.833 -153 92.5c-48 46 -72 107 -72 183c0 51.333 14.333 106.333 43 165s68.334 113.334 119.001 164.001
c32.667 32.667 73.667 69.667 123 111zM460.997 679.998c-56 2 -84 23.002 -84 63.002c0 16.667 3.33301 39.167 10 67.5s15.667 57.166 27 86.499c5.33301 14 12 26.333 20 37c13.333 13.333 40.5 28.333 81.5 45s80.167 29 117.5 37c16 2.66699 26.333 4 31 4
c27.333 0 49.5 -9.33301 66.5 -28s25.5 -42 25.5 -70c0 -42.667 -18 -91.334 -54 -146.001c-17.333 -27.333 -44.333 -49 -81 -65c-52 -20.667 -104.667 -31 -158 -31h-2z" />
    <glyph glyph-name="Agrave" unicode="&#xc0;" horiz-adv-x="1493" 
d="M821 956l-184 -389h272l-84 389h-4zM735 1219l-61 109.999c15.333 12 29.666 20.333 42.999 25c51.333 17.333 113.333 26 186 26c73.333 0 130 -21 170 -63c34.667 -36.667 63 -88 85 -154s42.333 -160 61 -282c10 -62 18.667 -108.667 26 -140
c23.333 -87.333 38.833 -143.166 46.5 -167.499s21.5 -63.166 41.5 -116.499c6.66699 -15.333 15.5 -36.833 26.5 -64.5l31.5 -77.5c22 -52 55.333 -120.667 100 -206c-56 -39.333 -103.333 -67.666 -142 -84.999s-74 -26 -106 -26c-39.333 0 -72.166 7.66699 -98.499 23
s-50.166 39.666 -71.499 72.999c-25.333 45.333 -50.666 107 -75.999 185c-2.66699 7.33301 -5.83398 16.666 -9.50098 27.999l-12.5 37c-78 -32.667 -138.667 -49 -182 -49c-24.667 0 -46 0.666992 -64 2c-15.333 1.33301 -86.333 3.33301 -213 6l-10 -20
c-37.333 -78 -72 -137.333 -104 -178s-68.833 -69.334 -110.5 -86.001s-93.834 -25 -156.501 -25c-36 0 -61.667 4 -77 12s-23 21 -23 39c0 22 36.667 82.667 110 182c26 34.667 45.333 62 58 82c-70 13.333 -105 38 -105 74c0 29.333 28 73 84 131
c26.667 28 51.5 45.833 74.5 53.5s63.167 11.834 120.5 12.501l102 187.5l57 102l79.5 140zM909 1779c12.667 0 23.998 -4.83203 33.998 -14.499s21.667 -27.5 35 -53.5c28 -55.333 65.667 -105.666 113 -150.999c6 -6 11.667 -11.333 17 -16s11.333 -10.334 18 -17.001
c14 -10.667 24 -20 30 -28s9 -17.333 9 -28c0 -30 -24.667 -45 -74 -45c-111.333 0 -207.666 39.667 -288.999 119c-22 22 -39 42.5 -51 61.5s-18 34.167 -18 45.5c0 7.33301 9.33301 19.666 28 36.999s41.334 35 68.001 53c37.333 24.667 64 37 80 37z" />
    <glyph glyph-name="Aacute" unicode="&#xc1;" horiz-adv-x="1493" 
d="M821 956l-184 -389h272l-84 389h-4zM735 1219l-61 109.999c15.333 12 29.666 20.333 42.999 25c51.333 17.333 113.333 26 186 26c73.333 0 130 -21 170 -63c34.667 -36.667 63 -88 85 -154s42.333 -160 61 -282c10 -62 18.667 -108.667 26 -140
c23.333 -87.333 38.833 -143.166 46.5 -167.499s21.5 -63.166 41.5 -116.499c6.66699 -15.333 15.5 -36.833 26.5 -64.5l31.5 -77.5c22 -52 55.333 -120.667 100 -206c-56 -39.333 -103.333 -67.666 -142 -84.999s-74 -26 -106 -26c-39.333 0 -72.166 7.66699 -98.499 23
s-50.166 39.666 -71.499 72.999c-25.333 45.333 -50.666 107 -75.999 185c-2.66699 7.33301 -5.83398 16.666 -9.50098 27.999l-12.5 37c-78 -32.667 -138.667 -49 -182 -49c-24.667 0 -46 0.666992 -64 2c-15.333 1.33301 -86.333 3.33301 -213 6l-10 -20
c-37.333 -78 -72 -137.333 -104 -178s-68.833 -69.334 -110.5 -86.001s-93.834 -25 -156.501 -25c-36 0 -61.667 4 -77 12s-23 21 -23 39c0 22 36.667 82.667 110 182c26 34.667 45.333 62 58 82c-70 13.333 -105 38 -105 74c0 29.333 28 73 84 131
c26.667 28 51.5 45.833 74.5 53.5s63.167 11.834 120.5 12.501l102 187.5l57 102l79.5 140zM910 1542c30 32 64.001 77 102.001 135c18 26.667 29 42.334 33 47.001s11.333 9 22 13c28.667 10 66.667 20.667 114 32s79 17 95 17c20.667 0 31 -9 31 -27
c0 -39.333 -37 -94 -111 -164c-56.667 -54.667 -112.667 -96.334 -168 -125.001s-108.333 -43 -159 -43c-28.667 0 -43 10.333 -43 31c0 8 2.66699 15 8 21s15.666 14.667 30.999 26c6.66699 4.66699 21.667 17 45 37z" />
    <glyph glyph-name="Acircumflex" unicode="&#xc2;" horiz-adv-x="1493" 
d="M821 956l-184 -389h272l-84 389h-4zM735 1219l-61 109.999c15.333 12 29.666 20.333 42.999 25c51.333 17.333 113.333 26 186 26c73.333 0 130 -21 170 -63c34.667 -36.667 63 -88 85 -154s42.333 -160 61 -282c10 -62 18.667 -108.667 26 -140
c23.333 -87.333 38.833 -143.166 46.5 -167.499s21.5 -63.166 41.5 -116.499c6.66699 -15.333 15.5 -36.833 26.5 -64.5l31.5 -77.5c22 -52 55.333 -120.667 100 -206c-56 -39.333 -103.333 -67.666 -142 -84.999s-74 -26 -106 -26c-39.333 0 -72.166 7.66699 -98.499 23
s-50.166 39.666 -71.499 72.999c-25.333 45.333 -50.666 107 -75.999 185c-2.66699 7.33301 -5.83398 16.666 -9.50098 27.999l-12.5 37c-78 -32.667 -138.667 -49 -182 -49c-24.667 0 -46 0.666992 -64 2c-15.333 1.33301 -86.333 3.33301 -213 6l-10 -20
c-37.333 -78 -72 -137.333 -104 -178s-68.833 -69.334 -110.5 -86.001s-93.834 -25 -156.501 -25c-36 0 -61.667 4 -77 12s-23 21 -23 39c0 22 36.667 82.667 110 182c26 34.667 45.333 62 58 82c-70 13.333 -105 38 -105 74c0 29.333 28 73 84 131
c26.667 28 51.5 45.833 74.5 53.5s63.167 11.834 120.5 12.501l102 187.5l57 102l79.5 140zM961 1565l-18.001 -12.9961c-69.333 -42 -122.666 -63 -159.999 -63c-45.333 0 -68 17 -68 51c0 23.333 16.167 45.666 48.5 66.999s89.833 46.666 172.5 75.999
c81.333 30.667 130 46 146 46c18 0 38.333 -13 61 -39c13.333 -14.667 36 -37.334 68 -68.001c26 -24.667 43.667 -41 53 -49c28.667 -24.667 43 -41 43 -49c0 -16.667 -14.167 -31.834 -42.5 -45.501s-59.833 -20.5 -94.5 -20.5c-36.667 0 -70.5 8 -101.5 24
s-66.833 43.667 -107.5 83z" />
    <glyph glyph-name="Atilde" unicode="&#xc3;" horiz-adv-x="1493" 
d="M821 956l-184 -389h272l-84 389h-4zM735 1219l-61 109.999c15.333 12 29.666 20.333 42.999 25c51.333 17.333 113.333 26 186 26c73.333 0 130 -21 170 -63c34.667 -36.667 63 -88 85 -154s42.333 -160 61 -282c10 -62 18.667 -108.667 26 -140
c23.333 -87.333 38.833 -143.166 46.5 -167.499s21.5 -63.166 41.5 -116.499c6.66699 -15.333 15.5 -36.833 26.5 -64.5l31.5 -77.5c22 -52 55.333 -120.667 100 -206c-56 -39.333 -103.333 -67.666 -142 -84.999s-74 -26 -106 -26c-39.333 0 -72.166 7.66699 -98.499 23
s-50.166 39.666 -71.499 72.999c-25.333 45.333 -50.666 107 -75.999 185c-2.66699 7.33301 -5.83398 16.666 -9.50098 27.999l-12.5 37c-78 -32.667 -138.667 -49 -182 -49c-24.667 0 -46 0.666992 -64 2c-15.333 1.33301 -86.333 3.33301 -213 6l-10 -20
c-37.333 -78 -72 -137.333 -104 -178s-68.833 -69.334 -110.5 -86.001s-93.834 -25 -156.501 -25c-36 0 -61.667 4 -77 12s-23 21 -23 39c0 22 36.667 82.667 110 182c26 34.667 45.333 62 58 82c-70 13.333 -105 38 -105 74c0 29.333 28 73 84 131
c26.667 28 51.5 45.833 74.5 53.5s63.167 11.834 120.5 12.501l102 187.5l57 102l79.5 140zM753 1540c-34 0 -50.998 11 -50.998 33c0 29.333 39 59.333 117 90c69.333 26 122.666 39 159.999 39c23.333 0 45.666 -4 66.999 -12s44 -21 68 -39c33.333 -24.667 60 -37 80 -37
c20.667 0 41.667 3.33301 63 10c20 2.66699 29.667 4 29 4c8 0 14.833 -2.5 20.5 -7.5s8.5 -12.167 8.5 -21.5c0 -14 -14.333 -31 -43 -51c-68.667 -43.333 -128.334 -65 -179.001 -65c-43.333 0 -90.333 18.333 -141 55c-30.667 22 -54.667 33 -72 33
c-11.333 0 -30.333 -5 -57 -15c-29.333 -10.667 -52.666 -16 -69.999 -16z" />
    <glyph glyph-name="Adieresis" unicode="&#xc4;" horiz-adv-x="1493" 
d="M821 956l-184 -389h272l-84 389h-4zM735 1219l-61 109.999c15.333 12 29.666 20.333 42.999 25c51.333 17.333 113.333 26 186 26c73.333 0 130 -21 170 -63c34.667 -36.667 63 -88 85 -154s42.333 -160 61 -282c10 -62 18.667 -108.667 26 -140
c23.333 -87.333 38.833 -143.166 46.5 -167.499s21.5 -63.166 41.5 -116.499c6.66699 -15.333 15.5 -36.833 26.5 -64.5l31.5 -77.5c22 -52 55.333 -120.667 100 -206c-56 -39.333 -103.333 -67.666 -142 -84.999s-74 -26 -106 -26c-39.333 0 -72.166 7.66699 -98.499 23
s-50.166 39.666 -71.499 72.999c-25.333 45.333 -50.666 107 -75.999 185c-2.66699 7.33301 -5.83398 16.666 -9.50098 27.999l-12.5 37c-78 -32.667 -138.667 -49 -182 -49c-24.667 0 -46 0.666992 -64 2c-15.333 1.33301 -86.333 3.33301 -213 6l-10 -20
c-37.333 -78 -72 -137.333 -104 -178s-68.833 -69.334 -110.5 -86.001s-93.834 -25 -156.501 -25c-36 0 -61.667 4 -77 12s-23 21 -23 39c0 22 36.667 82.667 110 182c26 34.667 45.333 62 58 82c-70 13.333 -105 38 -105 74c0 29.333 28 73 84 131
c26.667 28 51.5 45.833 74.5 53.5s63.167 11.834 120.5 12.501l102 187.5l57 102l79.5 140zM758 1468c-25.333 0 -45.668 5.66602 -61.001 16.999s-23 26.333 -23 45c0 21.333 8.33301 52 25 92c18.667 42.667 35 70 49 82c14.667 14 40.334 26 77.001 36
s74.334 15 113.001 15c44 0 66 -19.667 66 -59c0 -57.333 -25.333 -109.666 -76 -156.999s-107.334 -71 -170.001 -71zM1151 1425c-81.333 0 -121.999 30.999 -121.999 92.999c0 26 5.33301 52.833 16 80.5s23.667 49.167 39 64.5c25.333 26 75 39 149 39
c63.333 0 95 -17.667 95 -53c0 -14 -5.33301 -33.833 -16 -59.5s-23.334 -51.167 -38.001 -76.5s-29.667 -45.666 -45 -60.999c-16 -18 -42 -27 -78 -27z" />
    <glyph glyph-name="Aring" unicode="&#xc5;" horiz-adv-x="1493" 
d="M821 956l-184 -389h272l-84 389h-4zM735 1219l-61 109.999c15.333 12 29.666 20.333 42.999 25c51.333 17.333 113.333 26 186 26c73.333 0 130 -21 170 -63c34.667 -36.667 63 -88 85 -154s42.333 -160 61 -282c10 -62 18.667 -108.667 26 -140
c23.333 -87.333 38.833 -143.166 46.5 -167.499s21.5 -63.166 41.5 -116.499c6.66699 -15.333 15.5 -36.833 26.5 -64.5l31.5 -77.5c22 -52 55.333 -120.667 100 -206c-56 -39.333 -103.333 -67.666 -142 -84.999s-74 -26 -106 -26c-39.333 0 -72.166 7.66699 -98.499 23
s-50.166 39.666 -71.499 72.999c-25.333 45.333 -50.666 107 -75.999 185c-2.66699 7.33301 -5.83398 16.666 -9.50098 27.999l-12.5 37c-78 -32.667 -138.667 -49 -182 -49c-24.667 0 -46 0.666992 -64 2c-15.333 1.33301 -86.333 3.33301 -213 6l-10 -20
c-37.333 -78 -72 -137.333 -104 -178s-68.833 -69.334 -110.5 -86.001s-93.834 -25 -156.501 -25c-36 0 -61.667 4 -77 12s-23 21 -23 39c0 22 36.667 82.667 110 182c26 34.667 45.333 62 58 82c-70 13.333 -105 38 -105 74c0 29.333 28 73 84 131
c26.667 28 51.5 45.833 74.5 53.5s63.167 11.834 120.5 12.501l102 187.5l57 102l79.5 140zM936 1737c43.333 43.333 84.998 65 124.998 65c28.667 0 54.834 -7.5 78.501 -22.5s42.5 -36 56.5 -63s21 -55.167 21 -84.5c0 -58.667 -23.5 -108.5 -70.5 -149.5
s-103.5 -61.5 -169.5 -61.5c-62 0 -110.833 13.5 -146.5 40.5s-53.5 64.167 -53.5 111.5c0 44.667 14.833 82.5 44.5 113.5s67.834 47.833 114.501 50.5zM1029 1516c18 0 34.667 7.66797 50 23.001s23 32.666 23 51.999c0 27.333 -11.167 48.5 -33.5 63.5
s-52.833 22.5 -91.5 22.5c-36.667 0 -55 -9.33301 -55 -28c0 -26.667 4.66699 -54 14 -82c3.33301 -9.33301 11 -17 23 -23c28 -18.667 51.333 -28 70 -28z" />
    <glyph glyph-name="AE" unicode="&#xc6;" horiz-adv-x="2068" 
d="M834 956l-27 -49l-37.5 -72l-48 -93.5l-42 -84l-28.5 -57.5l-22 -47h291l-11 49c-26 135.333 -47.667 237 -65 305zM203 305l8.00098 12.0029c-33.333 14.667 -55 27 -65 37s-15 23.667 -15 41c0 28 9.16699 54.667 27.5 80s42.5 44.333 72.5 57
c28.667 14.667 75.334 23 140.001 25l366 668c-19.333 31.333 -41 51.666 -65 60.999c-12.667 6.66699 -19 13.667 -19 21c0 4 2 8 6 12c26.667 20.667 73.334 37 140.001 49c21.333 5.33301 41 8 59 8c58.667 0 110.667 -15.667 156 -47
c29.333 -19.333 57.333 -52.666 84 -99.999c27.333 -44.667 51 -95.334 71 -152.001c0.666992 -3.33301 2.66699 -9.83301 6 -19.5s6.33301 -19.5 9 -29.5c42 65.333 97.833 125.5 167.5 180.5s143.667 98.333 222 130s153.166 47.5 224.499 47.5
c72.667 0 132.834 -20.667 180.501 -62s71.5 -93.666 71.5 -156.999c0 -67.333 -19.333 -133 -58 -197s-89.334 -116 -152.001 -156s-126.334 -60 -191.001 -60c-33.333 0 -50 9.33301 -50 28c0 24.667 18.667 61 56 109c29.333 36.667 56 76.334 80 119.001
c2 4 5.33301 10.167 10 18.5s8.66699 15.166 12 20.499c27.333 58 41 102.333 41 133c0 21.333 -5.33301 32 -16 32c-31.333 0 -87.333 -26.333 -168 -79c-84 -55.333 -150.333 -120.333 -199 -195c-44 -67.333 -69.333 -128 -76 -182c0 -7.33301 -0.166992 -14 -0.5 -20
s-0.833008 -13 -1.5 -21c113.333 -6.66699 185.5 -10.834 216.5 -12.501s70.833 -2.5 119.5 -2.5c16 0 64 1.66699 144 5c16 1.33301 28.667 2 38 2c76.667 0 115 -13.667 115 -41c0 -16 -11.167 -41.333 -33.5 -76s-46.5 -64.667 -72.5 -90
c-22 -21.333 -42.833 -34.833 -62.5 -40.5s-52.167 -8.5 -97.5 -8.5h-70.5c-21.667 0 -59.667 0.166992 -114 0.5s-97.833 0.833008 -130.5 1.5h-43c10 -157.333 74 -236 192 -236c32.667 0 72.167 8 118.5 24s95.5 38 147.5 66c24 12.667 49.333 28.334 76 47.001
c50 31.333 81.333 47 94 47c24.667 0 37 -13.667 37 -41c0 -24.667 -8.16699 -55.834 -24.5 -93.501s-33.5 -64.5 -51.5 -80.5c-34 -31.333 -88 -64.5 -162 -99.5s-150.833 -63.667 -230.5 -86s-146.167 -33.5 -199.5 -33.5c-95.333 0 -181.333 40.333 -258 121
c-28.667 32.667 -51 67 -67 103s-31.667 88.333 -47 157l-4 12l-2 15c-26.667 -26.667 -50.667 -46 -72 -58c-8 -4 -21 -6 -39 -6l-41 -2c-52.667 -2.66699 -104 -3.33398 -154 -2.00098h-57c-36.667 0 -66.667 -0.666992 -90 -2
c-5.33301 -8.66699 -14.333 -24.334 -27 -47.001c-72.667 -129.333 -127 -207 -163 -233c-41.333 -28.667 -97.333 -43 -168 -43c-30.667 0 -55.834 7.5 -75.501 22.5s-29.5 33.833 -29.5 56.5c0 15.333 9.33301 37.833 28 67.5s49.667 73.5 93 131.5
c9.33301 10.667 20.333 25 33 43z" />
    <glyph glyph-name="Ccedilla" unicode="&#xc7;" horiz-adv-x="1260" 
d="M799 725c26 66.667 48.167 141.503 66.5 224.503s27.5 151.5 27.5 205.5c0 35.333 -8.33301 53 -25 53c-15.333 0 -43.333 -20.333 -84 -61c-60.667 -65.333 -114.667 -140.5 -162 -225.5s-83.666 -171.833 -108.999 -260.5s-38 -175.334 -38 -260.001
c0 -66.667 7.16699 -112.334 21.5 -137.001s41.5 -37 81.5 -37c34.667 0 77.667 9.66699 129 29c116 46 238.667 111.667 368 197c57.333 36.667 93.666 55 108.999 55c22 0 33 -11 33 -33v-2c-3.33301 -30 -13.666 -64 -30.999 -102
c-34.667 -73.333 -64.667 -121.333 -90 -144c-42.667 -38 -101.167 -75.333 -175.5 -112s-150.5 -66.667 -228.5 -90s-143.333 -35 -196 -35c-60.667 0 -118 11.5 -172 34.5s-101 54.5 -141 94.5s-71.333 86.667 -94 140s-34 110.333 -34 171c0 46 7.33301 95.833 22 149.5
s36 109.834 64 168.501s59.667 113.667 95 165c20.667 30.667 42.167 60 64.5 88s47 55.333 74 82s56.5 52.334 88.5 77.001s61.333 45.667 88 63c46.667 31.333 95 58.666 145 81.999s96.333 40.666 139 51.999s81.667 17 117 17c87.333 0 155.666 -22.667 204.999 -68
s74 -108 74 -188c0 -84 -20.667 -171.833 -62 -263.5s-96.333 -171.834 -165 -240.501c-47.333 -48.667 -94.333 -87 -141 -115s-88.667 -42 -126 -42c-32.667 0 -49 15.667 -49 47c0 14.667 9 35 27 61c25.333 36 53.333 89.333 84 160zM408 -116.997
c-58.667 0 -88.001 9.6709 -88.001 29.0039c0 15.333 6.66699 30.666 20 45.999s31 27.5 53 36.5s44.667 13.5 68 13.5c37.333 0 68.166 -11.5 92.499 -34.5s36.5 -53.167 36.5 -90.5c0 -26.667 -11.167 -54.334 -33.5 -83.001s-51.166 -52.334 -86.499 -71.001
s-69.666 -28 -102.999 -28c-19.333 0 -36.5 4.5 -51.5 13.5s-22.5 18.833 -22.5 29.5c0 7.33301 7 12.666 21 15.999c58.667 18.667 90 59.667 94 123z" />
    <glyph glyph-name="Egrave" unicode="&#xc8;" horiz-adv-x="1260" 
d="M883 453l-365.002 2.00293v-25c0 -48.667 14 -92.834 42 -132.501s59 -59.5 93 -59.5c34.667 0 84.834 12.667 150.501 38s140.5 61.666 224.5 108.999l35 21c24 13.333 40.333 23.333 49 30c39.333 24.667 64 37 74 37c12 0 18 -11 18 -33
c0 -24 -4.33301 -51.333 -13 -82s-19.667 -60.167 -33 -88.5s-26.666 -48.5 -39.999 -60.5c-38 -34 -103 -71 -195 -111s-185.333 -71.333 -280 -94c-32 -6.66699 -61.333 -10 -88 -10c-91.333 0 -174.833 18.5 -250.5 55.5s-134.334 87.833 -176.001 152.5
s-62.5 136.667 -62.5 216c0 65.333 13.667 137.333 41 216s65.666 157.167 114.999 235.5s105 149.5 167 213.5c54 56 114.333 106.833 181 152.5s131.5 80.834 194.5 105.501s120.833 37 173.5 37c82.667 0 153.5 -23.5 212.5 -70.5s88.5 -103.833 88.5 -170.5
c0 -29.333 -5.33301 -61.333 -16 -96s-25 -65 -43 -91c-18.667 -28 -46.334 -55.333 -83.001 -82s-78 -49.667 -124 -69c-55.333 -22 -102.666 -33 -141.999 -33s-59 9.66699 -59 29c0 11.333 11 29 33 53c24 21.333 47 50.666 69 87.999
c21.333 39.333 40 85.666 56 138.999s24 95 24 125c0 24.667 -7.33301 37 -22 37c-23.333 0 -65.333 -25.667 -126 -77s-108.667 -102 -144 -152c-33.333 -46.667 -60.666 -94.167 -81.999 -142.5s-35.666 -95.833 -42.999 -142.5h534c58.667 0 88 -15 88 -45
c0 -28 -32.667 -73.667 -98 -137c-64.667 -58.667 -124 -88 -178 -88zM812.998 1778c12.667 0 23.998 -4.83203 33.998 -14.499s21.667 -27.5 35 -53.5c28 -55.333 65.667 -105.666 113 -150.999c6 -6 11.667 -11.333 17 -16s11.333 -10.334 18 -17.001
c14 -10.667 24 -20 30 -28s9 -17.333 9 -28c0 -30 -24.667 -45 -74 -45c-111.333 0 -207.666 39.667 -288.999 119c-22 22 -39 42.5 -51 61.5s-18 34.167 -18 45.5c0 7.33301 9.33301 19.666 28 36.999s41.334 35 68.001 53c37.333 24.667 64 37 80 37z" />
    <glyph glyph-name="Eacute" unicode="&#xc9;" horiz-adv-x="1260" 
d="M883 453l-365.002 2.00293v-25c0 -48.667 14 -92.834 42 -132.501s59 -59.5 93 -59.5c34.667 0 84.834 12.667 150.501 38s140.5 61.666 224.5 108.999l35 21c24 13.333 40.333 23.333 49 30c39.333 24.667 64 37 74 37c12 0 18 -11 18 -33
c0 -24 -4.33301 -51.333 -13 -82s-19.667 -60.167 -33 -88.5s-26.666 -48.5 -39.999 -60.5c-38 -34 -103 -71 -195 -111s-185.333 -71.333 -280 -94c-32 -6.66699 -61.333 -10 -88 -10c-91.333 0 -174.833 18.5 -250.5 55.5s-134.334 87.833 -176.001 152.5
s-62.5 136.667 -62.5 216c0 65.333 13.667 137.333 41 216s65.666 157.167 114.999 235.5s105 149.5 167 213.5c54 56 114.333 106.833 181 152.5s131.5 80.834 194.5 105.501s120.833 37 173.5 37c82.667 0 153.5 -23.5 212.5 -70.5s88.5 -103.833 88.5 -170.5
c0 -29.333 -5.33301 -61.333 -16 -96s-25 -65 -43 -91c-18.667 -28 -46.334 -55.333 -83.001 -82s-78 -49.667 -124 -69c-55.333 -22 -102.666 -33 -141.999 -33s-59 9.66699 -59 29c0 11.333 11 29 33 53c24 21.333 47 50.666 69 87.999
c21.333 39.333 40 85.666 56 138.999s24 95 24 125c0 24.667 -7.33301 37 -22 37c-23.333 0 -65.333 -25.667 -126 -77s-108.667 -102 -144 -152c-33.333 -46.667 -60.666 -94.167 -81.999 -142.5s-35.666 -95.833 -42.999 -142.5h534c58.667 0 88 -15 88 -45
c0 -28 -32.667 -73.667 -98 -137c-64.667 -58.667 -124 -88 -178 -88zM810.998 1542c30 32 64.001 77 102.001 135c18 26.667 29 42.334 33 47.001s11.333 9 22 13c28.667 10 66.667 20.667 114 32s79 17 95 17c20.667 0 31 -9 31 -27c0 -39.333 -37 -94 -111 -164
c-56.667 -54.667 -112.667 -96.334 -168 -125.001s-108.333 -43 -159 -43c-28.667 0 -43 10.333 -43 31c0 8 2.66699 15 8 21s15.666 14.667 30.999 26c6.66699 4.66699 21.667 17 45 37z" />
    <glyph glyph-name="Ecircumflex" unicode="&#xca;" horiz-adv-x="1260" 
d="M883 453l-365.002 2.00293v-25c0 -48.667 14 -92.834 42 -132.501s59 -59.5 93 -59.5c34.667 0 84.834 12.667 150.501 38s140.5 61.666 224.5 108.999l35 21c24 13.333 40.333 23.333 49 30c39.333 24.667 64 37 74 37c12 0 18 -11 18 -33
c0 -24 -4.33301 -51.333 -13 -82s-19.667 -60.167 -33 -88.5s-26.666 -48.5 -39.999 -60.5c-38 -34 -103 -71 -195 -111s-185.333 -71.333 -280 -94c-32 -6.66699 -61.333 -10 -88 -10c-91.333 0 -174.833 18.5 -250.5 55.5s-134.334 87.833 -176.001 152.5
s-62.5 136.667 -62.5 216c0 65.333 13.667 137.333 41 216s65.666 157.167 114.999 235.5s105 149.5 167 213.5c54 56 114.333 106.833 181 152.5s131.5 80.834 194.5 105.501s120.833 37 173.5 37c82.667 0 153.5 -23.5 212.5 -70.5s88.5 -103.833 88.5 -170.5
c0 -29.333 -5.33301 -61.333 -16 -96s-25 -65 -43 -91c-18.667 -28 -46.334 -55.333 -83.001 -82s-78 -49.667 -124 -69c-55.333 -22 -102.666 -33 -141.999 -33s-59 9.66699 -59 29c0 11.333 11 29 33 53c24 21.333 47 50.666 69 87.999
c21.333 39.333 40 85.666 56 138.999s24 95 24 125c0 24.667 -7.33301 37 -22 37c-23.333 0 -65.333 -25.667 -126 -77s-108.667 -102 -144 -152c-33.333 -46.667 -60.666 -94.167 -81.999 -142.5s-35.666 -95.833 -42.999 -142.5h534c58.667 0 88 -15 88 -45
c0 -28 -32.667 -73.667 -98 -137c-64.667 -58.667 -124 -88 -178 -88zM861.998 1565l-18.001 -12.9961c-69.333 -42 -122.666 -63 -159.999 -63c-45.333 0 -68 17 -68 51c0 23.333 16.167 45.666 48.5 66.999s89.833 46.666 172.5 75.999c81.333 30.667 130 46 146 46
c18 0 38.333 -13 61 -39c13.333 -14.667 36 -37.334 68 -68.001c26 -24.667 43.667 -41 53 -49c28.667 -24.667 43 -41 43 -49c0 -16.667 -14.167 -31.834 -42.5 -45.501s-59.833 -20.5 -94.5 -20.5c-36.667 0 -70.5 8 -101.5 24s-66.833 43.667 -107.5 83z" />
    <glyph glyph-name="Edieresis" unicode="&#xcb;" horiz-adv-x="1260" 
d="M883 453l-365.002 2.00293v-25c0 -48.667 14 -92.834 42 -132.501s59 -59.5 93 -59.5c34.667 0 84.834 12.667 150.501 38s140.5 61.666 224.5 108.999l35 21c24 13.333 40.333 23.333 49 30c39.333 24.667 64 37 74 37c12 0 18 -11 18 -33
c0 -24 -4.33301 -51.333 -13 -82s-19.667 -60.167 -33 -88.5s-26.666 -48.5 -39.999 -60.5c-38 -34 -103 -71 -195 -111s-185.333 -71.333 -280 -94c-32 -6.66699 -61.333 -10 -88 -10c-91.333 0 -174.833 18.5 -250.5 55.5s-134.334 87.833 -176.001 152.5
s-62.5 136.667 -62.5 216c0 65.333 13.667 137.333 41 216s65.666 157.167 114.999 235.5s105 149.5 167 213.5c54 56 114.333 106.833 181 152.5s131.5 80.834 194.5 105.501s120.833 37 173.5 37c82.667 0 153.5 -23.5 212.5 -70.5s88.5 -103.833 88.5 -170.5
c0 -29.333 -5.33301 -61.333 -16 -96s-25 -65 -43 -91c-18.667 -28 -46.334 -55.333 -83.001 -82s-78 -49.667 -124 -69c-55.333 -22 -102.666 -33 -141.999 -33s-59 9.66699 -59 29c0 11.333 11 29 33 53c24 21.333 47 50.666 69 87.999
c21.333 39.333 40 85.666 56 138.999s24 95 24 125c0 24.667 -7.33301 37 -22 37c-23.333 0 -65.333 -25.667 -126 -77s-108.667 -102 -144 -152c-33.333 -46.667 -60.666 -94.167 -81.999 -142.5s-35.666 -95.833 -42.999 -142.5h534c58.667 0 88 -15 88 -45
c0 -28 -32.667 -73.667 -98 -137c-64.667 -58.667 -124 -88 -178 -88zM658.998 1468c-25.333 0 -45.668 5.66602 -61.001 16.999s-23 26.333 -23 45c0 21.333 8.33301 52 25 92c18.667 42.667 35 70 49 82c14.667 14 40.334 26 77.001 36s74.334 15 113.001 15
c44 0 66 -19.667 66 -59c0 -57.333 -25.333 -109.666 -76 -156.999s-107.334 -71 -170.001 -71zM1052 1425c-81.333 0 -121.999 30.999 -121.999 92.999c0 26 5.33301 52.833 16 80.5s23.667 49.167 39 64.5c25.333 26 75 39 149 39c63.333 0 95 -17.667 95 -53
c0 -14 -5.33301 -33.833 -16 -59.5s-23.334 -51.167 -38.001 -76.5s-29.667 -45.666 -45 -60.999c-16 -18 -42 -27 -78 -27z" />
    <glyph glyph-name="Igrave" unicode="&#xcc;" horiz-adv-x="1188" 
d="M713 1186l-8 0.00390625c-56 0 -149 -21.333 -279 -64c-96 -31.333 -159.333 -47 -190 -47c-21.333 0 -39.666 6.83301 -54.999 20.5s-23 30.167 -23 49.5c0 32 18.167 71.5 54.5 118.5s72.833 77.833 109.5 92.5c54 22 167.333 33 340 33
c68.667 0 137.667 -3.33301 207 -10s127.833 -15.834 175.5 -27.501s77.834 -23.834 90.501 -36.501c6.66699 -6.66699 10 -21 10 -43c0 -20.667 -5.5 -57.167 -16.5 -109.5s-23.833 -102.5 -38.5 -150.5c-94 -294 -205.333 -558.333 -334 -793
c-32 -58.667 -62.833 -104 -92.5 -136s-62.334 -54.833 -98.001 -68.5s-78.167 -20.5 -127.5 -20.5c-70.667 0 -136.334 13.5 -197.001 40.5s-108.5 63.667 -143.5 110s-52.5 97.166 -52.5 152.499c0 38.667 8.16699 80.167 24.5 124.5s34.833 78.5 55.5 102.5
c10 12.667 21.667 19 35 19c22 0 42.667 -10.333 62 -31s40.333 -56 63 -106c32.667 -75.333 70 -138.333 112 -189c4.66699 -6 15 -17.667 31 -35c31.333 70 55.5 127.5 72.5 172.5s36.5 105.167 58.5 180.5c15.333 48 41.333 140.667 78 278
c28.667 115.333 54 239.666 76 372.999zM778 1778c12.667 0 23.998 -4.83203 33.998 -14.499s21.667 -27.5 35 -53.5c28 -55.333 65.667 -105.666 113 -150.999c6 -6 11.667 -11.333 17 -16s11.333 -10.334 18 -17.001c14 -10.667 24 -20 30 -28s9 -17.333 9 -28
c0 -30 -24.667 -45 -74 -45c-111.333 0 -207.666 39.667 -288.999 119c-22 22 -39 42.5 -51 61.5s-18 34.167 -18 45.5c0 7.33301 9.33301 19.666 28 36.999s41.334 35 68.001 53c37.333 24.667 64 37 80 37z" />
    <glyph glyph-name="Iacute" unicode="&#xcd;" horiz-adv-x="1188" 
d="M713 1186l-8 0.00390625c-56 0 -149 -21.333 -279 -64c-96 -31.333 -159.333 -47 -190 -47c-21.333 0 -39.666 6.83301 -54.999 20.5s-23 30.167 -23 49.5c0 32 18.167 71.5 54.5 118.5s72.833 77.833 109.5 92.5c54 22 167.333 33 340 33
c68.667 0 137.667 -3.33301 207 -10s127.833 -15.834 175.5 -27.501s77.834 -23.834 90.501 -36.501c6.66699 -6.66699 10 -21 10 -43c0 -20.667 -5.5 -57.167 -16.5 -109.5s-23.833 -102.5 -38.5 -150.5c-94 -294 -205.333 -558.333 -334 -793
c-32 -58.667 -62.833 -104 -92.5 -136s-62.334 -54.833 -98.001 -68.5s-78.167 -20.5 -127.5 -20.5c-70.667 0 -136.334 13.5 -197.001 40.5s-108.5 63.667 -143.5 110s-52.5 97.166 -52.5 152.499c0 38.667 8.16699 80.167 24.5 124.5s34.833 78.5 55.5 102.5
c10 12.667 21.667 19 35 19c22 0 42.667 -10.333 62 -31s40.333 -56 63 -106c32.667 -75.333 70 -138.333 112 -189c4.66699 -6 15 -17.667 31 -35c31.333 70 55.5 127.5 72.5 172.5s36.5 105.167 58.5 180.5c15.333 48 41.333 140.667 78 278
c28.667 115.333 54 239.666 76 372.999zM776 1542c30 32 64.001 77 102.001 135c18 26.667 29 42.334 33 47.001s11.333 9 22 13c28.667 10 66.667 20.667 114 32s79 17 95 17c20.667 0 31 -9 31 -27c0 -39.333 -37 -94 -111 -164
c-56.667 -54.667 -112.667 -96.334 -168 -125.001s-108.333 -43 -159 -43c-28.667 0 -43 10.333 -43 31c0 8 2.66699 15 8 21s15.666 14.667 30.999 26c6.66699 4.66699 21.667 17 45 37z" />
    <glyph glyph-name="Icircumflex" unicode="&#xce;" horiz-adv-x="1188" 
d="M713 1186l-8 0.00390625c-56 0 -149 -21.333 -279 -64c-96 -31.333 -159.333 -47 -190 -47c-21.333 0 -39.666 6.83301 -54.999 20.5s-23 30.167 -23 49.5c0 32 18.167 71.5 54.5 118.5s72.833 77.833 109.5 92.5c54 22 167.333 33 340 33
c68.667 0 137.667 -3.33301 207 -10s127.833 -15.834 175.5 -27.501s77.834 -23.834 90.501 -36.501c6.66699 -6.66699 10 -21 10 -43c0 -20.667 -5.5 -57.167 -16.5 -109.5s-23.833 -102.5 -38.5 -150.5c-94 -294 -205.333 -558.333 -334 -793
c-32 -58.667 -62.833 -104 -92.5 -136s-62.334 -54.833 -98.001 -68.5s-78.167 -20.5 -127.5 -20.5c-70.667 0 -136.334 13.5 -197.001 40.5s-108.5 63.667 -143.5 110s-52.5 97.166 -52.5 152.499c0 38.667 8.16699 80.167 24.5 124.5s34.833 78.5 55.5 102.5
c10 12.667 21.667 19 35 19c22 0 42.667 -10.333 62 -31s40.333 -56 63 -106c32.667 -75.333 70 -138.333 112 -189c4.66699 -6 15 -17.667 31 -35c31.333 70 55.5 127.5 72.5 172.5s36.5 105.167 58.5 180.5c15.333 48 41.333 140.667 78 278
c28.667 115.333 54 239.666 76 372.999zM827 1565l-18.001 -12.9961c-69.333 -42 -122.666 -63 -159.999 -63c-45.333 0 -68 17 -68 51c0 23.333 16.167 45.666 48.5 66.999s89.833 46.666 172.5 75.999c81.333 30.667 130 46 146 46c18 0 38.333 -13 61 -39
c13.333 -14.667 36 -37.334 68 -68.001c26 -24.667 43.667 -41 53 -49c28.667 -24.667 43 -41 43 -49c0 -16.667 -14.167 -31.834 -42.5 -45.501s-59.833 -20.5 -94.5 -20.5c-36.667 0 -70.5 8 -101.5 24s-66.833 43.667 -107.5 83z" />
    <glyph glyph-name="Idieresis" unicode="&#xcf;" horiz-adv-x="1188" 
d="M713 1186l-8 0.00390625c-56 0 -149 -21.333 -279 -64c-96 -31.333 -159.333 -47 -190 -47c-21.333 0 -39.666 6.83301 -54.999 20.5s-23 30.167 -23 49.5c0 32 18.167 71.5 54.5 118.5s72.833 77.833 109.5 92.5c54 22 167.333 33 340 33
c68.667 0 137.667 -3.33301 207 -10s127.833 -15.834 175.5 -27.501s77.834 -23.834 90.501 -36.501c6.66699 -6.66699 10 -21 10 -43c0 -20.667 -5.5 -57.167 -16.5 -109.5s-23.833 -102.5 -38.5 -150.5c-94 -294 -205.333 -558.333 -334 -793
c-32 -58.667 -62.833 -104 -92.5 -136s-62.334 -54.833 -98.001 -68.5s-78.167 -20.5 -127.5 -20.5c-70.667 0 -136.334 13.5 -197.001 40.5s-108.5 63.667 -143.5 110s-52.5 97.166 -52.5 152.499c0 38.667 8.16699 80.167 24.5 124.5s34.833 78.5 55.5 102.5
c10 12.667 21.667 19 35 19c22 0 42.667 -10.333 62 -31s40.333 -56 63 -106c32.667 -75.333 70 -138.333 112 -189c4.66699 -6 15 -17.667 31 -35c31.333 70 55.5 127.5 72.5 172.5s36.5 105.167 58.5 180.5c15.333 48 41.333 140.667 78 278
c28.667 115.333 54 239.666 76 372.999zM624 1468c-25.333 0 -45.668 5.66602 -61.001 16.999s-23 26.333 -23 45c0 21.333 8.33301 52 25 92c18.667 42.667 35 70 49 82c14.667 14 40.334 26 77.001 36s74.334 15 113.001 15c44 0 66 -19.667 66 -59
c0 -57.333 -25.333 -109.666 -76 -156.999s-107.334 -71 -170.001 -71zM1017 1425c-81.333 0 -121.999 30.999 -121.999 92.999c0 26 5.33301 52.833 16 80.5s23.667 49.167 39 64.5c25.333 26 75 39 149 39c63.333 0 95 -17.667 95 -53c0 -14 -5.33301 -33.833 -16 -59.5
s-23.334 -51.167 -38.001 -76.5s-29.667 -45.666 -45 -60.999c-16 -18 -42 -27 -78 -27z" />
    <glyph glyph-name="Eth" unicode="&#xd0;" horiz-adv-x="1386" 
d="M719 1159l-131 -489.002h98c54.667 0 82 -13 82 -39c0 -18 -10.667 -32.167 -32 -42.5s-50.333 -15.5 -87 -15.5h-86l-45 -174c-0.666992 -1.33301 -3.33398 -12.666 -8.00098 -33.999c-12 -49.333 -24.167 -87.333 -36.5 -114s-31.5 -55.667 -57.5 -87
c20 -1.33301 42.333 -2 67 -2c82 0 148.333 8.83301 199 26.5s99.667 49.834 147 96.501c56 56 98.667 121.667 128 197s44 156.333 44 243c0 80 -12 152.667 -36 218s-57.167 116.833 -99.5 154.5s-91.166 58.167 -146.499 61.5zM193 669.998l87.9961 296.999
c14.667 52.667 28.167 89.667 40.5 111s30.833 40.333 55.5 57v4h-15c-17.333 0 -56.666 -11 -117.999 -33c-67.333 -23.333 -114 -35 -140 -35c-24 0 -36 9.66699 -36 29c0 28.667 10.167 62.334 30.5 101.001s42.833 69 67.5 91c24.667 21.333 66.834 40.333 126.501 57
s132.834 29.5 219.501 38.5s177.334 13.5 272.001 13.5c124.667 0 231.167 -19.833 319.5 -59.5s155.5 -97.834 201.5 -174.501s69 -170 69 -280c0 -111.333 -21.833 -222.5 -65.5 -333.5s-101.5 -204.167 -173.5 -279.5c-170.667 -178.667 -396.667 -268 -678 -268
c-91.333 0 -174.333 7.33301 -249 22s-123.667 32.667 -147 54c-14.667 12.667 -22 30.334 -22 53.001c0 6 1.33301 15.667 4 29l121 411h-64c-52 0 -91.5 3 -118.5 9s-40.5 14 -40.5 24c0 41.333 59.333 62 178 62h74z" />
    <glyph glyph-name="Ntilde" unicode="&#xd1;" horiz-adv-x="1642" 
d="M242 475l69.0059 188.999l95 241c32.667 87.333 62 156.333 88 207c18.667 36 28 61.333 28 76c0 19.333 -15.667 40.333 -47 63c-20.667 14 -31 26.333 -31 37c0 13.333 20.667 27.666 62 42.999c35.333 14.667 75.666 27.5 120.999 38.5s82 16.5 110 16.5
c56 0 98.333 -15 127 -45c33.333 -34 74.333 -139.667 123 -317c20 -72 42.167 -141.667 66.5 -209s44.5 -115.666 60.5 -144.999c4.66699 -10.667 17 -31.334 37 -62.001c22 70 48 161.667 78 275c44 178.667 84.333 299.334 121 362.001c11.333 20 24.333 37.667 39 53
c27.333 25.333 56.833 44.666 88.5 57.999s63.5 20 95.5 20c19.333 0 32.666 -5 39.999 -15s11 -28 11 -54c0 -19.333 -1.33301 -33.666 -4 -42.999c-6.66699 -34.667 -18.334 -79.5 -35.001 -134.5s-40.167 -125.667 -70.5 -212l-113.5 -313.5l-15 -37
c-5.33301 -16 -10 -29 -14 -39c-80.667 -226 -142 -372.667 -184 -440c-8.66699 -14 -19 -27 -31 -39c-20.667 -20.667 -41 -31 -61 -31c-51.333 0 -106.666 54.667 -165.999 164c-108 196 -192.667 397.333 -254 604c-12.667 38.667 -22.334 75 -29.001 109h-4l-121 -381
c-1.33301 -6.66699 -4 -15.167 -8 -25.5s-7.33301 -20.166 -10 -29.499c-2.66699 -7.33301 -5.83398 -15.5 -9.50098 -24.5s-6.83398 -16.5 -9.50098 -22.5c-22 -66.667 -40 -116.834 -54 -150.501s-28 -61.5 -42 -83.5c-12 -20.667 -29.667 -43 -53 -67
c-34 -31.333 -71.667 -56 -113 -74s-82.333 -27 -123 -27c-34 0 -51 13.667 -51 41c0 20.667 15 56.334 45 107.001c34.667 58 73.667 137.667 117 239c7.33301 21.333 17.666 47.333 30.999 78zM847.006 1540c-34 0 -50.998 11 -50.998 33c0 29.333 39 59.333 117 90
c69.333 26 122.666 39 159.999 39c23.333 0 45.666 -4 66.999 -12s44 -21 68 -39c33.333 -24.667 60 -37 80 -37c20.667 0 41.667 3.33301 63 10c20 2.66699 29.667 4 29 4c8 0 14.833 -2.5 20.5 -7.5s8.5 -12.167 8.5 -21.5c0 -14 -14.333 -31 -43 -51
c-68.667 -43.333 -128.334 -65 -179.001 -65c-43.333 0 -90.333 18.333 -141 55c-30.667 22 -54.667 33 -72 33c-11.333 0 -30.333 -5 -57 -15c-29.333 -10.667 -52.666 -16 -69.999 -16z" />
    <glyph glyph-name="Ograve" unicode="&#xd2;" horiz-adv-x="1300" 
d="M662 1087c-46 -46 -79.502 -83.833 -100.502 -113.5s-43.5 -72.167 -67.5 -127.5c-18 -40 -31 -82.333 -39 -127c-10 -39.333 -15 -90 -15 -152c0 -87.333 8.33301 -160.166 25 -218.499s41.334 -102.333 74.001 -132s72 -44.5 118 -44.5c37.333 0 75.5 13.667 114.5 41
s74.333 63.166 106 107.499s57.167 93.833 76.5 148.5s29 107.334 29 158.001c0 91.333 -31.333 186.666 -94 285.999c-23.333 40 -35 67.333 -35 82c0 27.333 15 54.666 45 81.999c34 32.667 73 61.667 117 87s78.667 38 104 38c14.667 0 30.167 -3.5 46.5 -10.5
s28.833 -15.833 37.5 -26.5c21.333 -22 39 -62.5 53 -121.5s21 -121.5 21 -187.5c0 -157.333 -32.167 -302.5 -96.5 -435.5s-151.666 -238.333 -261.999 -316s-229.833 -116.5 -358.5 -116.5c-74 0 -147.333 13.667 -220 41s-131.667 64 -177 110
c-76.667 76.667 -115 177 -115 301c0 72 14 148.333 42 229s66.5 159.167 115.5 235.5s105.667 146.166 170 209.499s130.5 113.333 198.5 150c62 33.333 128.667 60 200 80s134 30 188 30c76 0 114 -11.667 114 -35c0 -9.33301 -8 -23.666 -24 -42.999
c-29.333 -27.333 -54.833 -46.666 -76.5 -57.999s-57.167 -24 -106.5 -38c-53.333 -16 -92 -30.5 -116 -43.5s-54.667 -36.167 -92 -69.5zM833.998 1778c12.667 0 23.998 -4.83203 33.998 -14.499s21.667 -27.5 35 -53.5c28 -55.333 65.667 -105.666 113 -150.999
c6 -6 11.667 -11.333 17 -16s11.333 -10.334 18 -17.001c14 -10.667 24 -20 30 -28s9 -17.333 9 -28c0 -30 -24.667 -45 -74 -45c-111.333 0 -207.666 39.667 -288.999 119c-22 22 -39 42.5 -51 61.5s-18 34.167 -18 45.5c0 7.33301 9.33301 19.666 28 36.999
s41.334 35 68.001 53c37.333 24.667 64 37 80 37z" />
    <glyph glyph-name="Oacute" unicode="&#xd3;" horiz-adv-x="1300" 
d="M662 1087c-46 -46 -79.502 -83.833 -100.502 -113.5s-43.5 -72.167 -67.5 -127.5c-18 -40 -31 -82.333 -39 -127c-10 -39.333 -15 -90 -15 -152c0 -87.333 8.33301 -160.166 25 -218.499s41.334 -102.333 74.001 -132s72 -44.5 118 -44.5c37.333 0 75.5 13.667 114.5 41
s74.333 63.166 106 107.499s57.167 93.833 76.5 148.5s29 107.334 29 158.001c0 91.333 -31.333 186.666 -94 285.999c-23.333 40 -35 67.333 -35 82c0 27.333 15 54.666 45 81.999c34 32.667 73 61.667 117 87s78.667 38 104 38c14.667 0 30.167 -3.5 46.5 -10.5
s28.833 -15.833 37.5 -26.5c21.333 -22 39 -62.5 53 -121.5s21 -121.5 21 -187.5c0 -157.333 -32.167 -302.5 -96.5 -435.5s-151.666 -238.333 -261.999 -316s-229.833 -116.5 -358.5 -116.5c-74 0 -147.333 13.667 -220 41s-131.667 64 -177 110
c-76.667 76.667 -115 177 -115 301c0 72 14 148.333 42 229s66.5 159.167 115.5 235.5s105.667 146.166 170 209.499s130.5 113.333 198.5 150c62 33.333 128.667 60 200 80s134 30 188 30c76 0 114 -11.667 114 -35c0 -9.33301 -8 -23.666 -24 -42.999
c-29.333 -27.333 -54.833 -46.666 -76.5 -57.999s-57.167 -24 -106.5 -38c-53.333 -16 -92 -30.5 -116 -43.5s-54.667 -36.167 -92 -69.5zM831.998 1542c30 32 64.001 77 102.001 135c18 26.667 29 42.334 33 47.001s11.333 9 22 13c28.667 10 66.667 20.667 114 32
s79 17 95 17c20.667 0 31 -9 31 -27c0 -39.333 -37 -94 -111 -164c-56.667 -54.667 -112.667 -96.334 -168 -125.001s-108.333 -43 -159 -43c-28.667 0 -43 10.333 -43 31c0 8 2.66699 15 8 21s15.666 14.667 30.999 26c6.66699 4.66699 21.667 17 45 37z" />
    <glyph glyph-name="Ocircumflex" unicode="&#xd4;" horiz-adv-x="1300" 
d="M662 1087c-46 -46 -79.502 -83.833 -100.502 -113.5s-43.5 -72.167 -67.5 -127.5c-18 -40 -31 -82.333 -39 -127c-10 -39.333 -15 -90 -15 -152c0 -87.333 8.33301 -160.166 25 -218.499s41.334 -102.333 74.001 -132s72 -44.5 118 -44.5c37.333 0 75.5 13.667 114.5 41
s74.333 63.166 106 107.499s57.167 93.833 76.5 148.5s29 107.334 29 158.001c0 91.333 -31.333 186.666 -94 285.999c-23.333 40 -35 67.333 -35 82c0 27.333 15 54.666 45 81.999c34 32.667 73 61.667 117 87s78.667 38 104 38c14.667 0 30.167 -3.5 46.5 -10.5
s28.833 -15.833 37.5 -26.5c21.333 -22 39 -62.5 53 -121.5s21 -121.5 21 -187.5c0 -157.333 -32.167 -302.5 -96.5 -435.5s-151.666 -238.333 -261.999 -316s-229.833 -116.5 -358.5 -116.5c-74 0 -147.333 13.667 -220 41s-131.667 64 -177 110
c-76.667 76.667 -115 177 -115 301c0 72 14 148.333 42 229s66.5 159.167 115.5 235.5s105.667 146.166 170 209.499s130.5 113.333 198.5 150c62 33.333 128.667 60 200 80s134 30 188 30c76 0 114 -11.667 114 -35c0 -9.33301 -8 -23.666 -24 -42.999
c-29.333 -27.333 -54.833 -46.666 -76.5 -57.999s-57.167 -24 -106.5 -38c-53.333 -16 -92 -30.5 -116 -43.5s-54.667 -36.167 -92 -69.5zM882.998 1565l-18.001 -12.9961c-69.333 -42 -122.666 -63 -159.999 -63c-45.333 0 -68 17 -68 51
c0 23.333 16.167 45.666 48.5 66.999s89.833 46.666 172.5 75.999c81.333 30.667 130 46 146 46c18 0 38.333 -13 61 -39c13.333 -14.667 36 -37.334 68 -68.001c26 -24.667 43.667 -41 53 -49c28.667 -24.667 43 -41 43 -49c0 -16.667 -14.167 -31.834 -42.5 -45.501
s-59.833 -20.5 -94.5 -20.5c-36.667 0 -70.5 8 -101.5 24s-66.833 43.667 -107.5 83z" />
    <glyph glyph-name="Otilde" unicode="&#xd5;" horiz-adv-x="1300" 
d="M662 1087c-46 -46 -79.502 -83.833 -100.502 -113.5s-43.5 -72.167 -67.5 -127.5c-18 -40 -31 -82.333 -39 -127c-10 -39.333 -15 -90 -15 -152c0 -87.333 8.33301 -160.166 25 -218.499s41.334 -102.333 74.001 -132s72 -44.5 118 -44.5c37.333 0 75.5 13.667 114.5 41
s74.333 63.166 106 107.499s57.167 93.833 76.5 148.5s29 107.334 29 158.001c0 91.333 -31.333 186.666 -94 285.999c-23.333 40 -35 67.333 -35 82c0 27.333 15 54.666 45 81.999c34 32.667 73 61.667 117 87s78.667 38 104 38c14.667 0 30.167 -3.5 46.5 -10.5
s28.833 -15.833 37.5 -26.5c21.333 -22 39 -62.5 53 -121.5s21 -121.5 21 -187.5c0 -157.333 -32.167 -302.5 -96.5 -435.5s-151.666 -238.333 -261.999 -316s-229.833 -116.5 -358.5 -116.5c-74 0 -147.333 13.667 -220 41s-131.667 64 -177 110
c-76.667 76.667 -115 177 -115 301c0 72 14 148.333 42 229s66.5 159.167 115.5 235.5s105.667 146.166 170 209.499s130.5 113.333 198.5 150c62 33.333 128.667 60 200 80s134 30 188 30c76 0 114 -11.667 114 -35c0 -9.33301 -8 -23.666 -24 -42.999
c-29.333 -27.333 -54.833 -46.666 -76.5 -57.999s-57.167 -24 -106.5 -38c-53.333 -16 -92 -30.5 -116 -43.5s-54.667 -36.167 -92 -69.5zM674.998 1540c-34 0 -50.998 11 -50.998 33c0 29.333 39 59.333 117 90c69.333 26 122.666 39 159.999 39
c23.333 0 45.666 -4 66.999 -12s44 -21 68 -39c33.333 -24.667 60 -37 80 -37c20.667 0 41.667 3.33301 63 10c20 2.66699 29.667 4 29 4c8 0 14.833 -2.5 20.5 -7.5s8.5 -12.167 8.5 -21.5c0 -14 -14.333 -31 -43 -51c-68.667 -43.333 -128.334 -65 -179.001 -65
c-43.333 0 -90.333 18.333 -141 55c-30.667 22 -54.667 33 -72 33c-11.333 0 -30.333 -5 -57 -15c-29.333 -10.667 -52.666 -16 -69.999 -16z" />
    <glyph glyph-name="Odieresis" unicode="&#xd6;" horiz-adv-x="1300" 
d="M662 1087c-46 -46 -79.502 -83.833 -100.502 -113.5s-43.5 -72.167 -67.5 -127.5c-18 -40 -31 -82.333 -39 -127c-10 -39.333 -15 -90 -15 -152c0 -87.333 8.33301 -160.166 25 -218.499s41.334 -102.333 74.001 -132s72 -44.5 118 -44.5c37.333 0 75.5 13.667 114.5 41
s74.333 63.166 106 107.499s57.167 93.833 76.5 148.5s29 107.334 29 158.001c0 91.333 -31.333 186.666 -94 285.999c-23.333 40 -35 67.333 -35 82c0 27.333 15 54.666 45 81.999c34 32.667 73 61.667 117 87s78.667 38 104 38c14.667 0 30.167 -3.5 46.5 -10.5
s28.833 -15.833 37.5 -26.5c21.333 -22 39 -62.5 53 -121.5s21 -121.5 21 -187.5c0 -157.333 -32.167 -302.5 -96.5 -435.5s-151.666 -238.333 -261.999 -316s-229.833 -116.5 -358.5 -116.5c-74 0 -147.333 13.667 -220 41s-131.667 64 -177 110
c-76.667 76.667 -115 177 -115 301c0 72 14 148.333 42 229s66.5 159.167 115.5 235.5s105.667 146.166 170 209.499s130.5 113.333 198.5 150c62 33.333 128.667 60 200 80s134 30 188 30c76 0 114 -11.667 114 -35c0 -9.33301 -8 -23.666 -24 -42.999
c-29.333 -27.333 -54.833 -46.666 -76.5 -57.999s-57.167 -24 -106.5 -38c-53.333 -16 -92 -30.5 -116 -43.5s-54.667 -36.167 -92 -69.5zM679.998 1468c-25.333 0 -45.668 5.66602 -61.001 16.999s-23 26.333 -23 45c0 21.333 8.33301 52 25 92c18.667 42.667 35 70 49 82
c14.667 14 40.334 26 77.001 36s74.334 15 113.001 15c44 0 66 -19.667 66 -59c0 -57.333 -25.333 -109.666 -76 -156.999s-107.334 -71 -170.001 -71zM1073 1425c-81.333 0 -121.999 30.999 -121.999 92.999c0 26 5.33301 52.833 16 80.5s23.667 49.167 39 64.5
c25.333 26 75 39 149 39c63.333 0 95 -17.667 95 -53c0 -14 -5.33301 -33.833 -16 -59.5s-23.334 -51.167 -38.001 -76.5s-29.667 -45.666 -45 -60.999c-16 -18 -42 -27 -78 -27z" />
    <glyph glyph-name="multiply" unicode="&#xd7;" horiz-adv-x="1366" 
d="M158 1049l151 151l375 -375l375 375l151 -151l-372 -375l370 -371l-151 -151l-371 370l-373 -370l-151 151l370 371z" />
    <glyph glyph-name="Oslash" unicode="&#xd8;" horiz-adv-x="1307" 
d="M442 444l465 430.001l-6 11l-4 10c-31.333 51.333 -47 86 -47 104c0 23.333 16.333 50.666 49 81.999c34.667 32.667 72.667 60.334 114 83.001s75 34 101 34c38 0 72.333 -16.333 103 -49l6 4c22 14 36.333 21 43 21c13.333 0 20 -13.667 20 -41v-7v-4v-2
c0 -15.333 -2.16699 -27.666 -6.5 -36.999s-13.833 -22.333 -28.5 -39c15.333 -56 23 -120.667 23 -194c0 -82.667 -10.333 -165.334 -31 -248.001s-50.167 -159.167 -88.5 -229.5s-83.833 -131.833 -136.5 -184.5c-58.667 -58.667 -131 -107 -217 -145
s-166.667 -57 -242 -57c-70 0 -140.5 12.167 -211.5 36.5s-127.5 55.166 -169.5 92.499l-12 -9c-12 -9.33301 -24 -17.333 -36 -24s-22.667 -10 -32 -10c-16 0 -24 6 -24 18s13.667 32.667 41 62l6 6l6 6c-57.333 81.333 -86 169.333 -86 264c0 114.667 25.833 228 77.5 340
s122.667 214.5 213 307.5s190.5 166 300.5 219s220.333 79.5 331 79.5c34 0 61.167 -3.66699 81.5 -11s30.5 -17.333 30.5 -30c0 -6 -5.33301 -15.333 -16 -28c-20.667 -20.667 -42.334 -37.167 -65.001 -49.5s-61 -28.833 -115 -49.5
c-66 -22.667 -117.5 -45.5 -154.5 -68.5s-72.5 -54.167 -106.5 -93.5c-37.333 -42 -74.666 -95.667 -111.999 -161c-24.667 -46.667 -42.167 -92.5 -52.5 -137.5s-15.5 -102.5 -15.5 -172.5c0 -42 1.33301 -85 4 -129zM958 768.001l-59.001 -53
c-109.333 -100 -233.666 -206 -372.999 -318l-63 -49c20.667 -58.667 47 -103 79 -133s68.333 -45 109 -45c50 0 100.833 23.167 152.5 69.5s94.167 104.333 127.5 174s50 139.5 50 209.5c0 40 -7.66699 88.333 -23 145z" />
    <glyph glyph-name="Ugrave" unicode="&#xd9;" horiz-adv-x="1280" 
d="M801 471l2 -0.00195312h-4c-50.667 -88 -95 -159 -133 -213s-74.333 -98.333 -109 -133c-42.667 -42.667 -85.334 -75.167 -128.001 -97.5s-83.334 -33.5 -122.001 -33.5c-81.333 0 -144.666 24.5 -189.999 73.5s-68 117.833 -68 206.5
c0 114.667 31.333 283.334 94 506.001c21.333 74 43 143.333 65 208s45.667 127.334 71 188.001s45 103.667 59 129c10 17.333 23.5 31.166 40.5 41.499s41.167 18.833 72.5 25.5c48 9.33301 93 14 135 14c70.667 0 106 -30.667 106 -92c0 -34.667 -15 -86.334 -45 -155.001
c-27.333 -65.333 -49 -122 -65 -170l-7 -20.5l-12 -35.5c-12.667 -40 -29.667 -100 -51 -180s-38 -148 -50 -204s-18 -92.333 -18 -109c0 -24.667 7 -37 21 -37c15.333 0 50 34.667 104 104c51.333 66 109.833 149.833 175.5 251.5s119.834 192.167 162.501 271.5
c28 51.333 48.5 86.5 61.5 105.5s26.167 33.5 39.5 43.5c35.333 26 77 39 125 39c61.333 0 92 -28 92 -84c0 -11.333 -2 -34.666 -6 -69.999c-18 -145.333 -27 -279.666 -27 -402.999c0 -56 1.66699 -106.667 5 -152s8.33301 -89.666 15 -132.999s15.667 -89 27 -137
c14 -64.667 21 -104.334 21 -119.001c0 -10.667 -3.66699 -20.667 -11 -30c-10.667 -16 -31.667 -29 -63 -39c-58 -22 -102.333 -33 -133 -33c-38.667 0 -75.167 14 -109.5 42s-62.833 67.333 -85.5 118c-26 59.333 -43 137 -51 233c-2 16 -4 42.667 -6 80zM823 1778
c12.667 0 23.998 -4.83203 33.998 -14.499s21.667 -27.5 35 -53.5c28 -55.333 65.667 -105.666 113 -150.999c6 -6 11.667 -11.333 17 -16s11.333 -10.334 18 -17.001c14 -10.667 24 -20 30 -28s9 -17.333 9 -28c0 -30 -24.667 -45 -74 -45
c-111.333 0 -207.666 39.667 -288.999 119c-22 22 -39 42.5 -51 61.5s-18 34.167 -18 45.5c0 7.33301 9.33301 19.666 28 36.999s41.334 35 68.001 53c37.333 24.667 64 37 80 37z" />
    <glyph glyph-name="Uacute" unicode="&#xda;" horiz-adv-x="1280" 
d="M801 471l2 -0.00195312h-4c-50.667 -88 -95 -159 -133 -213s-74.333 -98.333 -109 -133c-42.667 -42.667 -85.334 -75.167 -128.001 -97.5s-83.334 -33.5 -122.001 -33.5c-81.333 0 -144.666 24.5 -189.999 73.5s-68 117.833 -68 206.5
c0 114.667 31.333 283.334 94 506.001c21.333 74 43 143.333 65 208s45.667 127.334 71 188.001s45 103.667 59 129c10 17.333 23.5 31.166 40.5 41.499s41.167 18.833 72.5 25.5c48 9.33301 93 14 135 14c70.667 0 106 -30.667 106 -92c0 -34.667 -15 -86.334 -45 -155.001
c-27.333 -65.333 -49 -122 -65 -170l-7 -20.5l-12 -35.5c-12.667 -40 -29.667 -100 -51 -180s-38 -148 -50 -204s-18 -92.333 -18 -109c0 -24.667 7 -37 21 -37c15.333 0 50 34.667 104 104c51.333 66 109.833 149.833 175.5 251.5s119.834 192.167 162.501 271.5
c28 51.333 48.5 86.5 61.5 105.5s26.167 33.5 39.5 43.5c35.333 26 77 39 125 39c61.333 0 92 -28 92 -84c0 -11.333 -2 -34.666 -6 -69.999c-18 -145.333 -27 -279.666 -27 -402.999c0 -56 1.66699 -106.667 5 -152s8.33301 -89.666 15 -132.999s15.667 -89 27 -137
c14 -64.667 21 -104.334 21 -119.001c0 -10.667 -3.66699 -20.667 -11 -30c-10.667 -16 -31.667 -29 -63 -39c-58 -22 -102.333 -33 -133 -33c-38.667 0 -75.167 14 -109.5 42s-62.833 67.333 -85.5 118c-26 59.333 -43 137 -51 233c-2 16 -4 42.667 -6 80zM821 1542
c30 32 64.001 77 102.001 135c18 26.667 29 42.334 33 47.001s11.333 9 22 13c28.667 10 66.667 20.667 114 32s79 17 95 17c20.667 0 31 -9 31 -27c0 -39.333 -37 -94 -111 -164c-56.667 -54.667 -112.667 -96.334 -168 -125.001s-108.333 -43 -159 -43
c-28.667 0 -43 10.333 -43 31c0 8 2.66699 15 8 21s15.666 14.667 30.999 26c6.66699 4.66699 21.667 17 45 37z" />
    <glyph glyph-name="Ucircumflex" unicode="&#xdb;" horiz-adv-x="1280" 
d="M801 471l2 -0.00195312h-4c-50.667 -88 -95 -159 -133 -213s-74.333 -98.333 -109 -133c-42.667 -42.667 -85.334 -75.167 -128.001 -97.5s-83.334 -33.5 -122.001 -33.5c-81.333 0 -144.666 24.5 -189.999 73.5s-68 117.833 -68 206.5
c0 114.667 31.333 283.334 94 506.001c21.333 74 43 143.333 65 208s45.667 127.334 71 188.001s45 103.667 59 129c10 17.333 23.5 31.166 40.5 41.499s41.167 18.833 72.5 25.5c48 9.33301 93 14 135 14c70.667 0 106 -30.667 106 -92c0 -34.667 -15 -86.334 -45 -155.001
c-27.333 -65.333 -49 -122 -65 -170l-7 -20.5l-12 -35.5c-12.667 -40 -29.667 -100 -51 -180s-38 -148 -50 -204s-18 -92.333 -18 -109c0 -24.667 7 -37 21 -37c15.333 0 50 34.667 104 104c51.333 66 109.833 149.833 175.5 251.5s119.834 192.167 162.501 271.5
c28 51.333 48.5 86.5 61.5 105.5s26.167 33.5 39.5 43.5c35.333 26 77 39 125 39c61.333 0 92 -28 92 -84c0 -11.333 -2 -34.666 -6 -69.999c-18 -145.333 -27 -279.666 -27 -402.999c0 -56 1.66699 -106.667 5 -152s8.33301 -89.666 15 -132.999s15.667 -89 27 -137
c14 -64.667 21 -104.334 21 -119.001c0 -10.667 -3.66699 -20.667 -11 -30c-10.667 -16 -31.667 -29 -63 -39c-58 -22 -102.333 -33 -133 -33c-38.667 0 -75.167 14 -109.5 42s-62.833 67.333 -85.5 118c-26 59.333 -43 137 -51 233c-2 16 -4 42.667 -6 80zM872 1565
l-18.001 -12.9961c-69.333 -42 -122.666 -63 -159.999 -63c-45.333 0 -68 17 -68 51c0 23.333 16.167 45.666 48.5 66.999s89.833 46.666 172.5 75.999c81.333 30.667 130 46 146 46c18 0 38.333 -13 61 -39c13.333 -14.667 36 -37.334 68 -68.001
c26 -24.667 43.667 -41 53 -49c28.667 -24.667 43 -41 43 -49c0 -16.667 -14.167 -31.834 -42.5 -45.501s-59.833 -20.5 -94.5 -20.5c-36.667 0 -70.5 8 -101.5 24s-66.833 43.667 -107.5 83z" />
    <glyph glyph-name="Udieresis" unicode="&#xdc;" horiz-adv-x="1280" 
d="M801 471l2 -0.00195312h-4c-50.667 -88 -95 -159 -133 -213s-74.333 -98.333 -109 -133c-42.667 -42.667 -85.334 -75.167 -128.001 -97.5s-83.334 -33.5 -122.001 -33.5c-81.333 0 -144.666 24.5 -189.999 73.5s-68 117.833 -68 206.5
c0 114.667 31.333 283.334 94 506.001c21.333 74 43 143.333 65 208s45.667 127.334 71 188.001s45 103.667 59 129c10 17.333 23.5 31.166 40.5 41.499s41.167 18.833 72.5 25.5c48 9.33301 93 14 135 14c70.667 0 106 -30.667 106 -92c0 -34.667 -15 -86.334 -45 -155.001
c-27.333 -65.333 -49 -122 -65 -170l-7 -20.5l-12 -35.5c-12.667 -40 -29.667 -100 -51 -180s-38 -148 -50 -204s-18 -92.333 -18 -109c0 -24.667 7 -37 21 -37c15.333 0 50 34.667 104 104c51.333 66 109.833 149.833 175.5 251.5s119.834 192.167 162.501 271.5
c28 51.333 48.5 86.5 61.5 105.5s26.167 33.5 39.5 43.5c35.333 26 77 39 125 39c61.333 0 92 -28 92 -84c0 -11.333 -2 -34.666 -6 -69.999c-18 -145.333 -27 -279.666 -27 -402.999c0 -56 1.66699 -106.667 5 -152s8.33301 -89.666 15 -132.999s15.667 -89 27 -137
c14 -64.667 21 -104.334 21 -119.001c0 -10.667 -3.66699 -20.667 -11 -30c-10.667 -16 -31.667 -29 -63 -39c-58 -22 -102.333 -33 -133 -33c-38.667 0 -75.167 14 -109.5 42s-62.833 67.333 -85.5 118c-26 59.333 -43 137 -51 233c-2 16 -4 42.667 -6 80zM669 1468
c-25.333 0 -45.668 5.66602 -61.001 16.999s-23 26.333 -23 45c0 21.333 8.33301 52 25 92c18.667 42.667 35 70 49 82c14.667 14 40.334 26 77.001 36s74.334 15 113.001 15c44 0 66 -19.667 66 -59c0 -57.333 -25.333 -109.666 -76 -156.999s-107.334 -71 -170.001 -71z
M1062 1425c-81.333 0 -121.999 30.999 -121.999 92.999c0 26 5.33301 52.833 16 80.5s23.667 49.167 39 64.5c25.333 26 75 39 149 39c63.333 0 95 -17.667 95 -53c0 -14 -5.33301 -33.833 -16 -59.5s-23.334 -51.167 -38.001 -76.5s-29.667 -45.666 -45 -60.999
c-16 -18 -42 -27 -78 -27z" />
    <glyph glyph-name="Yacute" unicode="&#xdd;" horiz-adv-x="1409" 
d="M582 1128l8.00098 -74.999c2.66699 -12 4.66699 -32.667 6 -62c15.333 -182.667 39.333 -345.667 72 -489c14.667 -60 32.334 -118 53.001 -174l86 180l30 68c9.33301 21.333 15.5 35.666 18.5 42.999s9.16699 21.666 18.5 42.999c14 33.333 36.667 92 68 176
c20 56 33.5 93 40.5 111s20.833 49 41.5 93c24.667 55.333 58 104 100 146c24 24.667 51.333 48.334 82 71.001s59.667 40.334 87 53.001s49.666 19 66.999 19c26 0 39 -10.333 39 -31c0 -18.667 -7 -43 -21 -73c-36.667 -91.333 -86.834 -203.333 -150.501 -336l-195 -388
c-66.333 -126 -122.5 -225.333 -168.5 -298c-37.333 -62 -74.666 -118 -111.999 -168c-70.667 -98 -134.334 -172.833 -191.001 -224.5s-120.667 -92.834 -192 -123.501c-37.333 -16.667 -78.333 -29 -123 -37c-33.333 -5.33301 -59.333 -8 -78 -8c-34 0 -61.333 6 -82 18
s-31 29 -31 51c0 24.667 11.833 61.5 35.5 110.5s48.167 87.5 73.5 115.5c16 16 46 24 90 24c48 0 88.333 5.66699 121 17c22.667 6 46 14.667 70 26s51 27 81 47c-51.333 87.333 -95.5 169 -132.5 245s-68.5 150.667 -94.5 224
c-34.667 95.333 -62.834 197.833 -84.501 307.5s-32.5 205.167 -32.5 286.5c0 47.333 5.33301 83.166 16 107.499s29.334 44.5 56.001 60.5c38.667 24.667 82 45.834 130 63.501s87.333 26.5 118 26.5c26 0 43.5 -9.33301 52.5 -28s14.5 -57.667 16.5 -117
c3.33301 -43.333 7 -77 11 -101zM887.001 1542c30 32 64.001 77 102.001 135c18 26.667 29 42.334 33 47.001s11.333 9 22 13c28.667 10 66.667 20.667 114 32s79 17 95 17c20.667 0 31 -9 31 -27c0 -39.333 -37 -94 -111 -164
c-56.667 -54.667 -112.667 -96.334 -168 -125.001s-108.333 -43 -159 -43c-28.667 0 -43 10.333 -43 31c0 8 2.66699 15 8 21s15.666 14.667 30.999 26c6.66699 4.66699 21.667 17 45 37z" />
    <glyph glyph-name="Thorn" unicode="&#xde;" horiz-adv-x="1217" 
d="M690 1001l-172 -568.999c45.333 0.666992 90.833 17.5 136.5 50.5s83.167 74.833 112.5 125.5s44 100.667 44 150c0 51.333 -10 96.666 -30 135.999s-50.333 75 -91 107zM778 1260l-1.99805 -7c77.333 -12 137.333 -29.667 180 -53c42.667 -22 79.667 -50.667 111 -86
c60 -68 90 -152 90 -252c0 -91.333 -25 -178.333 -75 -261s-116.333 -149.167 -199 -199.5s-169.334 -75.5 -260.001 -75.5c-32.667 0 -75.667 4 -129 12c-18.667 -63.333 -37.334 -115.333 -56.001 -156l-13 -21c-4.66699 -7.33301 -8.33398 -13.333 -11.001 -18
c-24 -33.333 -65 -62.666 -123 -87.999c-74 -34 -124.667 -51 -152 -51c-26.667 0 -47.667 7 -63 21s-23 33.667 -23 59s14.333 86.666 43 183.999l88 291l74 232.5l80 234.5l12 35l41 113l27 73c10 26 19.333 46.333 28 61s18.334 27.334 29.001 38.001
c39.333 40.667 92 61 158 61c46.667 0 83.167 -10.333 109.5 -31s39.5 -49.334 39.5 -86.001c0 -4 -1.33301 -14 -4 -30z" />
    <glyph glyph-name="germandbls" unicode="&#xdf;" horiz-adv-x="1194" 
d="M668 662l-33 36.001c43.333 37.333 74 67 92 89s34.333 48.333 49 79c19.333 35.333 29 75 29 119c0 32.667 -7.16699 64.667 -21.5 96s-33 57 -56 77s-45.833 30 -68.5 30c-24 0 -36 -7 -36 -21c0 4.66699 1.33301 -8.33301 4 -39c8 -46.667 12 -87.334 12 -122.001
c0 -23.333 -6.33301 -42.333 -19 -57s-35 -30.667 -67 -48v-4c0 -22 -2 -50.667 -6 -86c-18.667 -114.667 -38 -217.667 -58 -309l-11.5 -62c-3.66699 -19.333 -6.5 -35 -8.5 -47l4 -4c22 29.333 48.5 55.5 79.5 78.5s55.167 34.5 72.5 34.5c6.66699 0 10 -6.33301 10 -19
v-20c-2.66699 -13.333 -4 -34 -4 -62c0 -58.667 9.83301 -109 29.5 -151s47.167 -72.667 82.5 -92c29.333 50 50.666 96.833 63.999 140.5s20 90.167 20 139.5c0 66 -12.667 116.833 -38 152.5s-65.666 59.5 -120.999 71.5zM434 932.001
c-10.667 31.333 -16.002 60.666 -16.002 87.999c0 67.333 16.333 129.166 49 185.499s77.667 100.5 135 132.5s120.333 48 189 48c56 0 107.167 -13.333 153.5 -40s83.166 -62.167 110.499 -106.5s41 -93.5 41 -147.5c0 -56 -15.667 -105.333 -47 -148
c-18.667 -26 -34 -45.667 -46 -59s-39 -40 -81 -80c58 -6.66699 104.833 -18.667 140.5 -36s61.667 -41.833 78 -73.5s24.5 -73.167 24.5 -124.5c0 -63.333 -15.167 -128.5 -45.5 -195.5s-71.5 -129.667 -123.5 -188s-108.5 -104.833 -169.5 -139.5s-118.833 -52 -173.5 -52
c-62.667 0 -114.667 12.5 -156 37.5s-75.333 64.5 -102 118.5c-50 -110.667 -122.333 -166 -217 -166c-37.333 0 -67.166 8 -89.499 24s-33.5 36.667 -33.5 62c0 64.667 10.333 136.334 31 215.001l98.5 354c19.667 70.667 32.667 115.334 39 134.001s12.5 31 18.5 37l32 32
c6.66699 7.33301 18.334 17.333 35.001 30c32.667 26 74.334 45.333 125.001 58z" />
    <glyph glyph-name="agrave" unicode="&#xe0;" horiz-adv-x="1130" 
d="M797 520l-19 -6.00098c-48 -13.333 -82.667 -20 -104 -20c-26 0 -39 6.66699 -39 20c0 4.66699 5.33301 17 16 37c37.333 56.667 56 110 56 160c0 28.667 -5 54.834 -15 78.501s-21 35.5 -33 35.5c-10.667 0 -27 -11.333 -49 -34
c-62 -67.333 -111.167 -136.333 -147.5 -207s-54.5 -133.667 -54.5 -189c0 -36.667 7.5 -67 22.5 -91s33.833 -36 56.5 -36c19.333 0 55.5 20.667 108.5 62s112.5 96 178.5 164l27 22zM737 290.999l0.00390625 -4.00195l-4 4c-62 -72.667 -118.833 -132.167 -170.5 -178.5
s-99.334 -81.166 -143.001 -104.499s-83.834 -35 -120.501 -35c-74.667 0 -136.334 25 -185.001 75s-73 113.333 -73 190c0 47.333 12 103.333 36 168s57 128 99 190c70 101.333 158 187.333 264 258c109.333 72.667 214.666 109 315.999 109
c85.333 0 155.5 -17.5 210.5 -52.5s82.5 -79.167 82.5 -132.5c0 -39.333 -13.667 -81 -41 -125c36 0 58.667 -3.83301 68 -11.5s14 -25.5 14 -53.5c0 2.66699 -1.66699 -11 -5 -41c-4 -66 -6 -127.667 -6 -185c0 -30 0.333008 -52.667 1 -68s2 -33 4 -53s4 -36 6 -48
c5.33301 -31.333 14 -62.333 26 -93c-40 -39.333 -78.333 -68.166 -115 -86.499s-74 -27.5 -112 -27.5c-102.667 0 -154 86 -154 258c0 20 0.666992 35.667 2 47zM686.004 1479c12.667 0 23.998 -4.83203 33.998 -14.499s21.667 -27.5 35 -53.5
c28 -55.333 65.667 -105.666 113 -150.999c6 -6 11.667 -11.333 17 -16s11.333 -10.334 18 -17.001c14 -10.667 24 -20 30 -28s9 -17.333 9 -28c0 -30 -24.667 -45 -74 -45c-111.333 0 -207.666 39.667 -288.999 119c-22 22 -39 42.5 -51 61.5s-18 34.167 -18 45.5
c0 7.33301 9.33301 19.666 28 36.999s41.334 35 68.001 53c37.333 24.667 64 37 80 37z" />
    <glyph glyph-name="aacute" unicode="&#xe1;" horiz-adv-x="1130" 
d="M797 520l-19 -6.00098c-48 -13.333 -82.667 -20 -104 -20c-26 0 -39 6.66699 -39 20c0 4.66699 5.33301 17 16 37c37.333 56.667 56 110 56 160c0 28.667 -5 54.834 -15 78.501s-21 35.5 -33 35.5c-10.667 0 -27 -11.333 -49 -34
c-62 -67.333 -111.167 -136.333 -147.5 -207s-54.5 -133.667 -54.5 -189c0 -36.667 7.5 -67 22.5 -91s33.833 -36 56.5 -36c19.333 0 55.5 20.667 108.5 62s112.5 96 178.5 164l27 22zM737 290.999l0.00390625 -4.00195l-4 4c-62 -72.667 -118.833 -132.167 -170.5 -178.5
s-99.334 -81.166 -143.001 -104.499s-83.834 -35 -120.501 -35c-74.667 0 -136.334 25 -185.001 75s-73 113.333 -73 190c0 47.333 12 103.333 36 168s57 128 99 190c70 101.333 158 187.333 264 258c109.333 72.667 214.666 109 315.999 109
c85.333 0 155.5 -17.5 210.5 -52.5s82.5 -79.167 82.5 -132.5c0 -39.333 -13.667 -81 -41 -125c36 0 58.667 -3.83301 68 -11.5s14 -25.5 14 -53.5c0 2.66699 -1.66699 -11 -5 -41c-4 -66 -6 -127.667 -6 -185c0 -30 0.333008 -52.667 1 -68s2 -33 4 -53s4 -36 6 -48
c5.33301 -31.333 14 -62.333 26 -93c-40 -39.333 -78.333 -68.166 -115 -86.499s-74 -27.5 -112 -27.5c-102.667 0 -154 86 -154 258c0 20 0.666992 35.667 2 47zM684.004 1243c30 32 64.001 77 102.001 135c18 26.667 29 42.334 33 47.001s11.333 9 22 13
c28.667 10 66.667 20.667 114 32s79 17 95 17c20.667 0 31 -9 31 -27c0 -39.333 -37 -94 -111 -164c-56.667 -54.667 -112.667 -96.334 -168 -125.001s-108.333 -43 -159 -43c-28.667 0 -43 10.333 -43 31c0 8 2.66699 15 8 21s15.666 14.667 30.999 26
c6.66699 4.66699 21.667 17 45 37z" />
    <glyph glyph-name="acircumflex" unicode="&#xe2;" horiz-adv-x="1130" 
d="M797 520l-19 -6.00098c-48 -13.333 -82.667 -20 -104 -20c-26 0 -39 6.66699 -39 20c0 4.66699 5.33301 17 16 37c37.333 56.667 56 110 56 160c0 28.667 -5 54.834 -15 78.501s-21 35.5 -33 35.5c-10.667 0 -27 -11.333 -49 -34
c-62 -67.333 -111.167 -136.333 -147.5 -207s-54.5 -133.667 -54.5 -189c0 -36.667 7.5 -67 22.5 -91s33.833 -36 56.5 -36c19.333 0 55.5 20.667 108.5 62s112.5 96 178.5 164l27 22zM737 290.999l0.00390625 -4.00195l-4 4c-62 -72.667 -118.833 -132.167 -170.5 -178.5
s-99.334 -81.166 -143.001 -104.499s-83.834 -35 -120.501 -35c-74.667 0 -136.334 25 -185.001 75s-73 113.333 -73 190c0 47.333 12 103.333 36 168s57 128 99 190c70 101.333 158 187.333 264 258c109.333 72.667 214.666 109 315.999 109
c85.333 0 155.5 -17.5 210.5 -52.5s82.5 -79.167 82.5 -132.5c0 -39.333 -13.667 -81 -41 -125c36 0 58.667 -3.83301 68 -11.5s14 -25.5 14 -53.5c0 2.66699 -1.66699 -11 -5 -41c-4 -66 -6 -127.667 -6 -185c0 -30 0.333008 -52.667 1 -68s2 -33 4 -53s4 -36 6 -48
c5.33301 -31.333 14 -62.333 26 -93c-40 -39.333 -78.333 -68.166 -115 -86.499s-74 -27.5 -112 -27.5c-102.667 0 -154 86 -154 258c0 20 0.666992 35.667 2 47zM735.004 1266l-18.001 -12.9961c-69.333 -42 -122.666 -63 -159.999 -63c-45.333 0 -68 17 -68 51
c0 23.333 16.167 45.666 48.5 66.999s89.833 46.666 172.5 75.999c81.333 30.667 130 46 146 46c18 0 38.333 -13 61 -39c13.333 -14.667 36 -37.334 68 -68.001c26 -24.667 43.667 -41 53 -49c28.667 -24.667 43 -41 43 -49c0 -16.667 -14.167 -31.834 -42.5 -45.501
s-59.833 -20.5 -94.5 -20.5c-36.667 0 -70.5 8 -101.5 24s-66.833 43.667 -107.5 83z" />
    <glyph glyph-name="atilde" unicode="&#xe3;" horiz-adv-x="1130" 
d="M797 520l-19 -6.00098c-48 -13.333 -82.667 -20 -104 -20c-26 0 -39 6.66699 -39 20c0 4.66699 5.33301 17 16 37c37.333 56.667 56 110 56 160c0 28.667 -5 54.834 -15 78.501s-21 35.5 -33 35.5c-10.667 0 -27 -11.333 -49 -34
c-62 -67.333 -111.167 -136.333 -147.5 -207s-54.5 -133.667 -54.5 -189c0 -36.667 7.5 -67 22.5 -91s33.833 -36 56.5 -36c19.333 0 55.5 20.667 108.5 62s112.5 96 178.5 164l27 22zM737 290.999l0.00390625 -4.00195l-4 4c-62 -72.667 -118.833 -132.167 -170.5 -178.5
s-99.334 -81.166 -143.001 -104.499s-83.834 -35 -120.501 -35c-74.667 0 -136.334 25 -185.001 75s-73 113.333 -73 190c0 47.333 12 103.333 36 168s57 128 99 190c70 101.333 158 187.333 264 258c109.333 72.667 214.666 109 315.999 109
c85.333 0 155.5 -17.5 210.5 -52.5s82.5 -79.167 82.5 -132.5c0 -39.333 -13.667 -81 -41 -125c36 0 58.667 -3.83301 68 -11.5s14 -25.5 14 -53.5c0 2.66699 -1.66699 -11 -5 -41c-4 -66 -6 -127.667 -6 -185c0 -30 0.333008 -52.667 1 -68s2 -33 4 -53s4 -36 6 -48
c5.33301 -31.333 14 -62.333 26 -93c-40 -39.333 -78.333 -68.166 -115 -86.499s-74 -27.5 -112 -27.5c-102.667 0 -154 86 -154 258c0 20 0.666992 35.667 2 47zM528.004 1241c-34 0 -50.998 11 -50.998 33c0 29.333 39 59.333 117 90c69.333 26 122.666 39 159.999 39
c23.333 0 45.666 -4 66.999 -12s44 -21 68 -39c33.333 -24.667 60 -37 80 -37c20.667 0 41.667 3.33301 63 10c20 2.66699 29.667 4 29 4c8 0 14.833 -2.5 20.5 -7.5s8.5 -12.167 8.5 -21.5c0 -14 -14.333 -31 -43 -51c-68.667 -43.333 -128.334 -65 -179.001 -65
c-43.333 0 -90.333 18.333 -141 55c-30.667 22 -54.667 33 -72 33c-11.333 0 -30.333 -5 -57 -15c-29.333 -10.667 -52.666 -16 -69.999 -16z" />
    <glyph glyph-name="adieresis" unicode="&#xe4;" horiz-adv-x="1130" 
d="M797 520l-19 -6.00098c-48 -13.333 -82.667 -20 -104 -20c-26 0 -39 6.66699 -39 20c0 4.66699 5.33301 17 16 37c37.333 56.667 56 110 56 160c0 28.667 -5 54.834 -15 78.501s-21 35.5 -33 35.5c-10.667 0 -27 -11.333 -49 -34
c-62 -67.333 -111.167 -136.333 -147.5 -207s-54.5 -133.667 -54.5 -189c0 -36.667 7.5 -67 22.5 -91s33.833 -36 56.5 -36c19.333 0 55.5 20.667 108.5 62s112.5 96 178.5 164l27 22zM737 290.999l0.00390625 -4.00195l-4 4c-62 -72.667 -118.833 -132.167 -170.5 -178.5
s-99.334 -81.166 -143.001 -104.499s-83.834 -35 -120.501 -35c-74.667 0 -136.334 25 -185.001 75s-73 113.333 -73 190c0 47.333 12 103.333 36 168s57 128 99 190c70 101.333 158 187.333 264 258c109.333 72.667 214.666 109 315.999 109
c85.333 0 155.5 -17.5 210.5 -52.5s82.5 -79.167 82.5 -132.5c0 -39.333 -13.667 -81 -41 -125c36 0 58.667 -3.83301 68 -11.5s14 -25.5 14 -53.5c0 2.66699 -1.66699 -11 -5 -41c-4 -66 -6 -127.667 -6 -185c0 -30 0.333008 -52.667 1 -68s2 -33 4 -53s4 -36 6 -48
c5.33301 -31.333 14 -62.333 26 -93c-40 -39.333 -78.333 -68.166 -115 -86.499s-74 -27.5 -112 -27.5c-102.667 0 -154 86 -154 258c0 20 0.666992 35.667 2 47zM532.004 1169c-25.333 0 -45.668 5.66602 -61.001 16.999s-23 26.333 -23 45c0 21.333 8.33301 52 25 92
c18.667 42.667 35 70 49 82c14.667 14 40.334 26 77.001 36s74.334 15 113.001 15c44 0 66 -19.667 66 -59c0 -57.333 -25.333 -109.666 -76 -156.999s-107.334 -71 -170.001 -71zM925.002 1126c-81.333 0 -121.999 30.999 -121.999 92.999c0 26 5.33301 52.833 16 80.5
s23.667 49.167 39 64.5c25.333 26 75 39 149 39c63.333 0 95 -17.667 95 -53c0 -14 -5.33301 -33.833 -16 -59.5s-23.334 -51.167 -38.001 -76.5s-29.667 -45.666 -45 -60.999c-16 -18 -42 -27 -78 -27z" />
    <glyph glyph-name="aring" unicode="&#xe5;" horiz-adv-x="1130" 
d="M797 520l-19 -6.00098c-48 -13.333 -82.667 -20 -104 -20c-26 0 -39 6.66699 -39 20c0 4.66699 5.33301 17 16 37c37.333 56.667 56 110 56 160c0 28.667 -5 54.834 -15 78.501s-21 35.5 -33 35.5c-10.667 0 -27 -11.333 -49 -34
c-62 -67.333 -111.167 -136.333 -147.5 -207s-54.5 -133.667 -54.5 -189c0 -36.667 7.5 -67 22.5 -91s33.833 -36 56.5 -36c19.333 0 55.5 20.667 108.5 62s112.5 96 178.5 164l27 22zM737 290.999l0.00390625 -4.00195l-4 4c-62 -72.667 -118.833 -132.167 -170.5 -178.5
s-99.334 -81.166 -143.001 -104.499s-83.834 -35 -120.501 -35c-74.667 0 -136.334 25 -185.001 75s-73 113.333 -73 190c0 47.333 12 103.333 36 168s57 128 99 190c70 101.333 158 187.333 264 258c109.333 72.667 214.666 109 315.999 109
c85.333 0 155.5 -17.5 210.5 -52.5s82.5 -79.167 82.5 -132.5c0 -39.333 -13.667 -81 -41 -125c36 0 58.667 -3.83301 68 -11.5s14 -25.5 14 -53.5c0 2.66699 -1.66699 -11 -5 -41c-4 -66 -6 -127.667 -6 -185c0 -30 0.333008 -52.667 1 -68s2 -33 4 -53s4 -36 6 -48
c5.33301 -31.333 14 -62.333 26 -93c-40 -39.333 -78.333 -68.166 -115 -86.499s-74 -27.5 -112 -27.5c-102.667 0 -154 86 -154 258c0 20 0.666992 35.667 2 47zM710.004 1438c43.333 43.333 84.998 65 124.998 65c28.667 0 54.834 -7.5 78.501 -22.5s42.5 -36 56.5 -63
s21 -55.167 21 -84.5c0 -58.667 -23.5 -108.5 -70.5 -149.5s-103.5 -61.5 -169.5 -61.5c-62 0 -110.833 13.5 -146.5 40.5s-53.5 64.167 -53.5 111.5c0 44.667 14.833 82.5 44.5 113.5s67.834 47.833 114.501 50.5zM803.002 1217c18 0 34.667 7.66797 50 23.001
s23 32.666 23 51.999c0 27.333 -11.167 48.5 -33.5 63.5s-52.833 22.5 -91.5 22.5c-36.667 0 -55 -9.33301 -55 -28c0 -26.667 4.66699 -54 14 -82c3.33301 -9.33301 11 -17 23 -23c28 -18.667 51.333 -28 70 -28z" />
    <glyph glyph-name="ae" unicode="&#xe6;" horiz-adv-x="1579" 
d="M1124 551c50 4 92.167 12.833 126.5 26.5s60.833 31.667 79.5 54s28 46.833 28 73.5c0 13.333 -4.83301 24.833 -14.5 34.5s-21.834 14.5 -36.501 14.5c-36 0 -70.167 -18 -102.5 -54s-59.166 -85.667 -80.499 -149zM760 766c-32.667 0 -69 -8.66504 -109 -25.998
s-72.667 -39.333 -98 -66c-36.667 -36.667 -68 -83.334 -94 -140.001s-39 -106.334 -39 -149.001c0 -36 7.33301 -64.833 22 -86.5s34 -32.5 58 -32.5c18 0 42.5 9.83301 73.5 29.5s62.5 45.5 94.5 77.5c90 92 135 188.333 135 289c0 69.333 -14.333 104 -43 104z
M1071 850.002l26.999 17.9971c101.333 70 186.666 105 255.999 105c39.333 0 74.666 -9.16699 105.999 -27.5s55.666 -44.166 72.999 -77.499s26 -71.333 26 -114c0 -82.667 -27.333 -150.334 -82 -203.001c-36 -35.333 -86.167 -65.666 -150.5 -90.999
s-122.833 -38 -175.5 -38c-19.333 0 -37.666 1.33301 -54.999 4c-11.333 -44.667 -17 -78.667 -17 -102c0 -44 9.66699 -77.667 29 -101s47.333 -35 84 -35c28.667 0 61.334 10.833 98.001 32.5s68 48.5 94 80.5c16 19.333 27 29 33 29c12.667 0 19 -9 19 -27
c0 -27.333 -10 -61.666 -30 -102.999s-42.333 -74 -67 -98c-39.333 -38.667 -91.666 -69.5 -156.999 -92.5s-133 -34.5 -203 -34.5c-112 0 -180.333 32.333 -205 97c-10.667 27.333 -17.334 50 -20.001 68s-5.66699 62 -9 132h-4c-14.667 -28 -27.667 -49.5 -39 -64.5
s-27.666 -32.167 -48.999 -51.5c-31.333 -30 -63.333 -55.333 -96 -76c-105.333 -65.333 -203.666 -98 -294.999 -98c-64.667 0 -118 22.333 -160 67s-63 102 -63 172c0 100.667 32 197.667 96 291c44 65.333 107.167 132.833 189.5 202.5s156.5 118.834 222.5 147.501
l170 74c90.667 38 165 57 223 57c13.333 0 28.833 -7 46.5 -21s34.5 -32.667 50.5 -56s27.333 -45.333 34 -66z" />
    <glyph glyph-name="ccedilla" unicode="&#xe7;" horiz-adv-x="788" 
d="M600 965c50.667 -2 90.999 -16.667 120.999 -44s45 -64 45 -110c0 -40 -11.5 -80.333 -34.5 -121s-52 -74 -87 -100s-70.167 -39 -105.5 -39c-20.667 0 -31 7.33301 -31 22c0 5.33301 4 17 12 35c26 44 39 94.667 39 152c0 28.667 -3.33301 43 -10 43
c-9.33301 0 -22.666 -12 -39.999 -36s-32 -52.333 -44 -85c-20.667 -51.333 -37.834 -106 -51.501 -164s-20.5 -107 -20.5 -147c0 -45.333 6.83301 -81 20.5 -107s32.834 -39 57.501 -39c22.667 0 53 12 91 36s74 53.667 108 89c14 18 26.333 27 37 27c16 0 24 -9 24 -27
c0 -82 -32 -156.333 -96 -223c-44 -44 -94.5 -79.5 -151.5 -106.5s-108.167 -40.5 -153.5 -40.5c-79.333 0 -145.333 25 -198 75s-79 113 -79 189s16.833 155.833 50.5 239.5s79.667 163.167 138 238.5s124.5 138.333 198.5 189c53.333 36 105.333 54 156 54h4z
M171.999 -117c-58.667 0 -88.001 9.6709 -88.001 29.0039c0 15.333 6.66699 30.666 20 45.999s31 27.5 53 36.5s44.667 13.5 68 13.5c37.333 0 68.166 -11.5 92.499 -34.5s36.5 -53.167 36.5 -90.5c0 -26.667 -11.167 -54.334 -33.5 -83.001
s-51.166 -52.334 -86.499 -71.001s-69.666 -28 -102.999 -28c-19.333 0 -36.5 4.5 -51.5 13.5s-22.5 18.833 -22.5 29.5c0 7.33301 7 12.666 21 15.999c58.667 18.667 90 59.667 94 123z" />
    <glyph glyph-name="egrave" unicode="&#xe8;" horiz-adv-x="874" 
d="M397 311c30.667 20.667 54.001 41.334 70.001 62.001c35.333 43.333 62.666 93 81.999 149c15.333 36.667 27.333 77.667 36 123s13 87.666 13 126.999c0 36.667 -7.66699 55 -23 55c-21.333 0 -54 -47 -98 -141c-26 -56.667 -47.167 -113.167 -63.5 -169.5
s-24.5 -104.833 -24.5 -145.5c0 -14 2.66699 -34 8 -60zM399.001 279c7.33301 -40 33.3311 -60.001 77.998 -60.001c50 0 115 29.333 195 88c46.667 34 78 51 94 51c20 0 38.667 -5.33301 56 -16s26 -21.667 26 -33c0 -12 -9.66699 -27.667 -29 -47
c-35.333 -35.333 -76 -69.833 -122 -103.5s-90.333 -61.667 -133 -84s-85.334 -40 -128.001 -53s-80.667 -19.5 -114 -19.5c-83.333 0 -150 23.833 -200 71.5s-75 111.167 -75 190.5c0 60.667 13.167 129.167 39.5 205.5s61.833 147.833 106.5 214.5
c52.667 78 117.334 143 194.001 195c94.667 62.667 185.334 94 272.001 94c62.667 0 111.834 -19.833 147.501 -59.5s53.5 -94.167 53.5 -163.5c0 -54 -14.167 -110.333 -42.5 -169s-70.166 -115 -125.499 -169c-45.333 -45.333 -89.833 -80.666 -133.5 -105.999
s-81.834 -38 -114.501 -38c-14.667 0 -29.667 3.66699 -45 11zM556.999 1479c12.667 0 23.998 -4.83203 33.998 -14.499s21.667 -27.5 35 -53.5c28 -55.333 65.667 -105.666 113 -150.999c6 -6 11.667 -11.333 17 -16s11.333 -10.334 18 -17.001c14 -10.667 24 -20 30 -28
s9 -17.333 9 -28c0 -30 -24.667 -45 -74 -45c-111.333 0 -207.666 39.667 -288.999 119c-22 22 -39 42.5 -51 61.5s-18 34.167 -18 45.5c0 7.33301 9.33301 19.666 28 36.999s41.334 35 68.001 53c37.333 24.667 64 37 80 37z" />
    <glyph glyph-name="eacute" unicode="&#xe9;" horiz-adv-x="874" 
d="M397 311c30.667 20.667 54.001 41.334 70.001 62.001c35.333 43.333 62.666 93 81.999 149c15.333 36.667 27.333 77.667 36 123s13 87.666 13 126.999c0 36.667 -7.66699 55 -23 55c-21.333 0 -54 -47 -98 -141c-26 -56.667 -47.167 -113.167 -63.5 -169.5
s-24.5 -104.833 -24.5 -145.5c0 -14 2.66699 -34 8 -60zM399.001 279c7.33301 -40 33.3311 -60.001 77.998 -60.001c50 0 115 29.333 195 88c46.667 34 78 51 94 51c20 0 38.667 -5.33301 56 -16s26 -21.667 26 -33c0 -12 -9.66699 -27.667 -29 -47
c-35.333 -35.333 -76 -69.833 -122 -103.5s-90.333 -61.667 -133 -84s-85.334 -40 -128.001 -53s-80.667 -19.5 -114 -19.5c-83.333 0 -150 23.833 -200 71.5s-75 111.167 -75 190.5c0 60.667 13.167 129.167 39.5 205.5s61.833 147.833 106.5 214.5
c52.667 78 117.334 143 194.001 195c94.667 62.667 185.334 94 272.001 94c62.667 0 111.834 -19.833 147.501 -59.5s53.5 -94.167 53.5 -163.5c0 -54 -14.167 -110.333 -42.5 -169s-70.166 -115 -125.499 -169c-45.333 -45.333 -89.833 -80.666 -133.5 -105.999
s-81.834 -38 -114.501 -38c-14.667 0 -29.667 3.66699 -45 11zM554.999 1243c30 32 64.001 77 102.001 135c18 26.667 29 42.334 33 47.001s11.333 9 22 13c28.667 10 66.667 20.667 114 32s79 17 95 17c20.667 0 31 -9 31 -27c0 -39.333 -37 -94 -111 -164
c-56.667 -54.667 -112.667 -96.334 -168 -125.001s-108.333 -43 -159 -43c-28.667 0 -43 10.333 -43 31c0 8 2.66699 15 8 21s15.666 14.667 30.999 26c6.66699 4.66699 21.667 17 45 37z" />
    <glyph glyph-name="ecircumflex" unicode="&#xea;" horiz-adv-x="874" 
d="M397 311c30.667 20.667 54.001 41.334 70.001 62.001c35.333 43.333 62.666 93 81.999 149c15.333 36.667 27.333 77.667 36 123s13 87.666 13 126.999c0 36.667 -7.66699 55 -23 55c-21.333 0 -54 -47 -98 -141c-26 -56.667 -47.167 -113.167 -63.5 -169.5
s-24.5 -104.833 -24.5 -145.5c0 -14 2.66699 -34 8 -60zM399.001 279c7.33301 -40 33.3311 -60.001 77.998 -60.001c50 0 115 29.333 195 88c46.667 34 78 51 94 51c20 0 38.667 -5.33301 56 -16s26 -21.667 26 -33c0 -12 -9.66699 -27.667 -29 -47
c-35.333 -35.333 -76 -69.833 -122 -103.5s-90.333 -61.667 -133 -84s-85.334 -40 -128.001 -53s-80.667 -19.5 -114 -19.5c-83.333 0 -150 23.833 -200 71.5s-75 111.167 -75 190.5c0 60.667 13.167 129.167 39.5 205.5s61.833 147.833 106.5 214.5
c52.667 78 117.334 143 194.001 195c94.667 62.667 185.334 94 272.001 94c62.667 0 111.834 -19.833 147.501 -59.5s53.5 -94.167 53.5 -163.5c0 -54 -14.167 -110.333 -42.5 -169s-70.166 -115 -125.499 -169c-45.333 -45.333 -89.833 -80.666 -133.5 -105.999
s-81.834 -38 -114.501 -38c-14.667 0 -29.667 3.66699 -45 11zM605.999 1266l-18.001 -12.9961c-69.333 -42 -122.666 -63 -159.999 -63c-45.333 0 -68 17 -68 51c0 23.333 16.167 45.666 48.5 66.999s89.833 46.666 172.5 75.999c81.333 30.667 130 46 146 46
c18 0 38.333 -13 61 -39c13.333 -14.667 36 -37.334 68 -68.001c26 -24.667 43.667 -41 53 -49c28.667 -24.667 43 -41 43 -49c0 -16.667 -14.167 -31.834 -42.5 -45.501s-59.833 -20.5 -94.5 -20.5c-36.667 0 -70.5 8 -101.5 24s-66.833 43.667 -107.5 83z" />
    <glyph glyph-name="edieresis" unicode="&#xeb;" horiz-adv-x="874" 
d="M397 311c30.667 20.667 54.001 41.334 70.001 62.001c35.333 43.333 62.666 93 81.999 149c15.333 36.667 27.333 77.667 36 123s13 87.666 13 126.999c0 36.667 -7.66699 55 -23 55c-21.333 0 -54 -47 -98 -141c-26 -56.667 -47.167 -113.167 -63.5 -169.5
s-24.5 -104.833 -24.5 -145.5c0 -14 2.66699 -34 8 -60zM399.001 279c7.33301 -40 33.3311 -60.001 77.998 -60.001c50 0 115 29.333 195 88c46.667 34 78 51 94 51c20 0 38.667 -5.33301 56 -16s26 -21.667 26 -33c0 -12 -9.66699 -27.667 -29 -47
c-35.333 -35.333 -76 -69.833 -122 -103.5s-90.333 -61.667 -133 -84s-85.334 -40 -128.001 -53s-80.667 -19.5 -114 -19.5c-83.333 0 -150 23.833 -200 71.5s-75 111.167 -75 190.5c0 60.667 13.167 129.167 39.5 205.5s61.833 147.833 106.5 214.5
c52.667 78 117.334 143 194.001 195c94.667 62.667 185.334 94 272.001 94c62.667 0 111.834 -19.833 147.501 -59.5s53.5 -94.167 53.5 -163.5c0 -54 -14.167 -110.333 -42.5 -169s-70.166 -115 -125.499 -169c-45.333 -45.333 -89.833 -80.666 -133.5 -105.999
s-81.834 -38 -114.501 -38c-14.667 0 -29.667 3.66699 -45 11zM402.999 1169c-25.333 0 -45.668 5.66602 -61.001 16.999s-23 26.333 -23 45c0 21.333 8.33301 52 25 92c18.667 42.667 35 70 49 82c14.667 14 40.334 26 77.001 36s74.334 15 113.001 15
c44 0 66 -19.667 66 -59c0 -57.333 -25.333 -109.666 -76 -156.999s-107.334 -71 -170.001 -71zM795.997 1126c-81.333 0 -121.999 30.999 -121.999 92.999c0 26 5.33301 52.833 16 80.5s23.667 49.167 39 64.5c25.333 26 75 39 149 39c63.333 0 95 -17.667 95 -53
c0 -14 -5.33301 -33.833 -16 -59.5s-23.334 -51.167 -38.001 -76.5s-29.667 -45.666 -45 -60.999c-16 -18 -42 -27 -78 -27z" />
    <glyph glyph-name="igrave" unicode="&#xec;" horiz-adv-x="512" 
d="M211 -8l-12 -0.000976562c-26 0 -52 13.667 -78 41c-24 26 -41 54.833 -51 86.5s-15 71.834 -15 120.501c0 56 5 115 15 177s25.333 127.833 46 197.5s42.334 130.334 65.001 182.001s46.334 92.167 71.001 121.5c20 24 48 36 84 36c86 0 129 -67.333 129 -202
c0 -77.333 -9.5 -167.5 -28.5 -270.5s-42.833 -197.833 -71.5 -284.5s-57.334 -146.334 -86.001 -179.001c-14.667 -17.333 -37.334 -26 -68.001 -26zM377 1479c12.667 0 23.998 -4.83203 33.998 -14.499s21.667 -27.5 35 -53.5c28 -55.333 65.667 -105.666 113 -150.999
c6 -6 11.667 -11.333 17 -16s11.333 -10.334 18 -17.001c14 -10.667 24 -20 30 -28s9 -17.333 9 -28c0 -30 -24.667 -45 -74 -45c-111.333 0 -207.666 39.667 -288.999 119c-22 22 -39 42.5 -51 61.5s-18 34.167 -18 45.5c0 7.33301 9.33301 19.666 28 36.999
s41.334 35 68.001 53c37.333 24.667 64 37 80 37z" />
    <glyph glyph-name="iacute" unicode="&#xed;" horiz-adv-x="512" 
d="M211 -8l-12 -0.000976562c-26 0 -52 13.667 -78 41c-24 26 -41 54.833 -51 86.5s-15 71.834 -15 120.501c0 56 5 115 15 177s25.333 127.833 46 197.5s42.334 130.334 65.001 182.001s46.334 92.167 71.001 121.5c20 24 48 36 84 36c86 0 129 -67.333 129 -202
c0 -77.333 -9.5 -167.5 -28.5 -270.5s-42.833 -197.833 -71.5 -284.5s-57.334 -146.334 -86.001 -179.001c-14.667 -17.333 -37.334 -26 -68.001 -26zM375 1243c30 32 64.001 77 102.001 135c18 26.667 29 42.334 33 47.001s11.333 9 22 13c28.667 10 66.667 20.667 114 32
s79 17 95 17c20.667 0 31 -9 31 -27c0 -39.333 -37 -94 -111 -164c-56.667 -54.667 -112.667 -96.334 -168 -125.001s-108.333 -43 -159 -43c-28.667 0 -43 10.333 -43 31c0 8 2.66699 15 8 21s15.666 14.667 30.999 26c6.66699 4.66699 21.667 17 45 37z" />
    </font>
</defs>
</svg>
